<?xml version="1.0" encoding="utf-8"?>
<!-- Generator: Adobe Illustrator 27.1.1, SVG Export Plug-In . SVG Version: 6.00 Build 0)  -->
<svg version="1.1" id="Layer_1" xmlns="http://www.w3.org/2000/svg" xmlns:xlink="http://www.w3.org/1999/xlink" x="0px" y="0px"
	 viewBox="0 0 595.28 565.89" style="enable-background:new 0 0 595.28 565.89;" xml:space="preserve">
<style type="text/css">
	.st0{fill:#1A322E;}
	.st1{fill:#D6D6D6;}
	.st2{fill:#38635C;}
	.st3{fill:#FFFFFF;}
	.st4{fill:#F7ECDE;}
</style>
<path id="Path_83337" class="st0" d="M377.78,314.2l64.83,37.15c4.84,2.74,10.99,1.03,13.72-3.81c0.86-1.52,1.31-3.23,1.3-4.97
	v-33.52c0-4.03,3.26-7.29,7.29-7.29h21.78c12-0.03,21.71-9.75,21.73-21.75V91.27c0-12.03-9.75-21.78-21.77-21.78H239.87
	c-12.03,0-21.78,9.75-21.78,21.78v116.14L377.78,314.2z"/>
<path id="Path_83338" class="st1" d="M377.78,229.2v188.73c0,12.03-9.75,21.78-21.78,21.78H241.8c-1.28-0.01-2.53,0.33-3.64,0.96
	l-84.93,48.6c-4.85,2.72-10.99,0.99-13.71-3.87c-0.84-1.51-1.29-3.2-1.28-4.93v-33.51c0-4.03-3.26-7.29-7.29-7.29H109.2
	c-12.02,0-21.76-9.73-21.78-21.75V229.2c0-12.03,9.75-21.78,21.78-21.78h246.81C368.04,207.43,377.78,217.18,377.78,229.2z"/>
<path id="Path_83339" class="st2" d="M232.64,352.6c-4.03,0-7.29-3.26-7.29-7.29V251c0-4.03,3.26-7.29,7.29-7.29
	s7.29,3.26,7.29,7.29v94.37C239.89,349.37,236.64,352.6,232.64,352.6z"/>
<path id="Path_83340" class="st2" d="M261.65,352.66H203.6c-4.03,0-7.29-3.26-7.29-7.29c0-4.03,3.26-7.29,7.29-7.29h58.07
	c4.03,0,7.29,3.26,7.29,7.29c0,4.03-3.26,7.29-7.29,7.29H261.65z"/>
<path id="Path_83341" class="st3" d="M196.3,294.53c-2.97-0.01-5.63-1.81-6.74-4.57l-7.78-19.44l-7.78,19.44
	c-1.82,3.59-6.21,5.02-9.8,3.2c-3.14-1.59-4.69-5.21-3.69-8.58l14.58-36.3c1.53-3.72,5.79-5.5,9.51-3.97
	c1.8,0.74,3.23,2.17,3.97,3.97l14.58,36.3c1.47,3.72-0.33,7.94-4.05,9.44C198.22,294.37,197.26,294.55,196.3,294.53z M297.93,294.53
	c-2.97-0.01-5.63-1.81-6.74-4.57l-7.78-19.44l-7.78,19.44c-1.82,3.59-6.21,5.02-9.8,3.2c-3.14-1.59-4.69-5.21-3.69-8.58l14.58-36.3
	c1.53-3.72,5.79-5.5,9.51-3.97c1.8,0.74,3.23,2.17,3.97,3.97l14.58,36.3c1.47,3.72-0.33,7.94-4.05,9.44
	c-0.86,0.34-1.77,0.52-2.7,0.51H297.93z"/>
<path id="Path_83342" class="st2" d="M305.2,258.29H160.05c-4.03,0-7.29-3.26-7.29-7.29s3.26-7.29,7.29-7.29h145.18
	c4.03,0,7.29,3.26,7.29,7.29s-3.26,7.29-7.29,7.29H305.2z"/>
<circle id="Ellipse_26" class="st0" cx="231.3" cy="250.75" r="13.52"/>
<path id="Path_83343" class="st2" d="M160.01,287.26h43.55v7.29c-0.28,12.03-10.26,21.55-22.29,21.26
	c-11.63-0.27-20.99-9.64-21.26-21.26V287.26z M283.42,316.3c-12.02,0-21.76-9.73-21.78-21.75v-7.29h43.55v7.29
	C305.17,306.56,295.43,316.29,283.42,316.3z"/>
<g id="Group_162321" transform="translate(13.145 2.39)">
	<path id="Path_83344" class="st4" d="M437.23,168.73c-4.03,0-7.29-3.26-7.29-7.29v-14.58c0-4.03,3.26-7.29,7.29-7.29
		c8.05,0,14.58-6.53,14.58-14.58s-6.53-14.58-14.58-14.58c-8.05,0-14.58,6.53-14.58,14.58c0,4.03-3.26,7.29-7.29,7.29
		c-4.03,0-7.29-3.26-7.29-7.29c0.09-16.04,13.17-28.96,29.2-28.87c16.04,0.09,28.96,13.17,28.87,29.2
		c-0.07,13.13-8.95,24.57-21.65,27.91v8.18C444.5,165.44,441.25,168.71,437.23,168.73C437.23,168.73,437.23,168.73,437.23,168.73z
		 M437.23,197.76c-4.03,0-7.29-3.26-7.29-7.29c-0.03-4.09,3.2-7.45,7.29-7.59c3.85-0.17,7.11,2.8,7.28,6.65
		c0,0.09,0.01,0.18,0.01,0.27v0.67C444.52,194.5,441.25,197.76,437.23,197.76z M379.15,110.66H241.26c-4.03,0-7.29-3.26-7.29-7.29
		c0-4.03,3.26-7.29,7.29-7.29c0,0,0.01,0,0.01,0h137.89c4.03,0,7.29,3.26,7.29,7.29S383.19,110.65,379.15,110.66
		C379.16,110.66,379.16,110.66,379.15,110.66z M379.15,146.96H241.26c-4.03,0-7.29-3.26-7.29-7.29s3.26-7.29,7.29-7.29
		c0,0,0.01,0,0.01,0h137.89c4.03,0,7.29,3.26,7.29,7.29S383.19,146.95,379.15,146.96C379.16,146.96,379.16,146.96,379.15,146.96z
		 M379.15,183.26H241.26c-4.03,0-7.29-3.26-7.29-7.29s3.26-7.29,7.29-7.29c0,0,0.01,0,0.01,0h137.89c4.03,0,7.29,3.26,7.29,7.29
		S383.19,183.26,379.15,183.26C379.16,183.26,379.16,183.26,379.15,183.26z M364.58,241.33h43.61c4.03,0,7.29,3.26,7.29,7.29
		s-3.26,7.29-7.29,7.29h-43.55L364.58,241.33z"/>
</g>
<path id="Path_83345" class="st2" d="M341.49,381.7H123.75c-4.03,0-7.29-3.26-7.29-7.29c0-4.03,3.26-7.29,7.29-7.29l0,0h217.75
	c4.03,0,7.29,3.26,7.29,7.29C348.78,378.43,345.52,381.7,341.49,381.7z M254.38,410.73H123.75c-4.03,0-7.29-3.26-7.29-7.29
	c0-4.03,3.26-7.29,7.29-7.29l0,0h130.64c4.03,0,7.29,3.26,7.29,7.29C261.67,407.47,258.41,410.73,254.38,410.73z"/>
<path id="Path_83346" class="st4" d="M428.6,214.71c0,4.03-3.26,7.29-7.29,7.29h-44.83c-2.99-8.75-11.23-14.62-20.47-14.58h65.34
	C425.36,207.44,428.6,210.7,428.6,214.71z"/>
</svg>
