<svg xmlns="http://www.w3.org/2000/svg" version="1.1" xmlns:xlink="http://www.w3.org/1999/xlink" width="512" height="512" x="0" y="0" viewBox="0 0 48 48" style="enable-background:new 0 0 512 512" xml:space="preserve" class=""><g><g fill="none" stroke="#353535" stroke-width="2px"><path stroke-linecap="round" stroke-linejoin="round" d="m36 10.8 11-2.933V43.8l-11 3.133L24 43.8l-12 3.133L1 43.8V7.867L12 10.8" fill="none" opacity="1" stroke="#353535" stroke-width="2px"></path><g stroke-miterlimit="10" stroke="#353535" fill="none" stroke-width="2px"><path d="M30.86 5.2a7.598 7.598 0 0 0-1.788-2.288 7.766 7.766 0 0 0-10.206 0 7.484 7.484 0 0 0-1.682 9.248c1.106 2.143 6.784 9.236 6.785 12.84.001-3.604 5.678-10.697 6.785-12.84a7.633 7.633 0 0 0 .107-6.96z" fill="none" opacity="1" stroke="#353535" stroke-width="2px"></path><circle cx="23.969" cy="8.679" r="2" fill="none" opacity="1" stroke="#353535" stroke-width="2px"></circle><g stroke-linecap="round" stroke="#353535" fill="none" stroke-width="2px"><path d="M46.844 17.625 19.547 44.922M1 17.031l18.625 18.797L9.516 45.953M1 8l23.125 23.156L47 8" fill="none" opacity="1" stroke="#353535" stroke-width="2px"></path></g></g></g></g></svg>