<?xml version="1.0" encoding="utf-8"?>
<!-- Generator: Adobe Illustrator 27.1.1, SVG Export Plug-In . SVG Version: 6.00 Build 0)  -->
<svg version="1.1" id="Layer_1" xmlns="http://www.w3.org/2000/svg" xmlns:xlink="http://www.w3.org/1999/xlink" x="0px" y="0px"
	 viewBox="0 0 595.28 565.89" style="enable-background:new 0 0 595.28 565.89;" xml:space="preserve">
<g id="svgexport-17_13_" transform="translate(-5 -12)">
	<path id="Path_83797" d="M462.81,478.62H107.52c-24.51-0.03-44.38-19.89-44.42-44.4V221.04c0.03-24.52,19.9-44.39,44.42-44.42
		h302.71c4.9,0.21,8.71,4.36,8.49,9.26c-0.2,4.61-3.89,8.3-8.49,8.49H107.52c-14.72,0-26.65,11.93-26.65,26.65l0,0v213.19
		c0,14.72,11.93,26.65,26.65,26.65h355.29c14.72,0,26.65-11.93,26.65-26.65V232.76c-0.21-4.9,3.59-9.05,8.49-9.26
		c4.9-0.21,9.05,3.59,9.26,8.49c0.01,0.26,0.01,0.51,0,0.77v201.45c-0.03,24.52-19.9,44.39-44.42,44.42L462.81,478.62z"/>
	<path id="Path_83798" d="M471.7,247.67c-39.25,0-71.06-31.82-71.06-71.06c0-39.25,31.82-71.06,71.06-71.06s71.06,31.82,71.06,71.06
		S510.95,247.67,471.7,247.67z M471.7,123.31c-29.43,0-53.29,23.86-53.29,53.29c0,29.43,23.86,53.29,53.29,53.29
		c29.43,0,53.29-23.86,53.29-53.29l0,0C524.99,147.17,501.13,123.31,471.7,123.31C471.7,123.31,471.7,123.31,471.7,123.31z
		 M498.34,327.62H71.99c-4.91,0-8.89-3.98-8.89-8.89v-53.29c0-4.91,3.98-8.89,8.89-8.89h426.35c4.91,0,8.89,3.98,8.89,8.89v53.29
		C507.23,323.64,503.25,327.62,498.34,327.62z M80.86,309.84h408.6v-35.52H80.86V309.84z"/>
	<path id="Path_83799" d="M471.7,212.15c-4.91,0-8.89-3.98-8.89-8.89v-53.29c-0.21-4.9,3.59-9.05,8.49-9.26
		c4.9-0.21,9.05,3.59,9.26,8.49c0.01,0.26,0.01,0.51,0,0.77v53.29C480.57,208.16,476.6,212.14,471.7,212.15z"/>
	<path id="Path_83800" d="M498.34,185.49h-53.31c-4.9-0.21-8.71-4.36-8.49-9.26c0.2-4.61,3.89-8.3,8.49-8.49h53.29
		c4.9,0.21,8.71,4.36,8.49,9.26c-0.2,4.61-3.89,8.3-8.49,8.49H498.34z M160.81,380.91h-35.53c-4.9,0.21-9.05-3.59-9.26-8.49
		c-0.21-4.9,3.59-9.05,8.49-9.26c0.26-0.01,0.51-0.01,0.77,0h35.53c4.9-0.21,9.05,3.59,9.26,8.49c0.21,4.9-3.59,9.05-8.49,9.26
		C161.32,380.92,161.07,380.92,160.81,380.91z M231.88,380.91h-35.55c-4.9,0.21-9.05-3.59-9.26-8.49c-0.21-4.9,3.59-9.05,8.49-9.26
		c0.26-0.01,0.51-0.01,0.77,0h35.53c4.9-0.21,9.05,3.59,9.26,8.49c0.21,4.9-3.59,9.05-8.49,9.26c-0.26,0.01-0.51,0.01-0.77,0H231.88
		z M445.05,434.2h-106.6c-4.91,0-8.89-3.98-8.89-8.89v-53.29c0-4.91,3.98-8.89,8.89-8.89h106.6c4.91,0,8.89,3.98,8.89,8.89v53.29
		C453.94,430.22,449.96,434.2,445.05,434.2c-0.01,0-0.01,0-0.02,0H445.05z M347.34,416.44h88.82v-35.53h-88.82V416.44z"/>
</g>
</svg>
