<?xml version="1.0" encoding="utf-8"?>
<!-- Generator: Adobe Illustrator 27.1.1, SVG Export Plug-In . SVG Version: 6.00 Build 0)  -->
<svg version="1.1" id="Layer_1" xmlns="http://www.w3.org/2000/svg" xmlns:xlink="http://www.w3.org/1999/xlink" x="0px" y="0px"
	 viewBox="0 0 595.28 565.89" style="enable-background:new 0 0 595.28 565.89;" xml:space="preserve">
<style type="text/css">
	.st0{fill:#1A322E;}
</style>
<g id="svgexport-17_9_" transform="translate(-3 -5)">
	<path id="Path_83780" class="st0" d="M178.43,108.75H484.6v15.31H178.43L178.43,108.75z M216.7,284.85
		c0-12.68-10.28-22.96-22.96-22.96c-12.68,0-22.96,10.28-22.96,22.96c0,12.68,10.28,22.96,22.96,22.96h0
		c12.68,0.01,22.97-10.26,22.99-22.94c0-0.01,0-0.02,0-0.02H216.7z M193.74,292.5c-4.23,0-7.65-3.43-7.65-7.65
		c0-4.23,3.43-7.65,7.65-7.65c4.23,0,7.65,3.43,7.65,7.65v0C201.39,289.08,197.97,292.5,193.74,292.5
		C193.74,292.5,193.74,292.5,193.74,292.5z M446.4,361.42h-15.31v38.27h-38.27V415h38.27v38.27h15.31v-38.34h38.27v-15.31h-38.25
		L446.4,361.42z"/>
	<path id="Path_83781" class="st0" d="M484.69,78.14H147.81c-4.23,0-7.65,3.43-7.65,7.65l0,0v53.6h-22.99
		c-4.23,0-7.65,3.43-7.65,7.65v84.17h-7.65c-12.62-0.06-22.9,10.11-22.96,22.73c0,0.09,0,0.18,0,0.28v61.26
		c-0.06,12.62,10.12,22.9,22.73,22.96c0.08,0,0.15,0,0.23,0h7.65v84.22c0,4.23,3.43,7.65,7.65,7.65h240.62
		c12.65,44.73,59.17,70.74,103.9,58.1c36.27-10.26,61.3-43.37,61.27-81.06c-0.01-3.2-0.2-6.4-0.57-9.57
		c0.33-1.89,0.53-3.81,0.57-5.74V116.41C522.93,95.29,505.82,78.17,484.69,78.14z M94.21,315.49v-61.26c0-4.23,3.43-7.65,7.65-7.65
		l0,0h107.27c12.62,0,22.85,10.23,22.85,22.85c0,0.04,0,0.08,0,0.11v30.62c0.08,12.62-10.09,22.91-22.71,22.99
		c-0.05,0-0.09,0-0.14,0H101.86C97.64,323.14,94.21,319.72,94.21,315.49L94.21,315.49z M438.77,476.28
		c-38.06,0-68.91-30.85-68.91-68.91c0-38.06,30.85-68.91,68.91-68.91c38.06,0,68.91,30.85,68.91,68.91S476.83,476.28,438.77,476.28
		C438.77,476.28,438.77,476.28,438.77,476.28z M438.77,323.19c-46.49,0.05-84.17,37.73-84.22,84.22c0,2.58,0.16,5.14,0.39,7.65
		H124.85v-76.61h84.29c21.12-0.04,38.23-17.15,38.27-38.27v-30.62c0-21.15-17.12-38.3-38.27-38.34h-84.29V154.7h359.85
		c8.28,0.01,16.35-2.67,22.96-7.65v212.13c-15.71-22.53-41.42-35.98-68.89-36.03V323.19z M484.69,139.39H155.47V93.44h329.23
		c12.69,0,22.97,10.29,22.97,22.97S497.38,139.39,484.69,139.39z"/>
</g>
</svg>
