<?xml version="1.0" encoding="utf-8"?>
<!-- Generator: Adobe Illustrator 27.1.1, SVG Export Plug-In . SVG Version: 6.00 Build 0)  -->
<svg version="1.1" id="Layer_1" xmlns="http://www.w3.org/2000/svg" xmlns:xlink="http://www.w3.org/1999/xlink" x="0px" y="0px"
	 viewBox="0 0 595.28 565.89" style="enable-background:new 0 0 595.28 565.89;" xml:space="preserve">
<style type="text/css">
	.st0{fill-rule:evenodd;clip-rule:evenodd;}
</style>
<g id="svgexport-17_11_" transform="translate(-54.813 1.391)">
	<path id="Path_83801" class="st0" d="M448.52,116.67c-3.06,0-5.55,2.48-5.55,5.55v104.98h-36.1V122.21c0-3.06-2.48-5.55-5.55-5.55
		h-25.7l49.35-60.5l49.33,60.5H448.52z M429.16,43.92c-1.01-1.29-2.55-2.05-4.19-2.09c-1.68,0.02-3.26,0.79-4.31,2.09L359.6,118.7
		c-1.93,2.39-1.56,5.9,0.84,7.83c0.98,0.79,2.21,1.23,3.47,1.23h31.87v104.98c0,3.06,2.48,5.55,5.55,5.55h47.19
		c3.07,0.01,5.58-2.47,5.59-5.55c0,0,0,0,0,0V127.78h31.87c2.14,0,4.08-1.24,4.98-3.18c0.93-1.94,0.66-4.23-0.69-5.9L429.16,43.92z
		 M236.27,181.42l49.33-60.5l49.39,60.46h-25.72c-3.06,0-5.55,2.48-5.55,5.55V291.9h-36.1V186.92c0-3.06-2.48-5.55-5.55-5.55
		L236.27,181.42z M262.03,303.05h47.19c3.06,0,5.55-2.48,5.55-5.55v-105h31.87c3.07,0,5.57-2.49,5.57-5.57
		c0-1.27-0.44-2.5-1.23-3.49l-61.01-74.86c-1.93-2.38-5.43-2.73-7.8-0.8c-0.29,0.24-0.56,0.51-0.8,0.8l-61.03,74.84
		c-1.93,2.39-1.56,5.9,0.84,7.83c0.99,0.8,2.22,1.23,3.49,1.23h31.87v104.98c0,3.06,2.48,5.55,5.55,5.55L262.03,303.05z
		 M453.44,411.42c-0.52,12.92-10.21,23.63-23.02,25.43v-50.86C443.23,387.78,452.93,398.49,453.44,411.42z M396.35,348.45
		c0.51-12.93,10.21-23.64,23.02-25.43v50.86c-12.8-1.83-22.46-12.55-22.96-25.47L396.35,348.45z M453.44,348.45
		c-0.01,3.06,2.47,5.55,5.53,5.56s5.55-2.47,5.56-5.53c0-0.01,0-0.02,0-0.02c-0.58-19.01-15.12-34.66-34.03-36.65V297.7
		c0.01-3.06-2.47-5.55-5.53-5.56c-3.06-0.01-5.55,2.47-5.56,5.53c0,0.01,0,0.02,0,0.02v14.11c-20.23,1.68-35.27,19.43-33.59,39.66
		c1.48,17.9,15.69,32.11,33.59,33.59v51.73c-12.81-1.8-22.5-12.5-23.02-25.43c0.01-3.06-2.47-5.55-5.53-5.56
		c-3.06-0.01-5.55,2.47-5.56,5.53c0,0.01,0,0.02,0,0.02c0.57,19.04,15.15,34.71,34.09,36.67v14.08c-0.01,3.06,2.47,5.55,5.53,5.56
		c3.06,0.01,5.55-2.47,5.56-5.53c0-0.01,0-0.02,0-0.02v-14.08c20.23-1.81,35.16-19.68,33.35-39.9
		c-1.59-17.72-15.63-31.76-33.35-33.35v-51.8c12.81,1.79,22.51,12.5,23.02,25.43L453.44,348.45z M424.98,485.34
		c58.24,0,105.46-47.21,105.46-105.46s-47.21-105.46-105.46-105.46c-58.24,0-105.46,47.21-105.46,105.46
		S366.74,485.34,424.98,485.34L424.98,485.34z M373.91,504.47H199.39c-13.62-0.01-24.64-11.06-24.63-24.68
		c0.01-13.6,11.03-24.62,24.63-24.63h136.64c15.38,18.16,35.94,31.2,58.93,37.36c-4.48,7.37-12.45,11.89-21.07,11.95H373.91z
		 M174.76,419.41c0.01-13.61,11.04-24.64,24.65-24.65h109.91c2.26,17.63,8.55,34.5,18.37,49.31H199.42
		c-13.62,0-24.66-11.03-24.67-24.65H174.76z M174.76,359.02c0.01-13.61,11.04-24.64,24.65-24.65h118.26
		c-6.13,14.38-9.28,29.86-9.25,45.5c0,1.28,0,2.53,0,3.79H199.39c-13.6-0.01-24.63-11.03-24.65-24.63H174.76z M424.98,263.31
		c-42.32,0.03-81.3,22.98-101.88,59.96H199.39c-19.74,0-35.75,16-35.75,35.74c0,12.25,6.27,23.65,16.62,30.2
		c-16.68,10.56-21.64,32.64-11.08,49.32c2.83,4.47,6.61,8.25,11.08,11.08c-16.68,10.56-21.64,32.64-11.08,49.32
		c6.55,10.35,17.95,16.62,30.2,16.62h174.48c13.87-0.06,26.48-8.09,32.4-20.64c63.54,10.39,123.46-32.7,133.85-96.23
		c10.39-63.54-32.7-123.46-96.23-133.85C437.64,263.82,431.31,263.31,424.98,263.31z"/>
</g>
</svg>
