<?xml version="1.0" encoding="utf-8"?>
<!-- Generator: Adobe Illustrator 27.1.1, SVG Export Plug-In . SVG Version: 6.00 Build 0)  -->
<svg version="1.1" id="Layer_1" xmlns="http://www.w3.org/2000/svg" xmlns:xlink="http://www.w3.org/1999/xlink" x="0px" y="0px"
	 viewBox="0 0 595.28 565.89" style="enable-background:new 0 0 595.28 565.89;" xml:space="preserve">
<path id="Path_83784" d="M462.18,162.55h-96.66c5.71-2.64,10.99-6.12,15.67-10.32c10.58-8.98,16.63-22.2,16.52-36.07
	c-0.5-10.66-4.83-20.79-12.19-28.53c-16.55-17.69-44.31-18.62-62-2.07c-0.97,0.91-1.89,1.85-2.78,2.84
	c-11.11,12.62-18.95,27.77-22.84,44.13c-3.89-16.36-11.73-31.51-22.84-44.13c-16.31-18.08-44.18-19.53-62.27-3.22
	c-18.08,16.31-19.53,44.18-3.22,62.27c1.58,1.75,3.29,3.37,5.13,4.84c4.63,4.19,9.87,7.65,15.54,10.26H133.7
	c-11.03,0-19.98,8.95-19.98,19.98l0,0v43.58c0.02,9.39,6.57,17.5,15.74,19.49v221.08c0,11.03,8.95,19.98,19.98,19.98h296.94
	c11.03,0,19.98-8.95,19.98-19.98V274.37c0-4.38-3.55-7.94-7.94-7.94c-4.38,0-7.94,3.55-7.94,7.94v192.31
	c0.01,2.27-1.82,4.12-4.08,4.13c-0.01,0-0.03,0-0.04,0H305.84V246.04h156.33c11.03,0,19.98-8.95,19.98-19.98v-43.53
	c0-11.03-8.95-19.98-19.98-19.98H462.18z M225.58,140.73c-12.55-9.08-15.36-26.6-6.29-39.15c0.77-1.07,1.62-2.08,2.53-3.03
	c5.09-5.53,12.22-8.74,19.74-8.88c8.58,0.37,16.68,4.08,22.58,10.32c13.25,18.15,21.66,39.39,24.42,61.69
	C266.13,160.17,244.45,152.96,225.58,140.73z M289.96,470.81H149.44c-2.27,0.01-4.12-1.82-4.13-4.08c0-0.01,0-0.03,0-0.04V246.04
	h144.65L289.96,470.81z M289.96,230.15H133.7c-2.26,0.01-4.1-1.8-4.13-4.06v-43.55c0.01-2.28,1.85-4.12,4.13-4.13h156.26
	L289.96,230.15z M331.65,99.95c9.81-12.03,27.51-13.84,39.54-4.03c0.99,0.81,1.92,1.68,2.79,2.61c4.72,4.93,7.52,11.39,7.88,18.2
	c-0.15,9.32-4.4,18.1-11.61,24c-18.85,12.2-40.51,19.4-62.91,20.91c2.76-22.31,11.16-43.54,24.42-61.69L331.65,99.95z
	 M466.25,226.08c0.01,2.23-1.79,4.05-4.02,4.06c-0.01,0-0.03,0-0.04,0H305.84v-51.66h156.33c2.26,0.02,4.07,1.87,4.06,4.13v43.49
	L466.25,226.08z"/>
</svg>
