<?xml version="1.0" encoding="utf-8"?>
<!-- Generator: Adobe Illustrator 27.1.1, SVG Export Plug-In . SVG Version: 6.00 Build 0)  -->
<svg version="1.1" id="Layer_1" xmlns="http://www.w3.org/2000/svg" xmlns:xlink="http://www.w3.org/1999/xlink" x="0px" y="0px"
	 viewBox="0 0 595.28 565.89" style="enable-background:new 0 0 595.28 565.89;" xml:space="preserve">
<style type="text/css">
	.st0{fill:#1A322E;}
</style>
<path id="Path_83782" class="st0" d="M500.29,344.02c3.38,0,6.11-2.74,6.11-6.11v0v-15.77c-0.01-12.21-9.79-22.16-21.99-22.39V246.3
	c-0.02-14.5-10.23-27-24.44-29.92v-10.79c-0.02-14.21-9.82-26.53-23.66-29.75c4.76-19.89,1.23-40.87-9.78-58.11
	c-1.74-2.89-5.5-3.83-8.39-2.09c-2.89,1.74-3.83,5.5-2.09,8.39c0.06,0.1,0.13,0.2,0.19,0.3c18.75,29.39,10.13,68.42-19.26,87.17
	c-2.52,1.61-5.15,3.04-7.87,4.27h-40.06c-5.09-13.4-13.86-25.1-25.3-33.73c-6.79-5.12-14.41-9.04-22.52-11.6
	c-6.6-34.3,15.85-67.46,50.16-74.07c3.88-0.75,7.83-1.13,11.79-1.14c12.45-0.03,24.62,3.64,34.98,10.54
	c2.92,1.7,6.66,0.71,8.36-2.21c1.55-2.66,0.87-6.06-1.57-7.93c-34.58-23.13-81.37-13.84-104.5,20.74
	c-10.06,15.04-14.37,33.2-12.14,51.15c-3.26-0.42-6.55-0.64-9.85-0.63c-11.86-0.04-23.56,2.75-34.13,8.14h-35.32l20.32-27.41
	c3.88-5.24,2.77-12.64-2.47-16.51c-2.03-1.5-4.49-2.31-7.02-2.31h-7.57V85.87c-0.01-7.86-6.37-14.23-14.23-14.25h-33.73
	c-7.87,0.01-14.24,6.39-14.25,14.25v42.88h-7.53c-6.52,0-11.8,5.29-11.8,11.81c0,2.53,0.81,4.99,2.31,7.02l20.32,27.41h-37.47
	c-14.62,0.02-26.46,11.88-26.46,26.5v256.52c0.02,16.85,13.68,30.51,30.53,30.53h333.88c16.85-0.02,30.51-13.68,30.53-30.53v-53.45
	c12.2-0.24,21.97-10.19,21.99-22.39v-15.77c-0.2-3.37-3.09-5.94-6.46-5.74c-3.09,0.18-5.56,2.65-5.74,5.74v15.77
	c0,5.62-4.56,10.18-10.18,10.18H435.5c-22.2,0-40.2-18-40.2-40.2c0-22.2,18-40.2,40.2-40.2h48.49c5.62,0,10.18,4.56,10.18,10.18
	v15.77C494.19,341.3,496.92,344.02,500.29,344.02z M432.51,187.58c8.81,1.51,15.25,9.13,15.26,18.07v10.18h-36.01
	C420.8,208.18,427.91,198.5,432.51,187.58z M156.23,140.96c3.36-0.01,6.08-2.73,6.09-6.09v-49c0-1.16,0.94-2.11,2.11-2.11h33.73
	c1.16,0,2.11,0.94,2.11,2.11v49c0,3.38,2.74,6.11,6.11,6.11h12.86l-36.41,48.87c-0.74,0.9-2.06,1.04-2.97,0.3
	c-0.11-0.09-0.21-0.19-0.3-0.3l-36.2-48.89H156.23z M115.94,187.35h46.51l7.32,9.87c4.69,6.32,13.61,7.65,19.94,2.96
	c1.13-0.84,2.12-1.83,2.96-2.96l7.32-9.87h27.01c-8.41,7.94-14.9,17.68-18.98,28.51h-92.09c-7.87,0-14.25-6.38-14.25-14.25
	s6.38-14.25,14.25-14.25H115.94z M472.25,299.83h-36.79c-28.95,0-52.41,23.47-52.41,52.41s23.47,52.41,52.41,52.41h36.73v53.45
	c-0.01,10.11-8.21,18.31-18.32,18.32H119.99c-10.11-0.01-18.31-8.21-18.32-18.32V223.8c4.25,2.75,9.2,4.21,14.25,4.22h143.87
	c3.37-0.2,5.94-3.09,5.74-6.46c-0.18-3.09-2.65-5.56-5.74-5.74h-38.63c4.42-9.51,11.12-17.78,19.5-24.08
	c22.42-16.78,53.22-16.78,75.65,0c8.36,6.3,15.04,14.56,19.46,24.06H288.3c-3.37,0.2-5.94,3.09-5.74,6.46
	c0.18,3.09,2.65,5.56,5.74,5.74h165.57c10.11,0.01,18.31,8.21,18.32,18.32L472.25,299.83z"/>
<path id="Path_83783" class="st0" d="M420.09,352.16c0,11.05,8.96,20.01,20.01,20.01c11.05,0,20.01-8.96,20.01-20.01
	c0-11.05-8.96-20.01-20.01-20.01C429.05,332.16,420.1,341.11,420.09,352.16z M447.88,352.16c0,4.3-3.48,7.78-7.78,7.78
	c-4.3,0-7.78-3.48-7.78-7.78c0-4.3,3.48-7.78,7.78-7.78l0,0C444.39,344.39,447.87,347.87,447.88,352.16z M363.08,203.06
	c3.38,0,6.11-2.74,6.11-6.11c0,0,0,0,0,0v-3.75c8.86-2.84,14.88-11.08,14.88-20.39c0.03-8.03-4.99-15.2-12.54-17.92l-12.65-4.64
	c-2.67-0.97-4.46-3.49-4.51-6.33v-0.11c-0.06-4.85,3.73-8.88,8.58-9.11c4.03-0.09,7.6,2.58,8.64,6.47c0.73,3.3,3.99,5.38,7.29,4.65
	c3.3-0.73,5.38-3.99,4.65-7.29c-0.04-0.17-0.08-0.34-0.13-0.5c-1.87-7-7.22-12.53-14.15-14.63v-3.82c0.2-3.37-2.38-6.26-5.75-6.46
	c-3.37-0.2-6.26,2.38-6.46,5.75c-0.01,0.24-0.01,0.48,0,0.71v3.75c-8.86,2.84-14.88,11.08-14.88,20.39v0.11
	c0.02,8.01,5.03,15.15,12.54,17.9l12.65,4.62c2.71,0.99,4.52,3.57,4.51,6.45c0.07,4.86-3.73,8.89-8.58,9.11
	c-4.04,0.09-7.62-2.59-8.67-6.49c-1.09-3.2-4.56-4.91-7.76-3.82c-2.91,0.99-4.63,3.98-4.03,6.99c1.9,6.99,7.25,12.51,14.17,14.63
	v3.71c0,3.38,2.74,6.11,6.11,6.11l0,0L363.08,203.06z"/>
</svg>
