<?xml version="1.0" encoding="utf-8"?>
<!-- Generator: Adobe Illustrator 27.1.1, SVG Export Plug-In . SVG Version: 6.00 Build 0)  -->
<svg version="1.1" id="Layer_1" xmlns="http://www.w3.org/2000/svg" xmlns:xlink="http://www.w3.org/1999/xlink" x="0px" y="0px"
	 viewBox="0 0 595.28 565.89" style="enable-background:new 0 0 595.28 565.89;" xml:space="preserve">
<style type="text/css">
	.st0{fill-rule:evenodd;clip-rule:evenodd;fill:#1D574E;}
</style>
<g id="svgexport-17_7_" transform="translate(-16 -29.426)">
	<path id="Path_83779" class="st0" d="M207.53,256.41c-10.72-11.65-18.22-25.89-21.75-41.32h-67.01
		c-11.43-0.01-20.71,9.24-20.72,20.67c-0.01,11.43,9.24,20.71,20.67,20.72c0.02,0,0.03,0,0.05,0L207.53,256.41z M389.89,244.27
		c-0.63,3.79-4.22,6.34-8.01,5.71c-2.76-0.46-4.98-2.53-5.62-5.26c-1.76-7.48-2.63-15.15-2.61-22.84c0-2.29,0.08-4.57,0.25-6.86
		h-10.38c-3.5,15.45-10.98,29.72-21.7,41.39h81.82c1.04-0.02,1.88-0.85,1.89-1.89v-37.59c-0.02-1.04-0.85-1.88-1.89-1.89h-19.21
		c-6.96,8.54-11.92,18.53-14.5,29.24L389.89,244.27z M375.85,201.1c0.16-0.73,0.32-1.47,0.49-2.2c5-21.07,15.69-40.35,30.91-55.75
		c11.92-12.22,27.1-20.76,43.73-24.59l-5.08-16.93c-1.09-3.68,1.01-7.55,4.69-8.64c1.66-0.49,3.44-0.35,5,0.41l83.7,34.46
		c3.54,1.46,5.24,5.51,3.78,9.06c-0.22,0.53-0.5,1.03-0.84,1.49c-17.99,24.11-35.77,48.4-53.61,72.58
		c-2.29,3.08-6.64,3.71-9.71,1.43c-1.29-0.96-2.2-2.33-2.59-3.88l-5.88-23.06c-18.09-0.06-35.79,5.32-50.78,15.43l-0.21,0.14h4.13
		c8.73,0.02,15.8,7.09,15.81,15.81v37.74c0,0.41-0.31,2.05,0.08,2.07c24.72,2.24,43.66,22.92,43.73,47.74v45.83
		c10.29,4.25,17.02,14.26,17.07,25.39v31.46c-0.05,11.13-6.78,21.14-17.07,25.39v45.89c-0.05,26.47-21.49,47.92-47.96,47.96H132.17
		c-26.47-0.05-47.92-21.49-47.96-47.96V235.73c0.05-19.1,15.52-34.57,34.62-34.62h64.98c-0.14-2.05-0.21-4.12-0.21-6.21
		c-0.63-50.3,39.65-91.59,89.95-92.21c50.3-0.63,91.59,39.65,92.21,89.95c0.01,0.76,0.01,1.51,0,2.27c0,2.09-0.07,4.16-0.21,6.21
		L375.85,201.1z M389.96,202.12c-0.95,3.96-1.62,7.99-2,12.05c6.29-9.71,14.44-18.08,23.98-24.63c18.83-12.7,41.28-18.94,63.96-17.8
		c3.24-0.06,6.1,2.12,6.88,5.26l3.5,13.92l39.63-53.61l-62.37-25.69l3.16,10.52l0,0c1.09,3.67-1,7.54-4.67,8.63
		c-0.42,0.12-0.85,0.21-1.28,0.25c-16.64,2.1-32.04,9.86-43.62,21.99c-13.4,13.56-22.82,30.54-27.23,49.09L389.96,202.12z
		 M406.31,369.66c-12.01,0-21.74,9.73-21.74,21.73c0,12.01,9.73,21.74,21.73,21.74c12.01,0,21.74-9.73,21.74-21.73
		c0-5.77-2.29-11.3-6.37-15.38C417.59,371.95,412.07,369.66,406.31,369.66z M411.84,385.87c-3.05-3.05-8-3.06-11.05-0.01
		c-3.05,3.05-3.06,8-0.01,11.05c3.05,3.05,8,3.06,11.05,0.01c1.47-1.46,2.29-3.45,2.29-5.52c-0.02-2.08-0.86-4.06-2.34-5.52
		L411.84,385.87z M472.85,362.09h-83.51c-7.49,0.03-13.55,6.1-13.58,13.58v31.46c0.03,7.49,6.1,13.55,13.58,13.58h83.51
		c7.49-0.03,13.55-6.1,13.58-13.58v-31.46C486.4,368.18,480.34,362.12,472.85,362.09z M389.34,348.16h79.99v-43.82
		c-0.06-18.76-15.25-33.95-34.01-34.01H118.82c-7.46,0.01-14.73-2.42-20.69-6.9v215.02c0.06,18.77,15.27,33.97,34.04,34.01h303.16
		c18.75-0.07,33.94-15.26,34-34.01v-43.82h-80.06c-15.17-0.04-27.46-12.33-27.49-27.49v-31.46c0.04-15.17,12.33-27.46,27.49-27.49
		L389.34,348.16z M321.36,256.47h-93.26c-33.99-25.75-40.67-74.18-14.92-108.16s74.18-40.67,108.16-14.92s40.67,74.18,14.92,108.16
		c-4.27,5.63-9.29,10.65-14.92,14.92H321.36z M267.75,143.61v9.07c-10.76,3.11-18.16,12.95-18.17,24.15
		c0,17.42,11.72,21.44,23.29,25.39c6.57,2.24,13.03,4.47,13.03,10.93c0.01,6.19-5,11.21-11.19,11.21c-6.19,0.01-11.21-5-11.21-11.19
		c0-0.01,0-0.01,0-0.02c0-3.84-3.12-6.96-6.96-6.96c-3.84,0-6.96,3.12-6.96,6.96c0.01,11.19,7.42,21.03,18.17,24.14v9.07
		c0,3.84,3.12,6.96,6.96,6.96c3.84,0,6.96-3.12,6.96-6.96l0,0v-9.07c10.76-3.11,18.16-12.95,18.17-24.15
		c0-16.39-11.17-20.22-22.57-24.09c-6.86-2.34-13.82-4.73-13.82-12.23c-0.01-6.19,5-11.21,11.19-11.21
		c6.19-0.01,11.21,5,11.21,11.19c0,0.01,0,0.01,0,0.02c0,3.84,3.12,6.96,6.96,6.96c3.84,0,6.96-3.12,6.96-6.96
		c0.05-11.2-7.32-21.09-18.07-24.24v-9.07c0-3.84-3.12-6.96-6.96-6.96c-3.84,0-6.96,3.12-6.96,6.96L267.75,143.61z"/>
</g>
</svg>
