<?xml version="1.0" encoding="utf-8"?>
<!-- Generator: Adobe Illustrator 27.1.1, SVG Export Plug-In . SVG Version: 6.00 Build 0)  -->
<svg version="1.1" id="Layer_1" xmlns="http://www.w3.org/2000/svg" xmlns:xlink="http://www.w3.org/1999/xlink" x="0px" y="0px"
	 viewBox="0 0 595.28 565.89" style="enable-background:new 0 0 595.28 565.89;" xml:space="preserve">
<style type="text/css">
	.st0{fill:#1D574E;}
</style>
<g id="svgexport-17_9_" transform="translate(-3 -5)">
	<path id="Path_83780" class="st0" d="M164.41,88.56h341.43v17.02H164.41V88.56z M207.08,284.86c0-14.1-11.43-25.53-25.53-25.53
		c-14.1,0-25.53,11.43-25.53,25.53s11.43,25.53,25.53,25.53c14.1,0.02,25.54-11.4,25.56-25.5c0-0.01,0-0.02,0-0.03H207.08z
		 M181.55,293.37c-4.7,0-8.51-3.81-8.51-8.51c0-4.7,3.81-8.51,8.51-8.51s8.51,3.81,8.51,8.51c0.02,4.7-3.78,8.53-8.47,8.54
		c-0.05,0-0.1,0-0.15,0L181.55,293.37z M463.21,370.18h-17.02v42.67h-42.77v17.02h42.67v42.67h17.02v-42.58h42.67v-17.02h-42.62
		L463.21,370.18z"/>
	<path id="Path_83781" class="st0" d="M505.84,54.42H130.28c-4.7,0-8.51,3.81-8.51,8.51v59.74H96.25c-4.7,0-8.51,3.81-8.51,8.51
		v93.95H79c-14.1,0-25.53,11.43-25.53,25.53v68.28c0,14.1,11.43,25.53,25.53,25.53h8.51v93.88c0,4.7,3.81,8.51,8.51,8.51h268.23
		c14.13,49.87,66.02,78.83,115.88,64.7c40.36-11.44,68.23-48.28,68.25-90.23c-0.02-3.57-0.23-7.13-0.65-10.67
		c0.38-2.11,0.59-4.25,0.65-6.4V97.08C548.36,73.58,529.35,54.51,505.84,54.42z M70.49,319v-68.28c0-4.7,3.81-8.51,8.51-8.51h119.5
		c14.1,0,25.53,11.43,25.53,25.53v34.14c0,14.1-11.43,25.53-25.53,25.53H79C74.34,327.41,70.55,323.66,70.49,319z M454.63,498.24
		c-42.42,0-76.81-34.39-76.81-76.81c0-42.42,34.39-76.81,76.81-76.81c42.42,0,76.81,34.39,76.81,76.81S497.05,498.24,454.63,498.24
		C454.63,498.24,454.63,498.24,454.63,498.24z M454.63,327.53c-51.82,0.07-93.81,42.06-93.88,93.88c0,2.89,0.19,5.72,0.44,8.51
		h-256.5V344.6h93.88c23.55-0.03,42.64-19.11,42.67-42.67v-34.14c-0.03-23.55-19.11-42.64-42.67-42.67h-93.88v-85.35h401.15
		c9.21,0.01,18.17-2.98,25.53-8.51v236.32C513.85,342.52,485.21,327.57,454.63,327.53z M505.84,122.7H138.83V71.44h367.01
		c14.14,0,25.61,11.46,25.61,25.61c0,14.14-11.46,25.61-25.61,25.61V122.7z"/>
</g>
</svg>
