<?xml version="1.0" encoding="utf-8"?>
<!-- Generator: Adobe Illustrator 27.1.1, SVG Export Plug-In . SVG Version: 6.00 Build 0)  -->
<svg version="1.1" id="Layer_1" xmlns="http://www.w3.org/2000/svg" xmlns:xlink="http://www.w3.org/1999/xlink" x="0px" y="0px"
	 viewBox="0 0 595.28 565.89" style="enable-background:new 0 0 595.28 565.89;" xml:space="preserve">
<g id="Group_163033" transform="translate(-221.923 -339.668)">
	<path id="Path_83662" d="M413.31,774.55c6.68-40.22,35.3-73.31,74.14-85.72c-16.98-11.61-26.48-31.4-24.93-51.92
		c0.86-14.85,7.68-28.72,18.91-38.47c23.05-20.67,58.33-19.38,79.82,2.91c22.07,23.43,20.97,60.33-2.47,82.4
		c-2.05,1.93-4.24,3.71-6.55,5.33c38.96,12.27,67.58,45.57,73.85,85.93c2.9-2.59,5.49-4.72,7.87-7.04
		c39.4-37.4,57.73-91.88,48.98-145.49c-0.76-5.58,1.29-9.21,5.72-9.93s7.55,2.04,8.4,7.78c15.5,96.52-49.27,187.63-145.53,204.71
		c-6.39,1.2-10.9-2.24-10.16-7.68c0.58-4.28,3.63-5.83,7.48-6.5c19.06-3.18,37.37-9.87,54-19.74c11.94-7.17,11.04-3.42,8.19-17.97
		c-10.29-50.44-59.52-82.98-109.95-72.69c-38.59,7.87-68.07,39.16-73.64,78.15c-1.13,3.9,0.72,8.04,4.38,9.79
		c18.03,11,37.9,18.62,58.66,22.5c2.1,0.39,4.91,1.21,5.79,2.75c1.31,2.36,1.7,5.12,1.09,7.75c-1.22,3.34-4.92,5.06-8.27,3.84
		c-0.1-0.04-0.21-0.08-0.31-0.12c-10.67-2.2-21.2-5.07-31.51-8.57c-59.58-21.27-103.12-72.93-113.99-135.24
		c-3.92-19.73-4.26-40-1.02-59.86c0.14-0.88,0.33-1.76,0.53-2.64c0.45-3.93,4-6.75,7.93-6.3c0.13,0.01,0.25,0.03,0.38,0.05
		c3.99,0.9,6.55,4.79,5.79,8.8c-1.32,11.1-1.99,22.27-2.01,33.45c1.29,44.9,21.14,87.25,54.82,116.97
		C410.77,772.66,411.97,773.53,413.31,774.55z M562.87,641.12c-0.01-23.79-19.31-43.07-43.1-43.06
		c-23.79,0.01-43.07,19.31-43.06,43.1s19.31,43.07,43.1,43.06l0,0C543.57,684.15,562.82,664.89,562.87,641.12L562.87,641.12z"/>
	<path id="Path_83663" d="M468.41,553.46c2.2-12.92,4.38-26.64,7.04-40.3c0.86-3.17-0.24-6.54-2.8-8.59
		c-9.47-8.93-18.7-18.12-28.05-27.17c-2.61-2.52-4.7-5.16-3.31-9.03c1.39-3.87,4.51-4.63,8.17-5.14c13.33-1.76,26.6-3.96,39.93-5.76
		c2.38-0.17,4.45-1.72,5.28-3.96c5.58-11.57,11.37-23.05,16.99-34.59c1.76-3.52,3.35-7.17,8.12-7.22c4.77-0.05,6.5,3.38,8.26,7.04
		c5.67,11.69,11.5,23.31,17.17,35c0.78,2.08,2.71,3.52,4.93,3.66c13.63,1.76,27.2,3.98,40.83,5.9c3.38,0,6.39,2.11,7.55,5.28
		c0.87,3.12-0.29,6.46-2.92,8.36c-9.77,9.47-19.37,19.05-29.33,28.42c-1.96,1.62-2.82,4.22-2.2,6.69
		c2.36,12.94,4.58,25.9,6.81,38.85c0.62,3.52,1.2,7.24-2.32,9.84s-7.04,1.06-10.42-0.76c-10.95-5.83-22.02-11.41-32.85-17.46
		c-3.2-2.14-7.37-2.14-10.56,0c-11.46,6.43-23.17,12.32-34.86,18.45c-3.18,2.43-7.73,1.83-10.17-1.36
		C468.35,557.87,467.88,555.6,468.41,553.46z M484.98,541.96c10.39-5.46,19.95-10.32,29.33-15.49c3.35-2.1,7.6-2.1,10.95,0
		c7.71,4.26,15.56,8.26,23.38,12.32c1.76,0.92,3.52,1.76,5.95,3.03c-1.97-11.64-3.63-22.25-5.65-32.8
		c-0.92-3.69,0.34-7.59,3.26-10.04c6-5.63,11.81-11.46,17.75-17.17c1.87-1.76,3.91-3.43,5.86-5.14c-9.54-2.43-19.25-4.16-29.05-5.18
		c-6.09,0.03-11.54-3.76-13.64-9.47c-3.75-9.01-8.54-17.61-13.2-27.06c-1.14,2.09-1.95,3.52-2.66,4.88
		c-4.17,8.43-8.4,16.85-12.46,25.33c-1.23,3.12-4.13,5.28-7.48,5.55c-5.77,0.69-11.53,1.65-17.31,2.52l-14.63,2.24
		c7.34,7.83,14.61,15.84,22.09,23.49c2.82,2.51,4.05,6.37,3.2,10.05c-2.04,10.63-3.7,21.2-5.69,32.92L484.98,541.96z"/>
	<path id="Path_83664" d="M347.96,583.79c1.76-9.96,3.43-20.58,5.44-31.14c0.76-2.74-0.15-5.67-2.34-7.48
		c-7.31-6.85-14.35-13.98-21.57-20.93c-2.8-1.91-4.1-5.38-3.26-8.66c1.23-3.86,4.45-4.89,8.03-5.39
		c10.21-1.44,20.42-2.82,30.58-4.54c1.89-0.44,3.51-1.63,4.51-3.29c4.77-9.12,9.31-18.38,13.75-27.68c1.24-4.09,5.57-6.4,9.66-5.16
		c2.47,0.75,4.41,2.69,5.16,5.16c4.44,9.3,8.96,18.56,13.73,27.68c0.99,1.65,2.61,2.83,4.49,3.27c10,1.76,20.07,3.12,30.12,4.54
		c3.7,0.53,7.17,1.34,8.5,5.42c1.34,4.08-0.93,6.5-3.52,9c-7.04,6.87-14.08,13.86-21.25,20.62c-2.21,1.79-3.16,4.72-2.41,7.46
		c1.92,9.96,3.52,20.02,5.28,29.93c0.98,3.09-0.09,6.46-2.68,8.42c-2.68,1.79-6.18,1.74-8.8-0.14c-9.23-4.91-18.54-9.67-27.71-14.67
		c-1.86-1.21-4.26-1.21-6.13,0c-9.46,5.12-18.98,10.11-28.56,14.98c-3.32,2.19-7.78,1.29-9.98-2.03
		C347.97,587.58,347.59,585.65,347.96,583.79z M364.56,572.09c7.04-3.64,13.2-6.57,19.05-10.09c4.13-2.89,9.62-2.89,13.75,0
		c5.92,3.52,12.24,6.48,19.03,10.02c-1.32-7.92-2.18-15.04-3.75-21.99c-1.18-4.24,0.26-8.79,3.68-11.57
		c5.28-5,10.05-10.46,15.12-15.84c-5.68-1.14-11.43-1.97-17.2-2.48c-7.06,0.36-13.45-4.16-15.48-10.93
		c-2.08-5.6-5.28-10.83-8.22-16.97c-3.13,5.66-5.97,11.48-8.5,17.43c-1.99,6.46-8.11,10.75-14.86,10.42
		c-5.93,0.32-11.81,1.76-17.48,2.55c5.53,5.81,10.7,11.41,16.07,16.8c2.6,2.34,3.7,5.91,2.89,9.31
		C367.16,556.21,365.95,563.71,364.56,572.09L364.56,572.09z"/>
	<path id="Path_83665" d="M606.53,583.71c1.76-9.93,3.42-20.55,5.44-31.11c0.74-2.75-0.2-5.67-2.41-7.46
		c-7.18-6.76-14.08-13.77-21.25-20.62c-2.59-2.5-4.79-5.09-3.52-8.98c1.27-3.89,4.82-4.88,8.52-5.4
		c10.05-1.41,20.12-2.78,30.12-4.49c1.89-0.46,3.51-1.67,4.49-3.35c4.77-9.12,9.31-18.38,13.73-27.68c1.24-4.09,5.57-6.4,9.66-5.16
		c2.47,0.75,4.41,2.69,5.16,5.16c4.44,9.3,8.98,18.56,13.75,27.68c1.01,1.65,2.64,2.82,4.52,3.24c10.02,1.76,20.07,3.1,30.12,4.52
		c3.71,0.53,7.17,1.41,8.47,5.48c1.3,4.07-1,6.5-3.52,8.98c-7.2,7.04-14.26,14.08-21.57,20.93c-1.95,1.64-2.76,4.27-2.09,6.73
		c1.76,10.14,3.52,20.32,5.28,30.46c0.97,3.09-0.13,6.46-2.75,8.38c-2.7,1.76-6.19,1.67-8.8-0.21c-8.96-4.79-18.03-9.37-26.88-14.3
		c-2.37-1.53-5.43-1.49-7.76,0.09c-9.17,5.02-18.42,9.89-27.75,14.61c-3.34,2.16-7.8,1.21-9.96-2.13
		C606.51,587.49,606.14,585.56,606.53,583.71z M649.08,492.28c-3.8,7.66-7.27,14.38-10.56,21.21c-1.3,3.25-4.33,5.49-7.82,5.77
		c-7.61,0.97-15.16,2.25-22.5,3.36c5.4,5.7,10.56,11.32,15.84,16.69c2.71,2.43,3.85,6.17,2.96,9.7c-1.46,7.39-2.57,14.88-3.96,23.06
		c7.18-3.77,13.73-7.04,20.05-10.56c3.57-2.33,8.19-2.33,11.76,0c6.32,3.52,12.85,6.83,20,10.56c-1.36-8.12-2.38-15.48-3.91-22.73
		c-0.96-3.83,0.34-7.87,3.36-10.4c5.28-5.19,10.26-10.72,15.53-16.25c-7.32-1.11-14.79-2.39-22.29-3.31
		c-3.64-0.26-6.81-2.58-8.17-5.97c-3.08-6.74-6.5-13.45-10.32-21.14H649.08z"/>
	<path id="Path_83666" d="M526.92,820.55c0.06,3.95-3.1,7.19-7.04,7.25c-3.95,0.06-7.19-3.1-7.25-7.04
		c-0.06-3.94,3.08-7.18,7.02-7.25C523.58,813.49,526.81,816.62,526.92,820.55z"/>
</g>
</svg>
