<?xml version="1.0" encoding="utf-8"?>
<!-- Generator: Adobe Illustrator 27.1.1, SVG Export Plug-In . SVG Version: 6.00 Build 0)  -->
<svg version="1.1" id="Layer_1" xmlns="http://www.w3.org/2000/svg" xmlns:xlink="http://www.w3.org/1999/xlink" x="0px" y="0px"
	 viewBox="0 0 595.28 565.89" style="enable-background:new 0 0 595.28 565.89;" xml:space="preserve">
<path id="Path_83636" d="M362.15,415.65h14.26v57.09h-14.26V415.65z M390.7,415.65h14.26v57.09H390.7V415.65z"/>
<path id="Path_83637" d="M462.03,308.56V158.81h-14.26V86.17l-14.26,2.42V73.17h-14.26v17.75l-14.26,2.42V58.91h-14.26v36.78
	l-14.26,2.42V73.17H362.2v27.26l-14.26,2.42v55.95h-14.26v71.35h-57.16v-99.9H248V87.46h-14.28V58.91h-71.35v28.55H148.1v42.81
	h-28.55v133.31c-15.07,7.18-25.56,21.4-27.96,37.92H76.75v199.77h442.37V300.3L462.03,308.56z M362.13,114.86l71.35-11.89v55.69
	h-71.33L362.13,114.86z M347.87,172.97h99.9v137.74l-42.81,6.13v37.12l-21.4-28.72l-21.4,28.55V230.16h-14.24L347.87,172.97z
	 M347.87,258.58H248v-14.16h99.92L347.87,258.58z M347.87,401.29h71.35v85.61h-71.3L347.87,401.29z M355.01,387.03l28.55-38.06
	l28.55,38.06H355.01z M176.64,73.17h42.81v14.26h-42.81V73.17z M162.36,101.72h71.35v28.55h-71.35V101.72z M133.84,144.52h128.32
	v85.64h-28.45v33.41c-6.68-3.19-14-4.85-21.4-4.84h-71.35c-2.39,0.02-4.78,0.22-7.14,0.58L133.84,144.52z M140.98,272.85h71.35
	c16.95,0.02,31.55,11.94,34.96,28.55H106.02c3.46-16.54,18.04-28.4,34.94-28.42L140.98,272.85z M262.28,315.65v14.43H91.01v-14.26
	L262.28,315.65z M233.73,443.97h-28.67v-28.33h28.64L233.73,443.97z M190.93,443.97h-28.57v-28.33h28.55L190.93,443.97z
	 M190.93,458.23v28.55h-28.57V458.4L190.93,458.23z M205.19,458.23h28.52v28.55h-28.64L205.19,458.23z M233.73,401.14h-28.67v-28.3
	h28.64L233.73,401.14z M190.93,401.14h-28.57v-28.3h28.55L190.93,401.14z M148.12,401.14h-28.57v-28.3h28.55L148.12,401.14z
	 M119.58,415.4h28.52v28.55h-28.55L119.58,415.4z M119.58,458.21h28.52v28.55h-28.55L119.58,458.21z M247.9,486.76V358.43H105.29
	v128.32H91.01V344.32h171.25v142.7L247.9,486.76z M261.6,301.25c-1.5-10.47-6.3-20.19-13.7-27.75v-0.53h100.02v99.9l-14.26,19.03
	v95.13h-57.14V301.49L261.6,301.25z M504.76,486.76h-71.28v-94.89l-14.26-19.03v-43.75l85.61-12.23L504.76,486.76z"/>
<path id="Path_83638" d="M290.8,287.13h14.26v14.26H290.8V287.13z M290.8,458.38h14.26v14.26H290.8V458.38z M290.8,315.68h14.26
	v14.26H290.8V315.68z M290.8,429.83h14.26v14.26H290.8V429.83z M290.8,372.74h14.26V387H290.8V372.74z M290.8,344.2h14.26v14.26
	H290.8V344.2z M290.8,401.29h14.26v14.26H290.8V401.29z M319.35,344.2h14.26v14.26h-14.26V344.2z M319.35,315.65h14.26v14.26h-14.26
	V315.65z M319.35,287.11h14.26v14.26h-14.26V287.11z M476.31,458.36h14.26v14.26h-14.26V458.36z M476.31,401.26h14.26v14.26h-14.26
	V401.26z M476.31,429.81h14.26v14.26h-14.26V429.81z M476.31,372.72h14.26v14.26h-14.26V372.72z M476.31,344.17h14.26v14.26h-14.26
	V344.17z M447.77,429.98h14.26v14.26h-14.26V429.98z M447.77,344.37h14.26v14.26h-14.26V344.37z M447.77,401.46h14.26v14.26h-14.26
	V401.46z M447.77,458.55h14.26v14.26h-14.26V458.55z M447.77,372.94h14.26v14.26h-14.26V372.94z M233.71,158.81h14.26v14.26h-14.26
	V158.81z M205.16,158.81h14.26v14.26h-14.26V158.81z M148.1,158.81h14.26v14.26H148.1V158.81z M176.64,158.81h14.26v14.26h-14.26
	V158.81z M176.64,187.35h14.26v14.26h-14.26V187.35z M233.73,187.35H248v14.26h-14.26V187.35z M148.12,187.35h14.26v14.26H148.1
	L148.12,187.35z M205.21,187.35h14.26v14.26h-14.26V187.35z M148.1,215.9h14.26v14.26H148.1V215.9z M176.64,215.9h14.26v14.26
	h-14.26V215.9z M205.19,215.9h14.26v14.26h-14.26V215.9z M419.27,187.35h14.26v14.26h-14.26V187.35z M390.72,187.35h14.26v14.26
	h-14.26V187.35z M362.18,187.35h14.26v14.26h-14.26V187.35z M419.27,215.9h14.26v14.26h-14.26V215.9z M362.18,215.9h14.26v14.26
	h-14.26V215.9z M390.72,215.9h14.26v14.26h-14.26V215.9z M390.72,301.51h14.26v14.26h-14.26V301.51z M390.72,272.97h14.26v14.16
	h-14.26V272.97z M390.72,244.42h14.26v14.26h-14.26V244.42z M419.27,272.97h14.26v14.16h-14.26V272.97z M419.27,244.42h14.26v14.26
	h-14.26V244.42z"/>
</svg>
