<?xml version="1.0" encoding="utf-8"?>
<!-- Generator: Adobe Illustrator 27.1.1, SVG Export Plug-In . SVG Version: 6.00 Build 0)  -->
<svg version="1.1" id="Layer_1" xmlns="http://www.w3.org/2000/svg" xmlns:xlink="http://www.w3.org/1999/xlink" x="0px" y="0px"
	 viewBox="0 0 595.28 565.89" style="enable-background:new 0 0 595.28 565.89;" xml:space="preserve">
<g id="svgexport-17_-_2024-05-15T181857.424" transform="translate(-39.02 -1)">
	<path id="Path_83633" d="M506.87,419.16l-52.91-91.6c2.13-3.34,5.33-5.84,9.09-7.1c24.4-9.94,36.12-37.78,26.18-62.18
		c-1.01-2.48-2.23-4.88-3.65-7.16c-4.29-5.95-4.29-13.97,0-19.92c7.74-11.81,9.55-26.55,4.89-39.89
		c-4.07-13.5-14.18-24.35-27.36-29.37c-6.97-2.29-11.69-8.78-11.71-16.12c-0.71-14.11-7.95-27.09-19.58-35.11
		c-11.23-8.56-25.8-11.42-39.43-7.73c-6.98,2.24-14.62-0.24-18.96-6.15c-8.84-11.04-22.32-17.33-36.46-17.02l0,0
		c-14.12-0.33-27.58,5.92-36.45,16.92c-4.34,5.91-11.97,8.39-18.96,6.15c-13.63-3.69-28.2-0.83-39.43,7.73
		c-11.63,8.02-18.86,21-19.58,35.11c-0.03,7.33-4.75,13.83-11.71,16.12c-13.18,5.01-23.29,15.86-27.36,29.37
		c-4.66,13.33-2.85,28.08,4.89,39.89c4.29,5.95,4.29,13.97,0,19.92c-13.88,22.39-6.98,51.8,15.41,65.68
		c2.27,1.41,4.65,2.62,7.12,3.63c3.75,1.25,6.96,3.76,9.09,7.1l-52.92,91.73c-2.84,4.92-1.15,11.2,3.76,14.04
		c2.1,1.21,4.57,1.64,6.95,1.21l53.09-9.51l18.3,50.72c1.34,3.78,4.77,6.42,8.76,6.75h0.95c3.67,0.01,7.06-1.95,8.87-5.14
		l46.38-80.31c14.34,7.36,31.34,7.36,45.68,0l46.38,80.31c1.82,3.19,5.21,5.15,8.87,5.14h0.95c4-0.33,7.43-2.97,8.76-6.75
		l18.3-50.72l53.09,9.51c5.59,1,10.93-2.71,11.93-8.3c0.43-2.39,0-4.85-1.21-6.95H506.87z M259.35,466.47l-18.39-50.98
		c-1.04-2.9-4.03-4.63-7.06-4.08l-53.35,9.56l43.41-75.18c2.95,10.4,9.37,19.49,18.19,25.74c11.23,8.56,25.8,11.42,39.43,7.73
		c6.98-2.24,14.62,0.24,18.96,6.15c1.04,1.36,2.17,2.65,3.38,3.87L259.35,466.47z M336.97,389.79
		c-10.16,0.33-19.91-4.07-26.38-11.91c-5.61-7.52-14.44-11.95-23.82-11.96c-3.01,0-6.01,0.46-8.89,1.34
		c-18.95,4.24-37.75-7.68-41.99-26.63c-0.32-1.44-0.55-2.9-0.69-4.37c-0.19-12.59-8.29-23.7-20.21-27.73
		c-17.82-7.69-26.02-28.38-18.33-46.19c0.59-1.36,1.26-2.68,2.01-3.96c7.29-10.3,7.29-24.07,0-34.37
		c-5.46-8.57-6.63-19.19-3.18-28.75c2.83-9.76,10.02-17.66,19.48-21.39c11.93-4.04,20.02-15.14,20.21-27.73
		c0.63-10.14,5.92-19.42,14.34-25.12c8.03-6.24,18.49-8.41,28.34-5.87c12.03,3.71,25.09-0.54,32.63-10.62
		c12.85-14.56,35.08-15.95,49.65-3.1c1.1,0.97,2.13,2,3.1,3.1c7.54,10.08,20.6,14.33,32.63,10.62c9.85-2.54,20.31-0.37,28.34,5.87
		c8.42,5.7,13.71,14.98,14.34,25.12c0.27,12.62,8.47,23.69,20.46,27.64c9.46,3.73,16.65,11.64,19.48,21.4
		c3.45,9.56,2.28,20.17-3.18,28.75c-7.29,10.3-7.29,24.07,0,34.37c9.88,16.7,4.35,38.26-12.36,48.14c-1.28,0.75-2.6,1.43-3.96,2.01
		c-11.93,4.04-20.02,15.14-20.21,27.73c-1.83,19.33-18.98,33.52-38.31,31.69c-1.47-0.14-2.93-0.37-4.37-0.69
		c-12.03-3.71-25.09,0.54-32.63,10.62C356.99,385.71,347.19,390.14,336.97,389.79z M440.05,411.47c-3.03-0.55-6.02,1.18-7.06,4.08
		l-18.39,50.92l-44.55-77.15c1.21-1.21,2.33-2.5,3.36-3.87c4.34-5.91,11.97-8.39,18.96-6.15c13.63,3.69,28.2,0.83,39.43-7.73
		c8.82-6.26,15.24-15.34,18.19-25.74L493.39,421L440.05,411.47z M442.28,241.14c0.03-58.16-47.1-105.33-105.26-105.36
		c-58.16-0.03-105.33,47.1-105.36,105.26c-0.03,58.16,47.1,105.33,105.26,105.36c0.02,0,0.03,0,0.05,0
		c58.12-0.05,105.24-47.15,105.31-105.27L442.28,241.14z M336.97,333.77c-51.17-0.01-92.64-41.5-92.63-92.66
		c0.01-51.17,41.5-92.64,92.66-92.63c51.16,0.01,92.63,41.49,92.63,92.65C429.57,292.27,388.12,333.72,336.97,333.77z
		 M403.22,217.76c-0.79-2.42-2.95-4.13-5.48-4.34l-39.56-3.26l-15.38-36.59c-1.35-3.22-5.04-4.73-8.26-3.39
		c-1.53,0.64-2.75,1.86-3.39,3.39l-15.38,36.53l-39.56,3.26c-3.48,0.28-6.06,3.33-5.78,6.81c0.14,1.65,0.92,3.19,2.17,4.27
		l30.07,25.94l-9.07,38.65c-0.79,3.4,1.32,6.79,4.72,7.58c1.6,0.37,3.29,0.11,4.7-0.74l33.97-20.57l33.93,20.62
		c2.98,1.8,6.87,0.84,8.67-2.14c0.85-1.41,1.12-3.09,0.74-4.7l-9.07-38.65l30.07-25.94c1.93-1.66,2.67-4.32,1.88-6.74L403.22,217.76
		z M360.14,243.37c-1.78,1.53-2.56,3.93-2.02,6.22l6.53,27.73l-24.39-14.78c-2.01-1.21-4.52-1.21-6.53,0l-24.39,14.76l6.53-27.73
		c0.53-2.29-0.25-4.68-2.02-6.22l-21.62-18.63l28.4-2.38c2.35-0.19,4.39-1.68,5.3-3.85l11.04-26.27l11.09,26.27
		c0.91,2.17,2.95,3.66,5.3,3.85l28.4,2.38L360.14,243.37z"/>
</g>
</svg>
