<?xml version="1.0" encoding="utf-8"?>
<!-- Generator: Adobe Illustrator 27.1.1, SVG Export Plug-In . SVG Version: 6.00 Build 0)  -->
<svg version="1.1" id="Layer_1" xmlns="http://www.w3.org/2000/svg" xmlns:xlink="http://www.w3.org/1999/xlink" x="0px" y="0px"
	 viewBox="0 0 595.28 565.89" style="enable-background:new 0 0 595.28 565.89;" xml:space="preserve">
<g id="svgexport-17_-_2024-05-15T182352.439" transform="translate(-2 -5.458)">
	<path id="Path_83634" d="M478.79,97.29H121.07c-17.76,0-32.15,14.4-32.15,32.15v212.4c0,17.76,14.4,32.15,32.15,32.15c0,0,0,0,0,0
		h216.56c8.05,13.47,19.95,24.23,34.16,30.87v62.3c0,3.64,2.95,6.59,6.59,6.6c1.72,0,3.37-0.67,4.61-1.87l21.72-21.1l21.78,21.1
		c2.62,2.53,6.79,2.46,9.32-0.16c1.19-1.23,1.85-2.87,1.85-4.59v-62.3c14.22-6.64,26.12-17.39,34.16-30.87h6.95
		c17.76,0,32.15-14.4,32.15-32.15l0,0V129.44C510.95,111.68,496.55,97.29,478.79,97.29L478.79,97.29z M450.92,271.33l-0.38-0.26
		c-32.7-23.85-78.21-18.66-104.7,11.94H198.42c-3.64,0-6.59,2.95-6.59,6.59s2.95,6.59,6.59,6.59h138.13
		c-3.65,6.51-6.36,13.51-8.04,20.78c0,0.24-0.14,0.48-0.18,0.72H178.69c-2.78-15.12-14.63-26.95-29.76-29.7v-104.7
		c15.12-2.75,26.97-14.57,29.76-29.68h242.49c2.79,15.12,14.64,26.93,29.76,29.68L450.92,271.33z M424.43,409.63v41.84l-15.19-14.73
		c-2.55-2.49-6.63-2.49-9.18,0l-15.13,14.69v-41.8C397.89,412.91,411.47,412.91,424.43,409.63z M403.31,398.9
		c-35.81-0.71-64.26-30.31-63.55-66.12c0.71-35.81,30.31-64.26,66.12-63.55c34.24,0.68,62.05,27.86,63.51,62.07
		c1.49,35.87-26.38,66.17-62.25,67.66c-1.27,0.05-2.55,0.07-3.82,0.05V398.9z M497.77,341.75c-0.01,10.46-8.49,18.94-18.95,18.95
		h-0.74c9.45-26.33,4.14-55.71-13.93-77.07V177.11c0-3.64-2.95-6.59-6.59-6.59c-13.04,0.02-23.65-10.48-23.77-23.51
		c0-3.64-2.95-6.59-6.59-6.59H172.68c-3.64,0-6.59,2.95-6.59,6.59l0,0c-0.03,13.09-10.66,23.69-23.75,23.67
		c-3.64,0-6.59,2.95-6.59,6.59l0,0V294c0,3.64,2.95,6.59,6.59,6.59l0,0c13.09-0.01,23.72,10.58,23.75,23.67
		c0,3.64,2.95,6.59,6.59,6.59h154.06c0,0.68,0,1.37,0,2.01c0,0.64,0,0.84,0,1.29c0.03,8.43,1.39,16.81,4.02,24.82
		c0.2,0.6,0.34,1.21,0.56,1.81H121.07c-10.46-0.01-18.94-8.49-18.95-18.95V129.44c0-10.47,8.48-18.96,18.95-18.97h357.72
		c10.46,0.01,18.94,8.49,18.95,18.95L497.77,341.75z"/>
	<path id="Path_83635" d="M241.37,188.25h117.1c3.64,0,6.59-2.95,6.59-6.59c0-3.64-2.95-6.59-6.59-6.59h-117.1
		c-3.64,0-6.59,2.95-6.59,6.59C234.78,185.29,237.73,188.25,241.37,188.25z M401.42,211.04H198.44c-3.64,0-6.59,2.95-6.59,6.59
		c0,3.64,2.95,6.59,6.59,6.59h202.98c3.64,0,6.59-2.95,6.59-6.59C408.01,213.99,405.06,211.04,401.42,211.04L401.42,211.04z
		 M358.47,247.03h-117.1c-3.64,0-6.59,2.95-6.59,6.59c0,3.64,2.95,6.59,6.59,6.59h117.1c3.64,0,6.59-2.95,6.59-6.59
		C365.07,249.98,362.11,247.03,358.47,247.03z M404.7,287.34c-25.87,0-46.85,20.97-46.85,46.85s20.97,46.85,46.85,46.85
		c25.87,0,46.85-20.97,46.85-46.85c0,0,0,0,0,0C451.49,308.34,430.55,287.4,404.7,287.34z M404.7,367.83
		c-18.57-0.01-33.61-15.07-33.6-33.64c0.01-18.57,15.07-33.61,33.64-33.6c18.57,0.01,33.61,15.07,33.6,33.64
		c-0.01,8.91-3.55,17.45-9.85,23.75C422.18,364.29,413.62,367.84,404.7,367.83z"/>
</g>
</svg>
