<?xml version="1.0" encoding="utf-8"?>
<!-- Generator: Adobe Illustrator 27.1.1, SVG Export Plug-In . SVG Version: 6.00 Build 0)  -->
<svg version="1.1" id="Layer_1" xmlns="http://www.w3.org/2000/svg" xmlns:xlink="http://www.w3.org/1999/xlink" x="0px" y="0px"
	 viewBox="0 0 595.28 565.89" style="enable-background:new 0 0 595.28 565.89;" xml:space="preserve">
<style type="text/css">
	.st0{fill-rule:evenodd;clip-rule:evenodd;}
</style>
<g id="svgexport-17_-_2024-05-15T172733.617" transform="translate(-1.7 -32.7)">
	<path id="Path_83632" class="st0" d="M438.85,161.69H160.41c-18.07,0-32.74,14.61-32.81,32.68v236.76
		c0.02,18.08,14.67,32.73,32.75,32.75h278.58c18.08-0.02,32.73-14.67,32.75-32.75V194.37C471.61,176.29,456.93,161.68,438.85,161.69
		z M160.41,172.52h278.58c12.07,0.02,21.86,9.78,21.92,21.85v5.12H138.5v-5.12c0.01-12.08,9.81-21.86,21.88-21.85
		C160.39,172.52,160.4,172.52,160.41,172.52z M309.28,298.93c4.27,1.36,6.63,5.93,5.26,10.2c-0.87,2.72-3.1,4.78-5.88,5.43
		c0.41-5.23,0.34-10.57,0.61-15.72V298.93z M227,293.81c23.08-33.5,47.97,4.87,72-6.49c-0.2,7.38-1.01,14.69-1.01,22.21
		c1.05,19.42-13.84,36.01-33.26,37.05s-36.01-13.84-37.05-33.26c-0.07-1.27-0.07-2.53,0-3.8c0-1.88-1.01-15.34-0.68-15.75
		L227,293.81z M227,278.04c-0.07-17.67,14.19-32.05,31.86-32.13c1.38-0.01,2.76,0.08,4.13,0.25c17.38-2.22,33.27,10.06,35.49,27.44
		c0.04,0.33,0.08,0.65,0.11,0.98c-16.38,16.07-44.26-23.91-71.66,3.42L227,278.04z M347.79,453.03h-79.18v-58.44
		c9.72-1.58,18.28-7.28,23.49-15.63l54.88,15.63c0.44,0.09,0.76,0.49,0.75,0.94L347.79,453.03z M276.13,356
		c0.41,6.48,2.64,12.72,6.42,18c-7.37,10.82-22.12,13.62-32.94,6.24c-2.45-1.67-4.57-3.79-6.24-6.24c3.84-5.36,6.07-11.7,6.42-18.28
		c8.58,2.43,17.65,2.51,26.27,0.22L276.13,356z M233.63,379.03c5.32,8.56,14.17,14.31,24.15,15.7V453h-79.71v-57.45
		c-0.02-0.44,0.26-0.83,0.68-0.94L233.63,379.03z M438.85,453h-80.29v-57.45c0.01-5.27-3.47-9.91-8.54-11.36l-58.8-16.71
		c-3.61-4.69-5.02-10.71-3.86-16.52c9.45-5.71,16.33-14.85,19.22-25.5c10.47-0.18,18.81-8.81,18.64-19.28
		c-0.15-8.97-6.58-16.61-15.39-18.3c0.87-31.47-13.19-52.51-46.96-52.51s-47.83,21.05-46.96,52.44
		c-10.37,1.52-17.55,11.16-16.03,21.53c1.39,9.48,9.63,16.44,19.21,16.22c2.79,10.66,9.74,19.75,19.29,25.25
		c1.3,5.83-0.1,11.94-3.79,16.64c-7.72,2.17-54.27,15.37-58.86,16.71c-5.06,1.43-8.55,6.05-8.54,11.31v57.45h-6.83
		c-12.09-0.03-21.89-9.82-21.92-21.92V210.21h322.42v220.72c0.04,12.15-9.78,22.03-21.93,22.07C438.9,453,438.87,453,438.85,453z
		 M217.04,314.63c-4.39-0.88-7.25-5.15-6.37-9.54c0.6-2.99,2.82-5.39,5.76-6.22c0.29,5.12,0.15,10.54,0.63,15.68L217.04,314.63z
		 M321.99,422.08h-27.74c-2.99-0.01-5.41-2.43-5.4-5.43c0.01-2.98,2.42-5.4,5.4-5.4h27.74c2.97,0.34,5.11,3.02,4.77,5.99
		c-0.28,2.51-2.26,4.49-4.77,4.77V422.08z M432.16,256.77h-78.08c-2.99-0.01-5.41-2.43-5.4-5.43c0.01-2.98,2.42-5.4,5.4-5.4h78.08
		c2.97,0.37,5.07,3.08,4.69,6.05c-0.31,2.45-2.24,4.38-4.69,4.69V256.77z M432.16,302.18h-78.08c-2.99-0.01-5.41-2.43-5.4-5.43
		c0.01-2.98,2.42-5.4,5.4-5.4h78.08c2.97,0.37,5.07,3.08,4.69,6.05c-0.31,2.45-2.24,4.38-4.69,4.69V302.18z M432.16,347.51h-78.08
		c-2.99-0.01-5.41-2.43-5.4-5.43c0.01-2.98,2.42-5.4,5.4-5.4h78.08c2.97,0.37,5.07,3.08,4.69,6.05c-0.31,2.45-2.24,4.38-4.69,4.69
		V347.51z M224.97,180.57h5.69c2.99,0.01,5.41,2.43,5.4,5.43c-0.01,2.98-2.42,5.4-5.4,5.4h-5.69c-2.99-0.01-5.41-2.43-5.4-5.43
		C219.57,182.99,221.98,180.58,224.97,180.57z M200.61,180.57h5.69c2.99,0.01,5.41,2.43,5.4,5.43c-0.01,2.98-2.42,5.4-5.4,5.4h-5.69
		c-2.99-0.01-5.41-2.43-5.4-5.43C195.21,182.99,197.62,180.58,200.61,180.57z M176.25,180.57H182c2.99,0.01,5.41,2.43,5.4,5.43
		c-0.01,2.98-2.42,5.4-5.4,5.4h-5.69c-2.99,0.02-5.43-2.39-5.45-5.38C170.85,183.03,173.26,180.59,176.25,180.57z"/>
</g>
</svg>
