<?xml version="1.0" encoding="utf-8"?>
<!-- Generator: Adobe Illustrator 27.1.1, SVG Export Plug-In . SVG Version: 6.00 Build 0)  -->
<svg version="1.1" id="Layer_1" xmlns="http://www.w3.org/2000/svg" xmlns:xlink="http://www.w3.org/1999/xlink" x="0px" y="0px"
	 viewBox="0 0 595.28 565.89" style="enable-background:new 0 0 595.28 565.89;" xml:space="preserve">
<style type="text/css">
	.st0{stroke:#000000;stroke-width:5.1763;}
</style>
<g id="svgexport-17_-_2024-05-25T144833.834" transform="translate(0.095 0.095)">
	<path id="Path_83685" class="st0" d="M163.66,273.23c-28.2-0.26-50.84-23.32-50.59-51.52s23.32-50.84,51.52-50.59
		c28.01,0.25,50.59,23.03,50.59,51.05C215.02,250.49,191.97,273.32,163.66,273.23z M163.66,185.48
		c-20.28,0.26-36.51,16.9-36.26,37.18c0.26,20.28,16.9,36.51,37.18,36.26c20.1-0.25,36.26-16.62,36.26-36.72
		C200.7,201.81,184.06,185.38,163.66,185.48z M184.4,414.57H94.52c-10.3,0.02-18.67-8.31-18.72-18.61v-23.43
		c0.57-48.61,40.44-87.55,89.05-86.98c18.45,0.22,36.37,6.23,51.22,17.19c3.09,2.47,3.6,6.98,1.13,10.07
		c-2.34,2.93-6.53,3.56-9.63,1.45c-32.75-24.17-78.89-17.21-103.05,15.53c-9.15,12.39-14.18,27.34-14.39,42.74v23.43
		c0.03,2.39,1.99,4.31,4.39,4.28c0,0,0,0,0,0h89.9c3.96,0,7.17,3.21,7.17,7.17c0,3.96-3.21,7.17-7.17,7.17L184.4,414.57z
		 M501.21,409.12h-89.9c-3.96,0-7.17-3.21-7.17-7.17c0-3.96,3.21-7.17,7.17-7.17h89.9c2.39,0.03,4.36-1.88,4.39-4.28c0,0,0,0,0,0
		v-23.43c-0.28-40.36-33.2-72.87-73.56-72.66c-16.93-0.02-33.36,5.74-46.56,16.35c-2.81,2.78-7.35,2.76-10.13-0.05
		c-2.78-2.81-2.76-7.35,0.05-10.13c0.34-0.34,0.72-0.64,1.12-0.9c15.74-12.69,35.34-19.61,55.55-19.62
		c48.26-0.17,87.55,38.78,87.81,87.04v23.43c-0.04,10.29-8.4,18.61-18.69,18.61L501.21,409.12z M432.07,269.72
		c-28.2-0.26-50.84-23.32-50.59-51.52c0.26-28.2,23.32-50.84,51.52-50.59c28.01,0.25,50.59,23.03,50.59,51.05
		C483.43,246.98,460.38,269.82,432.07,269.72z M432.07,181.97c-20.28,0.26-36.51,16.9-36.26,37.18
		c0.26,20.28,16.9,36.51,37.18,36.26c20.1-0.25,36.26-16.62,36.26-36.72c-0.14-20.41-16.78-36.86-37.19-36.75V181.97z"/>
	<path id="Path_83686" class="st0" d="M395.07,437.89H200.63c-12.88,0.03-23.35-10.36-23.43-23.24v-32.96
		c0-66.62,54.01-120.63,120.63-120.63s120.63,54.01,120.63,120.63v32.96C418.4,427.52,407.94,437.91,395.07,437.89z M297.84,276.56
		c-58.33-0.23-105.84,46.78-106.25,105.11v32.96c0.04,4.98,4.12,8.98,9.1,8.94c0,0,0,0,0,0h194.44c4.98,0.05,9.05-3.96,9.1-8.94
		c0,0,0,0,0,0v-32.94C403.83,323.3,356.23,276.26,297.84,276.56z M295.36,253.86c-36.37,0.14-65.99-29.2-66.2-65.57
		c0-36.56,29.64-66.2,66.2-66.2s66.2,29.64,66.2,66.2C361.35,224.66,331.73,254,295.36,253.86z M295.36,137.04
		c-28.39,0-51.48,22.86-51.76,51.24c0,28.65,23.22,51.87,51.87,51.87c28.65,0,51.87-23.22,51.87-51.87
		c-0.28-28.46-23.49-51.35-51.95-51.24L295.36,137.04z"/>
</g>
</svg>
