<?xml version="1.0" encoding="utf-8"?>
<!-- Generator: Adobe Illustrator 27.1.1, SVG Export Plug-In . SVG Version: 6.00 Build 0)  -->
<svg version="1.1" id="Layer_1" xmlns="http://www.w3.org/2000/svg" xmlns:xlink="http://www.w3.org/1999/xlink" x="0px" y="0px"
	 viewBox="0 0 595.28 565.89" style="enable-background:new 0 0 595.28 565.89;" xml:space="preserve">
<path id="Path_83709" d="M287.95,302.95l-14.77-21.45L152.87,106.65h51.76l97.26,141.47l14.77,21.45L443.46,453.7H391.7
	L287.95,302.95z M103.46,80.58l28.01,40.67L255.7,301.89l14.77,21.43l99.82,145l7.75,11.25h114.82l-28.01-40.67L334.23,249.14
	l-14.77-21.47l-93.4-135.76l-7.78-11.34H103.46z"/>
<path id="Path_83710" d="M255.71,301.87l-152.7,177.72h33.14L270.55,323.3l17.51-20.37l-14.77-21.45L255.71,301.87z"/>
<path id="Path_83711" d="M445.92,80.67l-28.29,32.84l-98.14,114.16l-17.51,20.37l14.77,21.45l17.51-20.37L479.05,80.67H445.92z"/>
</svg>
