<?xml version="1.0" encoding="utf-8"?>
<!-- Generator: Adobe Illustrator 27.1.1, SVG Export Plug-In . SVG Version: 6.00 Build 0)  -->
<svg version="1.1" id="Layer_1" xmlns="http://www.w3.org/2000/svg" xmlns:xlink="http://www.w3.org/1999/xlink" x="0px" y="0px"
	 viewBox="0 0 595.28 565.89" style="enable-background:new 0 0 595.28 565.89;" xml:space="preserve">
<path id="Path_83641" d="M504.32,478.83l-60.57-159.56c-0.5-1.33-1.45-2.43-2.68-3.13l-64.53-36.33l18.83-29.82
	c33.76-53.8,17.52-124.78-36.28-158.54S234.3,73.93,200.54,127.73c-23.46,37.38-23.46,84.88,0,122.26l18.83,29.82l-64.51,36.33
	c-1.23,0.7-2.18,1.81-2.68,3.13L91.58,478.83c-1.2,3.12,0.36,6.62,3.48,7.82c1.69,0.65,3.58,0.51,5.15-0.38l97.44-54.95l97.33,54.95
	c1.85,1.04,4.1,1.04,5.94,0l97.37-54.95l97.37,54.86c2.9,1.66,6.59,0.66,8.25-2.24c0.91-1.58,1.05-3.49,0.39-5.19L504.32,478.83z
	 M304.13,387.47c3.85-1.36,7.13-3.99,9.31-7.45l51.88-82.25l26.26,123.52L304,470.61L304.13,387.47z M210.78,243.47
	c-30.28-48.14-15.81-111.71,32.33-141.99s111.71-15.81,141.99,32.33c21.08,33.51,21.08,76.15,0,109.67
	c-0.81,1.28-80.61,127.78-82.02,130.04l0,0c-1.78,2.83-5.51,3.68-8.34,1.91c-0.77-0.48-1.42-1.13-1.91-1.91l-82.04-130l0,0
	L210.78,243.47z M162.72,325.62l56.46-31.82l-9.84,46.28c-0.69,3.27,1.39,6.48,4.66,7.18c3.27,0.69,6.48-1.39,7.18-4.66l0,0
	l9.52-44.72l51.86,82.25c2.18,3.45,5.46,6.07,9.31,7.43v83.06l-87.4-49.26l11.69-55.05c0.69-3.27-1.39-6.48-4.66-7.18
	c-3.27-0.69-6.48,1.39-7.18,4.66l0,0l-12.05,56.71l-83.4,47.02L162.72,325.62z M403.65,420.52l-26.92-126.7l56.46,31.82
	l53.84,141.88L403.65,420.52z"/>
<path id="Path_83642" d="M364.57,188.61c0-36.79-29.83-66.62-66.62-66.62c-36.79,0-66.62,29.83-66.62,66.62
	c0,36.79,29.83,66.62,66.62,66.62C334.73,255.18,364.52,225.39,364.57,188.61z M243.43,188.61c0-30.11,24.41-54.52,54.52-54.52
	c30.11,0,54.52,24.41,54.52,54.52c0,30.11-24.41,54.52-54.52,54.52l0,0C267.86,243.1,243.47,218.71,243.43,188.61L243.43,188.61z"/>
<path id="Path_83643" d="M340.36,188.63c0-23.42-18.98-42.4-42.4-42.4s-42.4,18.98-42.4,42.4c0,23.42,18.98,42.4,42.4,42.4l0,0
	C321.36,231.01,340.33,212.04,340.36,188.63z M267.67,188.63c0-16.73,13.56-30.28,30.28-30.28s30.28,13.56,30.28,30.28
	c0,16.73-13.56,30.28-30.28,30.28l0,0C281.24,218.9,267.69,205.35,267.67,188.63z"/>
</svg>
