<?xml version="1.0" encoding="utf-8"?>
<!-- Generator: Adobe Illustrator 27.1.1, SVG Export Plug-In . SVG Version: 6.00 Build 0)  -->
<svg version="1.1" id="Layer_1" xmlns="http://www.w3.org/2000/svg" xmlns:xlink="http://www.w3.org/1999/xlink" x="0px" y="0px"
	 viewBox="0 0 595.28 565.89" style="enable-background:new 0 0 595.28 565.89;" xml:space="preserve">
<style type="text/css">
	.st0{fill:#A2926E;stroke:#A2926E;stroke-width:10.7854;}
</style>
<g id="svgexport-17_-_2024-05-14T115018.746" transform="translate(0.25 -63.75)">
	<path id="Path_83479" class="st0" d="M506.73,155.7H88.64c-23.08,0.02-41.78,18.73-41.8,41.8v292.65
		c0.02,23.08,18.73,41.78,41.8,41.8h418.09c23.08-0.02,41.78-18.73,41.8-41.8V197.51C548.51,174.43,529.8,155.73,506.73,155.7z
		 M88.66,176.61h418.06c1.47,0.13,2.91,0.43,4.31,0.88c-36.2,33.13-156.22,142.93-198.21,180.76c-7.99,8.38-21.26,8.7-29.64,0.71
		c-0.24-0.23-0.48-0.47-0.71-0.71c-42-37.84-162.02-147.63-198.21-180.74c1.42-0.47,2.89-0.77,4.38-0.91H88.66z M67.74,490.16
		V197.51c0.1-1.97,0.5-3.92,1.16-5.78c27.72,25.37,111.46,102.03,165.75,151.34C180.57,389.58,96.77,468.98,68.84,495.62
		C68.22,493.86,67.85,492.02,67.74,490.16z M506.73,511.06H88.64c-1.6-0.13-3.18-0.45-4.7-0.95
		c28.86-27.5,113.16-107.38,166.33-152.87l18.25,16.52c16.21,15.77,42.03,15.77,58.24,0l18.27-16.52
		c53.17,45.49,137.47,125.35,166.33,152.87C509.86,510.61,508.3,510.93,506.73,511.06z M527.63,490.16c-0.11,1.86-0.48,3.7-1.1,5.46
		c-27.93-26.64-111.69-106.04-165.82-152.53c54.29-49.38,138.05-125.97,165.75-151.34c0.67,1.86,1.06,3.81,1.16,5.78V490.16z"/>
</g>
</svg>
