<?xml version="1.0" encoding="utf-8"?>
<!-- Generator: Adobe Illustrator 27.1.1, SVG Export Plug-In . SVG Version: 6.00 Build 0)  -->
<svg version="1.1" id="Layer_1" xmlns="http://www.w3.org/2000/svg" xmlns:xlink="http://www.w3.org/1999/xlink" x="0px" y="0px"
	 viewBox="0 0 595.28 565.89" style="enable-background:new 0 0 595.28 565.89;" xml:space="preserve">
<style type="text/css">
	.st0{fill:none;}
	.st1{fill-rule:evenodd;clip-rule:evenodd;fill:#F7EC20;}
	.st2{fill:#FFFFFF;}
</style>
<rect x="283.09" y="265.24" class="st0" width="29.69" height="29.69"/>
<g id="Group_163231" transform="translate(0 0)">
	<path id="Path_83701" class="st1" d="M547.51,280.14c-0.04,137.83-111.8,249.54-249.63,249.5S48.34,417.84,48.37,280.01
		c0.04-137.83,111.8-249.54,249.63-249.5c86.75,0.02,167.27,45.09,212.64,119.03c24.39,39.18,37.17,84.48,36.86,130.64"/>
	<path id="Path_83702" d="M192.65,221.81c0-0.92,0-1.7,0-2.31c0-4.44,0-8.9,0.17-13.34c0.24-9.67,1.46-19.29,3.64-28.71
		c2.99-12.39,8.62-24,16.5-34.02c13.75-17.6,32.94-30.16,54.57-35.72c11.64-3.09,23.69-4.38,35.72-3.83
		c12.82,0.37,25.47,2.93,37.42,7.59c19.91,7.61,36.85,21.41,48.32,39.36c6.35,10.03,10.65,21.24,12.62,32.95
		c1.67,9.84,2.49,19.82,2.43,29.8c0,2.65,0,5.29,0,7.82c0.54,0.54,0.99,0.19,1.39,0.1c3.74-0.82,7.56-1.16,11.38-1.02
		c5,0.18,9.9,1.51,14.31,3.9c7.63,4.05,13.08,11.28,14.87,19.73c2.38,9.73-0.04,20-6.51,27.64c-3.2,3.96-6.99,7.4-11.24,10.21
		c-3.4,2.36-7.02,4.63-10.55,6.94l-4.3,2.81c-0.46,0.31-0.92,0.6-1.34,0.94c-2.06,1.2-2.88,3.76-1.91,5.94
		c0.31,0.88,0.68,1.74,1.12,2.57c4.59,9.24,10.79,17.59,18.3,24.66c8.17,7.73,17.42,14.23,27.45,19.31c2.7,1.39,5.41,2.79,8.06,4.27
		c2.33,1.28,4.46,2.87,6.34,4.75c7.34,7.24,8.45,18.71,2.62,27.22c-2.77,4.27-6.48,7.86-10.85,10.48c-3.54,2.13-7.23,4-11.04,5.6
		c-3.95,1.66-7.99,3.08-12.11,4.25c-1.41,0.41-2.82,0.9-4.2,1.43c-1.56,0.61-2.79,1.84-3.4,3.4c-0.41,0.92-0.8,1.85-1.17,2.81
		c-3.1,8.64-10.5,15.01-19.49,16.81c-3.5,0.76-7.07,1.19-10.65,1.31c-3.98,0.2-7.94,0.31-11.91,0.54
		c-6.31,0.38-12.54,1.52-18.57,3.4c-2.6,0.85-5.1,2-7.45,3.4c-3.16,1.85-6.29,3.74-9.42,5.65c-5.44,3.39-11.13,6.38-17.01,8.95
		c-8.18,3.47-16.82,5.76-25.65,6.8c-7.75,0.93-15.57,1.01-23.34,0.24c-11.82-1.16-23.31-4.57-33.85-10.04
		c-4.37-2.25-8.5-4.78-12.77-7.33c-1.8-1.11-3.61-2.16-5.39-3.28c-5.29-3.18-11.12-5.35-17.2-6.41c-6.14-1.1-12.36-1.71-18.59-1.8
		c-4.13-0.06-8.26-0.39-12.35-0.99c-3.09-0.47-6.08-1.4-8.9-2.76c-5.68-2.74-10.15-7.48-12.55-13.32c-0.49-1.14-0.94-2.31-1.38-3.4
		c-0.69-1.95-2.25-3.47-4.22-4.1c-1.26-0.43-2.52-0.83-3.78-1.19c-7.21-2.04-14.17-4.9-20.73-8.5c-4.35-2.31-8.21-5.46-11.33-9.27
		c-2.26-2.7-3.91-5.85-4.83-9.25c-1.91-7-0.07-14.49,4.88-19.8c1.68-1.85,3.63-3.44,5.77-4.73c2.26-1.39,4.58-2.66,6.97-3.81
		c8.56-4.16,16.61-9.3,23.98-15.31c8.7-7.02,16.05-15.57,21.67-25.23c1-1.7,1.87-3.59,2.81-5.38c0.54-1.07,0.88-2.22,1.02-3.4
		c0.19-1.18-0.18-2.38-0.99-3.25c-0.81-0.84-1.73-1.57-2.74-2.18l-14.08-9.24c-3-1.97-5.81-4.22-8.39-6.72
		c-3.93-3.71-6.98-8.25-8.93-13.28c-4.35-11.49-1.57-24.46,7.09-33.17c4.56-4.43,10.4-7.34,16.69-8.3
		c4.94-0.83,9.99-0.68,14.87,0.44l2.16,0.43"/>
	<path id="Path_83703" class="st2" d="M383.84,221.39c0,6.8-0.41,13.71-0.92,20.56c-0.09,1.16-0.12,2.33-0.14,3.5
		c0,2.53,1.43,3.57,3.95,3.4c0.93-0.1,1.84-0.31,2.72-0.63c2.5-0.88,4.97-1.8,7.45-2.74c4.12-1.67,8.34-3.06,12.64-4.17
		c2.87-0.79,5.88-0.91,8.79-0.34c5.74,1.15,9.46,6.74,8.31,12.47c-0.15,0.75-0.38,1.47-0.68,2.17c-0.7,1.66-1.68,3.17-2.91,4.49
		c-1.74,1.91-3.7,3.59-5.85,5.02c-2.52,1.7-5.1,3.4-7.6,5.1c-4.24,2.79-8.5,5.55-12.69,8.37c-1.7,1.17-3.4,2.42-5.1,3.69
		c-0.92,0.72-1.77,1.51-2.55,2.38c-1.55,1.69-2.34,3.94-2.16,6.23c0.15,2.25,0.54,4.48,1.17,6.65c2.06,6.96,5.02,13.61,8.81,19.8
		c6.92,11.32,15.77,21.33,26.14,29.6c8.81,7.09,18.41,13.15,28.59,18.06c0.9,0.44,1.8,0.94,2.67,1.45c0.67,0.4,1.25,0.94,1.7,1.58
		c0.7,0.88,0.78,2.11,0.2,3.08c-0.51,0.88-1.19,1.64-1.99,2.26c-1.17,0.92-2.42,1.72-3.74,2.4c-5.78,3.07-11.91,5.44-18.25,7.08
		c-2.7,0.73-5.39,1.51-8.08,2.3c-1.85,0.59-3.65,1.35-5.36,2.28c-2.77,1.39-4.7,4.02-5.19,7.08c-0.34,1.7-0.54,3.54-0.87,5.31
		c-0.09,3.72-3.08,6.71-6.8,6.8c-1.54,0.26-3.09,0.43-4.64,0.51c-3.9,0.22-7.79,0.32-11.69,0.54c-8.8,0.4-17.52,1.95-25.92,4.61
		c-3.55,1.16-6.97,2.68-10.21,4.54c-3.4,1.97-6.8,4.03-10.21,6.09c-5.34,3.37-10.95,6.26-16.79,8.66
		c-6.55,2.52-13.42,4.11-20.41,4.71c-5.91,0.53-11.85,0.46-17.74-0.2c-8.77-0.99-17.28-3.57-25.12-7.62
		c-3.67-1.89-7.23-4-10.75-6.14c-2.6-1.59-5.2-3.16-7.81-4.71c-6.21-3.61-12.97-6.18-20-7.62c-6.4-1.37-12.91-2.18-19.46-2.42
		c-3.4-0.14-6.8-0.27-10.21-0.48c-1.95-0.1-3.88-0.39-5.77-0.87c-2.55-0.5-4.51-2.54-4.92-5.1c-0.31-1.53-0.54-3.06-0.8-4.61
		c0-0.31,0-0.63-0.12-0.94c-0.35-3.9-2.83-7.28-6.43-8.81c-2.35-1.06-4.77-1.93-7.25-2.62c-4.27-1.19-8.5-2.23-12.77-3.73
		c-3.67-1.3-7.23-2.89-10.65-4.75c-1.02-0.56-2.02-1.17-2.99-1.84c-0.65-0.44-1.24-0.94-1.79-1.5c-1.5-1.13-1.81-3.26-0.68-4.76
		c0.3-0.4,0.69-0.73,1.14-0.97c1.15-0.81,2.37-1.5,3.66-2.06c8.91-4.32,17.36-9.53,25.23-15.55c11.24-8.48,20.82-18.95,28.27-30.89
		c4.02-6.41,7.16-13.33,9.32-20.58c0.7-2.32,1.12-4.71,1.24-7.13c0.11-2.29-0.73-4.52-2.31-6.17c-0.96-1.02-2.01-1.95-3.15-2.77
		c-3.25-2.43-6.62-4.66-10.02-6.89l-12.93-8.5c-2.17-1.38-4.22-2.96-6.11-4.71c-1.38-1.27-2.57-2.72-3.56-4.32
		c-1.99-3.17-2.23-7.14-0.65-10.53c1-2.41,2.96-4.29,5.41-5.19c2.72-1.01,5.66-1.25,8.5-0.7c3.37,0.62,6.68,1.55,9.88,2.77
		c3.3,1.19,6.55,2.48,9.83,3.71c1.51,0.63,3.09,1.1,4.69,1.39c0.38,0.09,0.77,0.15,1.16,0.17c1.89,0,3.4-0.68,3.4-3.2
		c0-2.11-0.12-4.2-0.26-6.31c-0.83-11.36-1.03-22.76-0.61-34.14c0.23-7.25,1.12-14.46,2.67-21.55c2.18-9.77,6.43-18.95,12.47-26.93
		c10.99-14.47,26.51-24.83,44.09-29.43c9.72-2.66,19.79-3.81,29.85-3.4c10.61,0.28,21.1,2.38,31.01,6.19
		c9.43,3.55,18.09,8.88,25.51,15.7c9.48,8.53,16.55,19.42,20.48,31.55c1.73,5.58,2.94,11.32,3.59,17.13
		C383.75,203.29,384.09,212.34,383.84,221.39"/>
</g>
</svg>
