<?xml version="1.0" encoding="utf-8"?>
<!-- Generator: Adobe Illustrator 27.1.1, SVG Export Plug-In . SVG Version: 6.00 Build 0)  -->
<svg version="1.1" id="Layer_1" xmlns="http://www.w3.org/2000/svg" xmlns:xlink="http://www.w3.org/1999/xlink" x="0px" y="0px"
	 viewBox="0 0 595.28 565.89" style="enable-background:new 0 0 595.28 565.89;" xml:space="preserve">
<style type="text/css">
	.st0{clip-path:url(#SVGID_00000025406528380186417400000013928974737761929114_);}
	.st1{fill:#5171B7;}
	.st2{fill:#FFFFFF;}
</style>
<g>
	<defs>
		<rect id="SVGID_1_" x="44.15" y="26.27" width="507.56" height="507.56"/>
	</defs>
	<clipPath id="SVGID_00000054255178005011057690000004915068504924442503_">
		<use xlink:href="#SVGID_1_"  style="overflow:visible;"/>
	</clipPath>
	<g id="Group_163254" style="clip-path:url(#SVGID_00000054255178005011057690000004915068504924442503_);">
		<path id="Path_83713" class="st1" d="M551.71,280.05C551.69,139.89,438.05,26.29,297.89,26.31S44.13,139.97,44.15,280.13
			c0.02,124.84,90.82,231.12,214.13,250.63V353.42h-64.44v-73.37h64.44v-55.91c0-63.61,37.89-98.75,95.86-98.75
			c19.03,0.25,38.02,1.89,56.81,4.91v62.45h-32.01c-20.08-2.67-38.52,11.45-41.19,31.53c-0.36,2.69-0.42,5.41-0.17,8.11v47.66h70.4
			l-11.25,73.37h-59.16v177.34C460.92,511.25,551.73,404.92,551.71,280.05"/>
		<path id="Path_83714" class="st2" d="M396.73,353.42l11.25-73.37h-70.4v-47.68c-1.81-20.17,13.07-38,33.25-39.81
			c2.7-0.24,5.42-0.19,8.11,0.17h32.01v-62.36c-18.79-3.02-37.78-4.66-56.81-4.91c-57.96,0-95.86,35.14-95.86,98.75v55.91h-64.41
			v73.37h64.43v177.27c26.28,4.11,53.03,4.11,79.31,0V353.42H396.73z"/>
	</g>
</g>
</svg>
