<?xml version="1.0" encoding="utf-8"?>
<!-- Generator: Adobe Illustrator 27.1.1, SVG Export Plug-In . SVG Version: 6.00 Build 0)  -->
<svg version="1.1" id="Layer_1" xmlns="http://www.w3.org/2000/svg" xmlns:xlink="http://www.w3.org/1999/xlink" x="0px" y="0px"
	 viewBox="0 0 595.28 565.89" style="enable-background:new 0 0 595.28 565.89;" xml:space="preserve">
<style type="text/css">
	.st0{fill:#A2926E;stroke:#A2926E;stroke-width:8.0914;}
</style>
<g id="svgexport-17_-_2024-05-23T150540.189" transform="translate(0.266 0.325)">
	<path id="Path_83673" class="st0" d="M480.77,384.61l-78.18-52.12c-9.92-6.56-23.22-4.4-30.55,4.97l-22.77,29.27
		c-2.92,3.86-8.25,4.98-12.48,2.62l-4.34-2.4c-25.56-13.94-48.61-32.05-68.21-53.58c-21.52-19.62-39.62-42.67-53.58-68.23
		l-2.41-4.34c-2.4-4.23-1.3-9.58,2.57-12.53l29.29-22.75c9.36-7.34,11.52-20.63,4.97-30.55L192.96,96.8
		c-6.71-10.12-20.21-13.16-30.6-6.88l-32.69,19.63c-10.27,6.03-17.81,15.81-21.04,27.28c-11.76,42.9-2.91,116.92,106.09,225.98
		c86.74,86.74,151.31,110.04,195.7,110.04c10.21,0.04,20.39-1.28,30.25-3.95c11.47-3.22,21.25-10.76,27.28-21.04l19.66-32.67
		c6.29-10.4,3.26-23.91-6.88-30.62L480.77,384.61z M476.56,408.61l-19.61,32.69c-4.33,7.42-11.37,12.87-19.63,15.21
		c-39.6,10.87-108.76,1.86-213.45-102.81S110.18,179.85,121.06,140.25c2.35-8.27,7.8-15.32,15.23-19.66l32.69-19.65
		c4.51-2.71,10.36-1.39,13.27,2.99l28.32,42.51l23.77,35.6c2.84,4.3,1.91,10.07-2.15,13.25l-29.26,22.85
		c-8.91,6.8-11.47,19.12-6,28.9l2.33,4.22c14.51,26.67,33.36,50.74,55.78,71.2c20.47,22.42,44.54,41.27,71.2,55.78l4.22,2.33
		c9.78,5.49,22.11,2.94,28.92-5.97l22.77-29.32c3.18-4.06,8.95-5,13.25-2.15l78.16,52.12C477.99,398.19,479.32,404.09,476.56,408.61
		z M323.54,151.11c60.4,0.07,109.34,49.01,109.41,109.41c-0.01,3.57,2.89,6.48,6.46,6.48c3.57,0.01,6.48-2.89,6.48-6.46
		c0-0.01,0-0.01,0-0.02c-0.04-67.56-54.8-122.32-122.36-122.36c-3.57,0-6.47,2.9-6.47,6.48
		C317.07,148.22,319.96,151.11,323.54,151.11z"/>
	<path id="Path_83674" class="st0" d="M323.54,189.68c39.08,0.04,70.75,31.72,70.8,70.8c0.02,3.57,2.93,6.46,6.51,6.44
		c3.55-0.02,6.42-2.89,6.44-6.44c-0.05-46.18-37.48-83.61-83.66-83.66c-3.58,0-6.47,2.9-6.47,6.47c0,3.58,2.9,6.47,6.47,6.47l0,0
		L323.54,189.68z"/>
	<path id="Path_83675" class="st0" d="M323.54,228.29c17.77,0.02,32.17,14.42,32.19,32.19c-0.02,3.58,2.86,6.49,6.44,6.51
		c3.57,0.02,6.49-2.86,6.51-6.44c0-0.02,0-0.05,0-0.07c-0.03-24.87-20.18-45.03-45.05-45.05c-3.58,0-6.47,2.9-6.47,6.47
		c0,3.58,2.9,6.47,6.47,6.47L323.54,228.29z"/>
</g>
</svg>
