<?xml version="1.0" encoding="utf-8"?>
<!-- Generator: Adobe Illustrator 27.1.1, SVG Export Plug-In . SVG Version: 6.00 Build 0)  -->
<svg version="1.1" id="Layer_1" xmlns="http://www.w3.org/2000/svg" xmlns:xlink="http://www.w3.org/1999/xlink" x="0px" y="0px"
	 viewBox="0 0 595.28 565.89" style="enable-background:new 0 0 595.28 565.89;" xml:space="preserve">
<style type="text/css">
	.st0{fill:none;}
	.st1{clip-path:url(#SVGID_00000109019931814977711340000016228611735993604485_);}
	.st2{fill:url(#Rectangle_148739_00000132068703824297660700000010059381075593180842_);}
	.st3{clip-path:url(#SVGID_00000034047555498018120810000003799663601233994136_);}
	.st4{fill-rule:evenodd;clip-rule:evenodd;fill:#FFFFFF;}
</style>
<rect x="283.09" y="265.24" class="st0" width="29.69" height="29.69"/>
<g id="Group_163234" transform="translate(0 0)">
	<g>
		<defs>
			<circle id="SVGID_1_" cx="297.93" cy="280.08" r="227.97"/>
		</defs>
		<clipPath id="SVGID_00000094596016592635889880000007397099905818955701_">
			<use xlink:href="#SVGID_1_"  style="overflow:visible;"/>
		</clipPath>
		
			<g id="Group_163233" transform="translate(0 0)" style="clip-path:url(#SVGID_00000094596016592635889880000007397099905818955701_);">
			
				<linearGradient id="Rectangle_148739_00000041274954048947635590000013868671668923404170_" gradientUnits="userSpaceOnUse" x1="3.3221" y1="687.4314" x2="3.4296" y2="687.4314" gradientTransform="matrix(29.688 0 0 -29.688 -28.66 20688.5469)">
				<stop  offset="0" style="stop-color:#7EC354"/>
				<stop  offset="1" style="stop-color:#ABD47A"/>
			</linearGradient>
			
				<rect id="Rectangle_148739" x="69.97" y="52.12" style="fill:url(#Rectangle_148739_00000041274954048947635590000013868671668923404170_);" width="455.93" height="455.93"/>
		</g>
	</g>
</g>
<g id="Group_163236" transform="translate(0 0)">
	<g>
		<defs>
			<rect id="SVGID_00000036244343066913834340000012333940930614038428_" x="69.97" y="52.12" width="455.93" height="455.93"/>
		</defs>
		<clipPath id="SVGID_00000117634365578232220280000008512500755954943114_">
			<use xlink:href="#SVGID_00000036244343066913834340000012333940930614038428_"  style="overflow:visible;"/>
		</clipPath>
		
			<g id="Group_163235" transform="translate(0 0)" style="clip-path:url(#SVGID_00000117634365578232220280000008512500755954943114_);">
			<path id="Path_83704" class="st4" d="M409.01,172.46c-56.79-56.89-148.94-56.96-205.83-0.17
				c-46.64,46.56-56.17,118.64-23.24,175.72L159.3,423.4l77.16-20.23c21.34,11.62,45.24,17.71,69.54,17.71l0,0
				c80.38-0.03,145.52-65.22,145.49-145.6c-0.01-38.56-15.33-75.55-42.59-102.83 M305.99,396.31L305.99,396.31
				c-21.67-0.01-42.93-5.84-61.57-16.89l-4.42-2.63l-45.78,12.01l12.29-44.63l-2.87-4.61c-35.51-56.59-18.43-131.25,38.16-166.77
				s131.25-18.43,166.77,38.16c35.51,56.59,18.43,131.25-38.16,166.77c-19.26,12.09-41.54,18.5-64.29,18.51 M372.46,305.62
				c-3.64-1.81-21.5-10.61-24.85-11.83s-5.76-1.81-8.19,1.83c-2.43,3.64-9.4,11.83-11.52,14.25c-2.12,2.43-4.24,2.73-7.88,0.91
				c-10.7-4.28-20.57-10.38-29.18-18.04c-7.95-7.35-14.77-15.84-20.23-25.19c-2.12-3.64-0.23-5.61,1.54-7.42
				c1.77-1.81,3.64-4.25,5.45-6.37c1.5-1.86,2.73-3.93,3.64-6.14c0.98-2.04,0.87-4.44-0.31-6.37c-0.91-1.81-8.19-19.72-11.21-26.98
				s-5.94-6.14-8.19-6.24c-2.24-0.09-4.61-0.12-6.97-0.12c-3.73,0.11-7.25,1.78-9.69,4.61c-8.32,7.87-12.94,18.88-12.73,30.33
				c1.18,13.72,6.34,26.79,14.85,37.61c15.57,23.42,36.96,42.38,62.07,55.03c6.77,2.92,13.69,5.48,20.73,7.68
				c7.42,2.26,15.27,2.75,22.91,1.44c10.25-2.08,19.15-8.35,24.57-17.29c2.38-5.43,3.12-11.45,2.12-17.29
				c-0.91-1.54-3.33-2.43-6.97-4.24"/>
		</g>
	</g>
</g>
</svg>
