<?xml version="1.0" encoding="utf-8"?>
<!-- Generator: Adobe Illustrator 27.1.1, SVG Export Plug-In . SVG Version: 6.00 Build 0)  -->
<svg version="1.1" id="Layer_1" xmlns="http://www.w3.org/2000/svg" xmlns:xlink="http://www.w3.org/1999/xlink" x="0px" y="0px"
	 viewBox="0 0 595.28 565.89" style="enable-background:new 0 0 595.28 565.89;" xml:space="preserve">
<style type="text/css">
	.st0{fill:#F7ECDE;}
</style>
<path id="Path_306" class="st0" d="M297.91,460.74c20.98-0.01,39.97-12.44,48.38-31.67h-96.74
	C257.96,448.29,276.94,460.71,297.91,460.74z M407.04,274.79v-23.17c-0.05-48.03-31.46-90.4-77.39-104.42v-15.21
	c0.46-17.49-13.34-32.05-30.84-32.52c-17.49-0.46-32.05,13.34-32.52,30.84c-0.02,0.56-0.02,1.12,0,1.68v15.26
	c-45.92,14.02-77.32,56.36-77.39,104.37v23.24c0.04,42.98-16.61,84.3-46.44,115.25c-4.04,4.19-3.92,10.87,0.28,14.91
	c1.98,1.9,4.61,2.96,7.35,2.95h295.69c5.83,0.04,10.58-4.65,10.62-10.47c0.02-2.76-1.04-5.41-2.95-7.4
	c-29.82-30.95-46.46-72.27-46.41-115.25V274.79z M308.48,143.06c-3.47-0.33-7.01-0.51-10.57-0.51c-3.56,0-7.08,0.18-10.57,0.51
	v-11.06c0.25-5.83,5.19-10.35,11.02-10.1c5.47,0.24,9.85,4.62,10.1,10.1L308.48,143.06z M435.21,251.61
	c0.25,5.83,5.19,10.35,11.02,10.1c5.47-0.24,9.85-4.62,10.1-10.1l0,0c0.09-42.02-16.63-82.33-46.44-111.96
	c-4.28-3.97-10.97-3.71-14.94,0.57c-3.76,4.06-3.75,10.33,0.01,14.38C420.79,180.28,435.28,215.2,435.21,251.61z M150.09,262.16
	c5.83,0,10.56-4.72,10.57-10.55l0,0c-0.09-36.44,14.4-71.39,40.25-97.08c3.97-4.28,3.71-10.97-0.57-14.94
	c-4.06-3.76-10.33-3.75-14.38,0.01c-29.82,29.63-46.55,69.96-46.44,112c-0.04,5.83,4.65,10.58,10.48,10.61c0.01,0,0.02,0,0.03,0l0,0
	L150.09,262.16z"/>
</svg>
