<?xml version="1.0" encoding="utf-8"?>
<!-- Generator: Adobe Illustrator 27.1.1, SVG Export Plug-In . SVG Version: 6.00 Build 0)  -->
<svg version="1.1" id="Layer_1" xmlns="http://www.w3.org/2000/svg" xmlns:xlink="http://www.w3.org/1999/xlink" x="0px" y="0px"
	 viewBox="0 0 595.28 841.89" style="enable-background:new 0 0 595.28 841.89;" xml:space="preserve">
<g id="svgexport-6_17_" transform="translate(-0.047 -22.675)">
	<path id="Path_83380" d="M539.94,384.36l-178.6-149.61c-30.69-25.68-75.36-25.68-106.05,0L76.69,384.36
		c-21.63,18.16-24.44,50.41-6.28,72.04c8.95,10.66,21.86,17.21,35.75,18.14v145.5c0.06,28.18,22.89,51.01,51.07,51.07h109.79V545.19
		c-0.44-22.76,17.65-41.56,40.41-42c22.76-0.44,41.56,17.65,42,40.41c0.01,0.53,0.01,1.06,0,1.59v126.07h109.85
		c28.15-0.1,50.93-22.92,50.99-51.07v-145.5c28.23-1.86,49.61-26.25,47.75-54.47c-0.92-13.93-7.47-26.88-18.16-35.86L539.94,384.36z
		 M507.04,455.18h-16.23v165c0.01,17.41-14.1,31.54-31.52,31.55c-0.01,0-0.02,0-0.03,0h-90.32V545.19
		c0.01-33.55-27.17-60.75-60.72-60.76s-60.75,27.17-60.76,60.72c0,0.01,0,0.03,0,0.04v106.54h-90.24
		c-17.39,0.03-31.51-14.05-31.55-31.44V455.25h-16.1c-17.49-0.01-31.66-14.21-31.64-31.7c0.01-9.36,4.16-18.24,11.34-24.25
		l178.6-149.61c23.41-19.63,57.54-19.63,80.95,0l178.51,149.7c13.39,11.2,15.17,31.13,3.97,44.52
		c-6.01,7.19-14.91,11.34-24.28,11.33L507.04,455.18z"/>
</g>
</svg>
