<?xml version="1.0" encoding="utf-8"?>
<!-- Generator: Adobe Illustrator 27.1.1, SVG Export Plug-In . SVG Version: 6.00 Build 0)  -->
<svg version="1.1" id="Layer_1" xmlns="http://www.w3.org/2000/svg" xmlns:xlink="http://www.w3.org/1999/xlink" x="0px" y="0px"
	 viewBox="0 0 595.28 841.89" style="enable-background:new 0 0 595.28 841.89;" xml:space="preserve">
<g id="svgexport-17_-_2024-05-12T142803.538" transform="translate(-47.037 0)">
	<path id="Path_83381" d="M514.28,207.16h-52.31v-23.39c0-7.57-8.27-11-15.84-11h-40.6c-8.95-25.87-33.91-42.73-61.25-41.37
		c-27.24-1.02-52.01,15.7-61.25,41.35h-39.92c-7.57,0-15.14,3.45-15.14,11v23.4h-52.33c-31,0.33-56.35,24.79-57.81,55.75v394.36
		c1.65,30.35,27.45,53.69,57.81,52.31h338.63c30.36,1.38,56.16-21.96,57.81-52.31V262.92C570.63,231.95,545.28,207.5,514.28,207.16z
		 M255.49,200.29h37.85c6.61-0.8,11.92-5.83,13.09-12.39c4.07-17.75,19.64-30.49,37.85-30.97c18.04,0.54,33.38,13.33,37.17,30.97
		c1.23,6.78,6.89,11.87,13.76,12.39h39.22v54.98H255.49V200.29z M544.56,657.28c-1.65,15.13-15.12,26.16-30.28,24.78H175.66
		c-15.16,1.38-28.63-9.64-30.28-24.78V262.92c1.4-15.76,14.46-27.93,30.28-28.22h52.31v35.12c0.73,7.71,7.4,13.48,15.14,13.09
		h203.04c7.88,0.43,14.78-5.26,15.84-13.09v-35.12h52.31c15.82,0.29,28.88,12.46,30.28,28.22
		C544.56,262.92,544.56,657.28,544.56,657.28z"/>
	<path id="Path_83382" d="M291.98,439.1c-5.16-5.44-13.72-5.75-19.26-0.7l-43.99,41.99l-18.58-19.26
		c-5.16-5.44-13.72-5.75-19.26-0.7c-5.33,5.59-5.33,14.37,0,19.96l28.22,28.9c2.44,2.73,5.97,4.24,9.64,4.12
		c3.63-0.05,7.1-1.53,9.64-4.12l53.68-50.93c5.32-4.88,5.68-13.14,0.8-18.46c0,0-0.01-0.01-0.01-0.01
		C292.51,439.62,292.26,439.36,291.98,439.1z M489.5,468.7H331.2c-7.59-0.39-14.06,5.44-14.46,13.04
		c-0.39,7.59,5.44,14.06,13.04,14.46c0.47,0.02,0.95,0.02,1.42,0h158.37c7.59,0.39,14.06-5.44,14.46-13.04
		c0.39-7.59-5.44-14.06-13.04-14.46c-0.47-0.02-0.95-0.02-1.42,0H489.5z M291.98,328.99c-5.16-5.44-13.72-5.75-19.26-0.7
		l-43.99,41.99l-18.58-19.26c-5.16-5.44-13.72-5.75-19.26-0.7c-5.33,5.59-5.33,14.37,0,19.96l28.22,28.9
		c2.44,2.73,5.97,4.24,9.64,4.12c3.63-0.05,7.1-1.53,9.64-4.12l53.68-50.93c5.32-4.88,5.68-13.14,0.8-18.46c0,0-0.01-0.01-0.01-0.01
		C292.56,329.5,292.26,329.23,291.98,328.99L291.98,328.99z M489.5,358.59H331.2c-7.59-0.39-14.06,5.44-14.46,13.04
		c-0.39,7.59,5.44,14.06,13.04,14.46c0.47,0.02,0.95,0.02,1.42,0h158.37c7.59,0.39,14.06-5.44,14.46-13.04
		c0.39-7.59-5.44-14.06-13.04-14.46c-0.47-0.02-0.95-0.02-1.42,0H489.5z M291.98,549.2c-5.16-5.44-13.72-5.75-19.26-0.7
		l-43.99,41.99l-18.58-19.26c-5.16-5.44-13.72-5.75-19.26-0.7c-5.33,5.59-5.33,14.37,0,19.96l28.22,28.9
		c2.44,2.73,5.97,4.24,9.64,4.12c3.63-0.05,7.1-1.53,9.64-4.12l53.68-50.93c5.32-4.88,5.68-13.14,0.8-18.46c0,0-0.01-0.01-0.01-0.01
		c-0.31-0.26-0.6-0.51-0.88-0.77V549.2z M489.5,578.8H331.2c-7.59-0.39-14.06,5.44-14.46,13.04c-0.39,7.59,5.44,14.06,13.04,14.46
		c0.47,0.02,0.95,0.02,1.42,0h158.37c7.59,0.39,14.06-5.44,14.46-13.04c0.39-7.59-5.44-14.06-13.04-14.46
		c-0.47-0.02-0.95-0.02-1.42,0H489.5z"/>
</g>
</svg>
