<?xml version="1.0" encoding="utf-8"?>
<!-- Generator: Adobe Illustrator 27.1.1, SVG Export Plug-In . SVG Version: 6.00 Build 0)  -->
<svg version="1.1" id="Layer_1" xmlns="http://www.w3.org/2000/svg" xmlns:xlink="http://www.w3.org/1999/xlink" x="0px" y="0px"
	 viewBox="0 0 595.28 565.89" style="enable-background:new 0 0 595.28 565.89;" xml:space="preserve">
<g id="svgexport-17_-_2024-05-12T144158.179" transform="translate(-3 -3)">
	<path id="Path_83387" d="M471.31,177.3h-44.45V112.7c-0.02-24.54-19.91-44.43-44.45-44.45H130.56
		c-24.54,0.02-44.43,19.91-44.45,44.45v177.78c0.02,24.54,19.91,44.43,44.45,44.45h44.44v64.59c0.02,24.54,19.91,44.43,44.45,44.45
		h7.41v39.11c0,8.2,6.65,14.84,14.85,14.83c2.58,0,5.11-0.67,7.35-1.95l90.89-52h131.37c24.54-0.02,44.43-19.91,44.45-44.45V221.72
		c-0.02-24.54-19.91-44.43-44.45-44.45L471.31,177.3z M100.92,290.48V112.7c0.02-16.36,13.28-29.62,29.64-29.64h251.85
		c16.35,0.02,29.6,13.27,29.62,29.62v177.79c-0.02,16.35-13.27,29.6-29.62,29.62h-14.81c-4.09,0-7.41,3.32-7.41,7.41l0,0v46.49
		l-92.63-52.93c-1.12-0.64-2.38-0.97-3.67-0.97H130.56C114.2,320.09,100.94,306.84,100.92,290.48z M500.93,399.52
		c-0.02,16.35-13.27,29.6-29.62,29.62H337.97c-1.29,0-2.56,0.34-3.69,0.97l-92.61,52.95v-46.59c0-4.09-3.32-7.41-7.41-7.41h0h-14.81
		c-16.35-0.02-29.6-13.27-29.62-29.62v-64.51h72.1l90.92,51.95c7.1,4.06,16.15,1.6,20.21-5.5c1.28-2.24,1.96-4.78,1.96-7.37v-39.08
		h7.41c24.54-0.02,44.43-19.91,44.45-44.45v-98.37h44.45c16.34,0.03,29.58,13.27,29.61,29.61
		C500.93,221.72,500.93,399.52,500.93,399.52z M226.88,149.74c0-4.09,3.32-7.41,7.41-7.41h0h133.34c4.09,0.18,7.26,3.63,7.09,7.72
		c-0.17,3.84-3.24,6.92-7.09,7.09H234.26c-4.08-0.01-7.39-3.32-7.4-7.4L226.88,149.74z M197.26,149.74c0,4.09-3.32,7.41-7.41,7.41h0
		h-44.48c-4.09,0.18-7.55-3-7.72-7.09c-0.18-4.09,3-7.55,7.09-7.72c0.21-0.01,0.42-0.01,0.64,0h44.45c4.08,0.01,7.39,3.32,7.4,7.4
		L197.26,149.74z M226.88,201.59c0-4.09,3.32-7.41,7.41-7.41h0h133.34c4.09,0.18,7.26,3.63,7.09,7.72
		c-0.17,3.84-3.24,6.92-7.09,7.09H234.26c-4.08-0.01-7.39-3.32-7.4-7.4L226.88,201.59z M197.26,201.59c0,4.09-3.32,7.41-7.41,7.41h0
		h-44.48c-4.09,0.18-7.55-3-7.72-7.09c-0.18-4.09,3-7.55,7.09-7.72c0.21-0.01,0.42-0.01,0.64,0h44.45c4.08,0.01,7.39,3.32,7.4,7.4
		L197.26,201.59z M367.64,260.86H234.26c-4.09,0.18-7.55-3-7.72-7.09c-0.18-4.09,3-7.55,7.09-7.72c0.21-0.01,0.42-0.01,0.64,0
		h133.34c4.09-0.18,7.55,3,7.72,7.09c0.18,4.09-3,7.55-7.09,7.72c-0.21,0.01-0.42,0.01-0.64,0H367.64z M197.26,253.44
		c0,4.09-3.32,7.41-7.41,7.41l0,0h-44.48c-4.09,0.18-7.55-3-7.72-7.09c-0.18-4.09,3-7.55,7.09-7.72c0.21-0.01,0.42-0.01,0.64,0
		h44.45c4.08,0.01,7.39,3.32,7.4,7.4H197.26z"/>
</g>
</svg>
