<?xml version="1.0" encoding="utf-8"?>
<!-- Generator: Adobe Illustrator 27.1.1, SVG Export Plug-In . SVG Version: 6.00 Build 0)  -->
<svg version="1.1" id="Layer_1" xmlns="http://www.w3.org/2000/svg" xmlns:xlink="http://www.w3.org/1999/xlink" x="0px" y="0px"
	 viewBox="0 0 595.28 565.89" style="enable-background:new 0 0 595.28 565.89;" xml:space="preserve">
<style type="text/css">
	.st0{fill:#1A322E;}
	.st1{fill:#34675F;}
	.st2{fill:#FFDBB1;}
</style>
<path id="Path_83347" class="st0" d="M297.93,58.04C285.7,58.1,275.81,68,275.75,80.22v370.11h44.37V80.22
	C320.05,67.99,310.15,58.1,297.93,58.04z"/>
<path id="Path_83348" class="st1" d="M223.88,428.09c-12.24,0.08-22.13,10-22.18,22.24v14.83h192.5v-14.83
	c-0.05-12.29-10.02-22.23-22.31-22.24H223.88z M297.93,132.06c-26.27,0.05-52.28,5.23-76.56,15.24
	c-22.62,9.48-46.9,14.35-71.43,14.32c-16.84-0.22-33.32-4.89-47.77-13.52c-3.34-2.37-7.96-1.59-10.33,1.75
	c-2.37,3.34-1.59,7.96,1.75,10.33c0.13,0.09,0.26,0.18,0.39,0.26c16.88,10.26,36.21,15.78,55.96,15.99
	c26.26-0.05,52.25-5.24,76.53-15.25c45.72-19.04,97.14-19.04,142.86,0c24.31,10.02,50.33,15.21,76.62,15.25
	c19.75-0.22,39.07-5.75,55.95-16.01c3.51-2.12,4.62-6.69,2.5-10.19c-2.12-3.51-6.69-4.62-10.19-2.5c-0.19,0.11-0.37,0.24-0.55,0.37
	c-14.43,8.64-30.88,13.31-47.7,13.54c-24.53,0.03-48.81-4.84-71.43-14.32c-24.28-10-50.28-15.18-76.54-15.24L297.93,132.06z"/>
<path id="Path_83349" class="st0" d="M142.98,166.4L76.37,344.14l13.81,5.17l59.74-159.25l59.66,159.25l13.87-5.17L156.8,166.4
	H142.98z M439.01,166.4l-66.59,177.74l13.87,5.17l59.64-159.17l59.72,159.17l13.81-5.17l-66.6-177.74H439.01z"/>
<path id="Path_83350" class="st2" d="M297.94,102.46c-20.43,0-36.99,16.56-36.99,36.99s16.56,36.99,36.99,36.99
	s36.99-16.56,36.99-36.99C334.88,119.04,318.35,102.51,297.94,102.46z"/>
<g id="Group_162324" transform="translate(0 7.338)">
	<path id="Path_83351" class="st0" d="M149.92,139.48c-12.25,0-22.18,9.93-22.18,22.18c0,12.25,9.93,22.18,22.18,22.18
		c12.23,0,22.15-9.89,22.18-22.12C172.05,149.48,162.16,139.56,149.92,139.48z M445.94,139.48c12.25,0,22.18,9.93,22.18,22.18
		c0,12.25-9.93,22.18-22.18,22.18c-12.25,0-22.18-9.93-22.18-22.18C423.84,149.44,433.73,139.56,445.94,139.48z M201.7,450.36
		c-12.25,0.07-22.17,9.99-22.24,22.24v14.75c-0.02,4.09,3.28,7.43,7.37,7.45c0.02,0,0.05,0,0.07,0h222.05
		c4.09-0.03,7.38-3.36,7.36-7.45V472.6c-0.05-12.24-9.94-22.16-22.18-22.24H201.7z M75.9,339.33c0.44,11.65,3.62,23.03,9.26,33.23
		c13.58,22.43,38.61,35.33,64.76,33.38c26.13,1.96,51.13-10.95,64.67-33.38c5.66-10.2,8.84-21.58,9.29-33.23
		c-0.03-4.05-3.31-7.33-7.36-7.36H82.9C78.99,332.2,75.94,335.42,75.9,339.33z M371.95,339.33c0.43,11.65,3.59,23.03,9.24,33.23
		c13.58,22.43,38.61,35.33,64.76,33.38c26.14,1.96,51.17-10.94,64.74-33.38c5.66-10.2,8.84-21.58,9.29-33.23
		c-0.03-4.05-3.32-7.33-7.37-7.35H378.97c-3.9,0.24-6.96,3.45-7,7.36L371.95,339.33z"/>
</g>
</svg>
