<?xml version="1.0" encoding="utf-8"?>
<!-- Generator: Adobe Illustrator 27.1.1, SVG Export Plug-In . SVG Version: 6.00 Build 0)  -->
<svg version="1.1" id="Layer_1" xmlns="http://www.w3.org/2000/svg" xmlns:xlink="http://www.w3.org/1999/xlink" x="0px" y="0px"
	 viewBox="0 0 595.28 565.89" style="enable-background:new 0 0 595.28 565.89;" xml:space="preserve">
<g id="svgexport-17_-_2024-05-12T143525.183" transform="translate(-0.003 0)">
	<path id="Path_83385" d="M508.21,285.99v-63.83c-0.06-21.47-16.6-39.3-38.01-40.96L410.92,77.66
		c-11.16-19.61-36.1-26.45-55.7-15.29c-0.11,0.06-0.22,0.13-0.33,0.19L151.66,180.82h-35.69c-22.83,0-41.34,18.51-41.34,41.34
		c0,0,0,0.01,0,0.01V469.9c0.02,22.8,18.5,41.27,41.29,41.29h351c22.8-0.02,41.27-18.5,41.29-41.29v-63.84
		c12.34-4.34,20.61-15.99,20.65-29.07v-61.91c-0.04-13.08-8.31-24.72-20.65-29.07L508.21,285.99z M446.22,180.82h-89.97l67.48-39.29
		L446.22,180.82z M413.47,123.67l-98.25,57.15h-40.75l128.82-75L413.47,123.67z M365.26,80.41c4.63-2.72,10.15-3.46,15.33-2.06
		c5.25,1.4,9.72,4.86,12.4,9.59l0,0l-159.56,92.88h-40.75L365.26,80.41z M487.56,469.91c-0.02,11.4-9.25,20.63-20.65,20.65H115.97
		c-11.4-0.02-20.63-9.25-20.65-20.65V222.17c0.02-11.4,9.25-20.63,20.65-20.65h350.96c11.4,0.02,20.63,9.25,20.65,20.65v61.91
		h-61.91c-34.19,0-61.91,27.72-61.91,61.91s27.72,61.91,61.91,61.91l0,0h61.91L487.56,469.91z M508.21,377.02
		c0,5.7-4.62,10.32-10.32,10.32h0h-72.25c-22.81,0-41.29-18.49-41.29-41.29s18.49-41.29,41.29-41.29h72.29
		c5.7,0,10.32,4.62,10.32,10.32l0,0v61.91L508.21,377.02z"/>
	<path id="Path_83386" d="M425.63,325.39c-11.4,0-20.65,9.24-20.65,20.65c0,11.4,9.24,20.65,20.65,20.65
		c11.4,0,20.65-9.24,20.65-20.65c0,0,0,0,0,0C446.27,334.64,437.03,325.4,425.63,325.39z"/>
</g>
</svg>
