<?xml version="1.0" encoding="utf-8"?>
<!-- Generator: Adobe Illustrator 27.1.1, SVG Export Plug-In . SVG Version: 6.00 Build 0)  -->
<svg version="1.1" id="Layer_1" xmlns="http://www.w3.org/2000/svg" xmlns:xlink="http://www.w3.org/1999/xlink" x="0px" y="0px"
	 viewBox="0 0 595.28 565.89" style="enable-background:new 0 0 595.28 565.89;" xml:space="preserve">
<style type="text/css">
	.st0{fill:#B9A58E;}
	.st1{fill:#1A322E;}
	.st2{fill:#C9D4D9;}
	.st3{fill:#F26B6C;}
	.st4{fill:#FECF98;}
	.st5{fill:#E76262;}
	.st6{fill:#DCE9ED;}
	.st7{fill:#DBB790;}
	.st8{fill:#FDD5A6;}
	.st9{fill:#F8C68B;}
</style>
<path id="Path_83352" class="st0" d="M465.33,360.62l-27.81,62.47l12.73,5.67l21.47-48.22l21.47,48.22l12.71-5.65l-27.81-62.53
	L465.33,360.62z M409.15,481.43V328.6c0-3.85,3.12-6.98,6.98-6.98c3.85,0,6.98,3.12,6.98,6.98v152.83H409.15z"/>
<path id="Path_83353" class="st1" d="M304.91,293.93c49.85-0.05,90.31,40.33,90.35,90.18c0,0.06,0,0.11,0,0.17v97.24
	c0.02,3.84-3.08,6.97-6.93,6.99c-0.02,0-0.04,0-0.06,0H96.45c-3.84,0.02-6.97-3.08-6.99-6.93c0-0.02,0-0.04,0-0.06v-97.26
	c-0.04-49.85,40.35-90.3,90.2-90.33c0.05,0,0.1,0,0.15,0H304.91z M242.37,71.55c-46.05,0.06-83.37,37.38-83.42,83.44
	c0.17,12.34,1.91,24.61,5.18,36.51h156.48c3.25-11.9,4.97-24.17,5.12-36.51c-0.03-46.03-37.3-83.35-83.33-83.44H242.37z"/>
<path id="Path_83354" class="st2" d="M242.37,321.72l-48.62,34.75l48.64,118.11l48.64-118.11L242.37,321.72z"/>
<path id="Path_83355" class="st3" d="M229.49,349.54l-14.44,86.83l27.32,38.25l27.34-38.25l-14.5-86.83H229.49z"/>
<path id="Path_83356" class="st4" d="M200.66,245.29v76.43h83.36v-76.43H200.66z"/>
<path id="Path_83357" class="st5" d="M217.68,329.83c0,0-4.05,6.44-1.92,9.66l13.84,20.8c1.28,1.95,3.45,3.13,5.78,3.16h13.96
	c2.34-0.01,4.53-1.19,5.81-3.16l13.96-20.83c2.15-3.22-1.96-9.66-1.96-9.66L217.68,329.83z"/>
<path id="Path_83358" class="st6" d="M200.62,280.01c-1.83,0.02-3.58,0.77-4.86,2.07l-13.89,13.89l15.89,66.11l48.64-34.72
	c3.12-2.25,3.82-6.61,1.57-9.73c-0.33-0.46-0.72-0.88-1.15-1.24l-41.65-34.78c-1.27-1.05-2.87-1.61-4.52-1.58L200.62,280.01z"/>
<path id="Path_83359" d="M138.15,488.5v-62.67c0-3.85,3.12-6.98,6.98-6.98c3.85,0,6.98,3.12,6.98,6.98v62.66L138.15,488.5z"/>
<path id="Path_83360" class="st6" d="M283.94,280.01c-1.57,0.03-3.09,0.6-4.29,1.6l-41.75,34.78c-2.94,2.47-3.33,6.86-0.86,9.8
	c0.37,0.44,0.79,0.83,1.26,1.17l48.64,34.72l15.89-66.11l-13.89-13.96c-1.33-1.33-3.13-2.07-5.01-2.05L283.94,280.01z"/>
<path id="Path_83361" class="st4" d="M309.67,182.66c-4.2,0.19-8.26,1.59-11.69,4.02v51.64c19.08,0.1,34.62-15.29,34.71-34.37
	c0-0.12,0-0.24,0-0.36v-0.26c-0.49-9.55-7.15-17.66-16.43-19.99c-2.15-0.57-4.37-0.81-6.59-0.71V182.66z"/>
<path id="Path_83362" d="M179.83,293.96c-8.15-0.01-16.26,1.08-24.12,3.22c-2.59,0.72-4.53,2.87-4.99,5.52l-5.54,31.78
	c-0.39,2.22,0.33,4.5,1.92,6.1l18.07,18.02l-5.99,23.98c-0.52,2.07-0.06,4.27,1.26,5.96l76.49,97.31c2.36,3.04,6.73,3.59,9.76,1.23
	c2.3-1.78,3.25-4.81,2.37-7.59l-55.65-180.68c-0.9-2.92-3.59-4.91-6.65-4.91L179.83,293.96z M346.56,488.5v-62.66
	c0-3.85-3.12-6.98-6.98-6.98s-6.98,3.12-6.98,6.98v62.66H346.56z"/>
<path id="Path_83363" class="st0" d="M354.19,360.62l-27.84,62.51l12.73,5.67l21.47-48.32l21.47,48.32l12.68-5.65l-27.84-62.53
	L354.19,360.62z"/>
<path id="Path_83364" class="st7" d="M416.09,342.55c-11.49-0.02-22.84,2.55-33.2,7.52c-6.84,3.87-14.5,6.05-22.35,6.38
	c-4.35,0.08-8.66-0.85-12.58-2.73c-1.25-0.53-2.4-1.28-3.39-2.2c-2.83-2.6-7.24-2.42-9.85,0.42c-2.45,2.67-2.45,6.76,0,9.43
	c2.12,1.91,4.49,3.51,7.04,4.78c5.85,2.83,12.28,4.27,18.78,4.2c9.79-0.34,19.36-2.91,28-7.52c17.4-8.47,37.73-8.47,55.12,0
	c8.64,4.62,18.23,7.19,28.02,7.52c6.48,0.08,12.9-1.36,18.73-4.2c2.55-1.26,4.92-2.87,7.04-4.78c2.89-2.53,3.19-6.92,0.66-9.82
	c-2.53-2.89-6.92-3.19-9.82-0.66c-0.23,0.2-0.44,0.41-0.64,0.63c-1.01,0.92-2.18,1.67-3.44,2.2c-3.91,1.88-8.2,2.81-12.53,2.73
	c-7.85-0.33-15.51-2.51-22.35-6.38c-10.39-4.98-21.77-7.54-33.29-7.52H416.09z M381.37,488.5h69.54c3.85,0,6.98-3.12,6.98-6.98
	s-3.12-6.98-6.98-6.98H381c-3.85,0.1-6.9,3.31-6.79,7.17C374.31,485.56,377.52,488.6,381.37,488.5L381.37,488.5z"/>
<path id="Path_83365" class="st4" d="M175.13,182.66c4.2,0.19,8.26,1.59,11.69,4.02v51.64c-19.08,0.13-34.65-15.23-34.78-34.3
	c0-0.14,0-0.28,0-0.42v-0.26c0.5-9.56,7.18-17.68,16.47-19.99c2.16-0.57,4.39-0.81,6.61-0.71V182.66z"/>
<path id="Path_83366" class="st8" d="M256.29,148c-4.15,11.97-15.16,20.21-27.82,20.81H200.7c-11.5,0.07-20.81,9.37-20.88,20.87
	v27.81c1.01,34.55,29.84,61.74,64.39,60.73c33.13-0.97,59.76-27.6,60.73-60.73v-27.81c-0.07-11.5-9.38-20.81-20.88-20.88
	c-12.65-0.61-23.64-8.86-27.77-20.83L256.29,148z"/>
<path id="Path_83367" d="M297.94,293.97c-3.03,0.01-5.7,1.98-6.61,4.86l-55.61,180.68c-1.05,3.7,1.1,7.54,4.8,8.59
	c2.67,0.76,5.53-0.14,7.28-2.29l76.43-97.26c1.34-1.69,1.82-3.9,1.31-5.99l-6.01-23.95l18.08-18.11c1.58-1.61,2.28-3.88,1.89-6.1
	l-5.54-31.78c-0.48-2.6-2.4-4.7-4.94-5.42c-7.85-2.14-15.95-3.23-24.08-3.22H297.94z"/>
<g id="Group_162325" transform="translate(22.005 32.358)">
	<path id="Path_83368" class="st9" d="M310.72,386.63c-3.84-0.02-6.97,3.08-6.99,6.93c0,0.02,0,0.04,0,0.06
		c0.16,5.9,1.59,11.7,4.2,17c5.94,11.31,17.84,18.2,30.6,17.73c12.74,0.47,24.62-6.43,30.52-17.73c2.61-5.3,4.05-11.09,4.22-17
		c0.02-3.84-3.08-6.97-6.93-6.99c-0.02,0-0.04,0-0.06,0H310.72z M421.9,386.63c-3.84,0.01-6.95,3.14-6.94,6.98c0,0,0,0.01,0,0.01
		c0.16,5.9,1.59,11.7,4.2,17c9.61,16.86,31.06,22.73,47.92,13.12c5.47-3.12,10-7.65,13.12-13.12c2.61-5.3,4.04-11.1,4.2-17
		c0.02-3.83-3.07-6.96-6.9-6.99H421.9z"/>
</g>
</svg>
