<?xml version="1.0" encoding="utf-8"?>
<!-- Generator: Adobe Illustrator 27.1.1, SVG Export Plug-In . SVG Version: 6.00 Build 0)  -->
<svg version="1.1" id="Layer_1" xmlns="http://www.w3.org/2000/svg" xmlns:xlink="http://www.w3.org/1999/xlink" x="0px" y="0px"
	 viewBox="0 0 595.28 565.89" style="enable-background:new 0 0 595.28 565.89;" xml:space="preserve">
<style type="text/css">
	.st0{fill:#F7ECDE;}
</style>
<g id="svgexport-17_6_" transform="translate(0 -0.448)">
	<path id="Path_83776" class="st0" d="M475.53,155.94H445.8c3.98-6.19,6.46-13.22,7.24-20.54c3.14-29.03-17.85-55.11-46.89-58.25
		c-15.01-1.62-30,3.25-41.18,13.39l-37.53,34.04c-14.83-16.29-40.06-17.48-56.36-2.64c-0.92,0.84-1.81,1.72-2.64,2.64l-37.6-34.04
		c-21.63-19.62-55.07-18-74.69,3.63c-10.16,11.2-15.04,26.2-13.41,41.23c0.8,7.28,3.28,14.27,7.24,20.42h-29.64
		c-14.71,0-26.64,11.93-26.64,26.64c0,0.04,0,0.08,0,0.11v39.96c0,7.36,5.96,13.32,13.32,13.32h381.83
		c7.36,0,13.32-5.96,13.32-13.32v-39.96C502.17,167.86,490.24,155.94,475.53,155.94z M257.97,151.4v4.54h-62.66
		c-14.48-0.05-26.17-11.82-26.12-26.3c0.03-10.12,5.89-19.32,15.05-23.63c9.54-4.62,20.94-2.9,28.68,4.33l45.05,40.85
		c0.02,0.05,0,0.18,0,0.32L257.97,151.4z M426.6,131.77c-1.5,13.91-13.38,24.36-27.37,24.08h-61.27v-4.54c0-0.16,0-0.32,0-0.48
		l44.27-40.01c6.71-6.38,16.24-8.82,25.19-6.44c12.25,3.24,20.36,14.86,19.18,27.48V131.77z M120.34,262.5v195.36
		c0,14.71,11.93,26.64,26.64,26.64h124.31V262.5H120.34z M324.57,262.5v222.01h124.31c14.71,0,26.64-11.93,26.64-26.64V262.5H324.57
		z"/>
</g>
</svg>
