<?xml version="1.0" encoding="utf-8"?>
<!-- Generator: Adobe Illustrator 27.1.1, SVG Export Plug-In . SVG Version: 6.00 Build 0)  -->
<svg version="1.1" id="Layer_1" xmlns="http://www.w3.org/2000/svg" xmlns:xlink="http://www.w3.org/1999/xlink" x="0px" y="0px"
	 viewBox="0 0 595.28 565.89" style="enable-background:new 0 0 595.28 565.89;" xml:space="preserve">
<style type="text/css">
	.st0{fill:#ED1C24;}
</style>
<path id="trash-2" class="st0" d="M142.28,474.22c1.28,20.2,18.03,35.94,38.27,35.95h234.73c20.24-0.01,36.99-15.75,38.27-35.95
	l16.93-270.83H125.37L142.28,474.22z M470.48,126.69h-57.51V107.5c-0.03-31.75-25.77-57.48-57.52-57.5H240.4
	c-31.76,0.02-57.5,25.76-57.52,57.52v19.19h-57.5c-10.6,0-19.18,8.6-19.18,19.2c0,10.59,8.59,19.18,19.18,19.18h345.11
	c10.6,0,19.19-8.58,19.2-19.18s-8.58-19.19-19.18-19.2c-0.01,0-0.01,0-0.02,0V126.69z M374.61,126.69H221.23V107.5
	c0-10.6,8.59-19.19,19.19-19.19h115.04c10.6,0,19.19,8.59,19.19,19.19l0,0L374.61,126.69z"/>
</svg>
