<?xml version="1.0" encoding="utf-8"?>
<!-- Generator: Adobe Illustrator 27.1.1, SVG Export Plug-In . SVG Version: 6.00 Build 0)  -->
<svg version="1.1" id="Layer_1" xmlns="http://www.w3.org/2000/svg" xmlns:xlink="http://www.w3.org/1999/xlink" x="0px" y="0px"
	 viewBox="0 0 595.28 565.89" style="enable-background:new 0 0 595.28 565.89;" xml:space="preserve">
<style type="text/css">
	.st0{fill:#A2926E;}
</style>
<g id="svgexport-18_23_" transform="translate(-11.151 -5.014)">
	<path id="Path_83407" class="st0" d="M463.91,118.12h-61.42v-8.77c-0.03-20.59-16.71-37.27-37.29-37.29H253.1
		c-20.59,0.03-37.27,16.71-37.29,37.29v8.77h-61.42c-16.11,0.01-29.17,13.06-29.2,29.17v13.85c0.02,14.89,11.23,27.39,26.03,29.02
		l30.16,263.75c2.82,25.18,24.11,44.23,49.45,44.24h156.55c25.34-0.01,46.63-19.06,49.45-44.24l30.14-263.72
		c14.8-1.63,26.01-14.13,26.03-29.02v-13.85c-0.03-16.11-13.09-29.16-29.2-29.17L463.91,118.12z M234.73,109.35
		c0-10.15,8.23-18.37,18.37-18.37h112.09c10.15,0,18.37,8.23,18.37,18.37v8.77H234.75L234.73,109.35z M418.11,451.66
		c-1.77,15.6-14.98,27.39-30.68,27.38H230.88c-15.69-0.01-28.89-11.79-30.66-27.38l-29.8-261.33H447.9L418.11,451.66z
		 M474.16,161.14c0,5.66-4.59,10.25-10.25,10.25H154.39c-5.66,0-10.25-4.59-10.25-10.25l0,0v-13.82c0-5.66,4.59-10.25,10.25-10.25
		l0,0h309.52c5.66,0,10.25,4.59,10.25,10.25v13.85V161.14z"/>
	<path id="Path_83408" class="st0" d="M309.14,427.88c5.23,0,9.47-4.24,9.47-9.47V251.06c0-5.23-4.24-9.47-9.47-9.47
		c-5.23,0-9.47,4.24-9.47,9.47V418.4C299.66,423.63,303.9,427.88,309.14,427.88L309.14,427.88z M365.74,427.43
		c5.2,0.54,9.86-3.24,10.4-8.44c0-0.02,0-0.05,0.01-0.07l16.21-166.57c0.71-5.18-2.92-9.96-8.1-10.67
		c-5.18-0.71-9.96,2.92-10.67,8.1c-0.03,0.24-0.06,0.48-0.07,0.72l-16.21,166.57c-0.54,5.2,3.24,9.86,8.44,10.4
		c0.02,0,0.05,0,0.07,0.01L365.74,427.43z M251.59,427.43c5.23,0,9.47-4.25,9.47-9.48c0-0.31-0.02-0.62-0.05-0.93L244.8,250.46
		c-0.71-5.18-5.49-8.81-10.67-8.1c-4.91,0.67-8.47,5.01-8.17,9.95l16.21,166.57C242.64,423.72,246.72,427.43,251.59,427.43z"/>
</g>
</svg>
