<?xml version="1.0" encoding="utf-8"?>
<!-- Generator: Adobe Illustrator 27.1.1, SVG Export Plug-In . SVG Version: 6.00 Build 0)  -->
<svg version="1.1" id="Layer_1" xmlns="http://www.w3.org/2000/svg" xmlns:xlink="http://www.w3.org/1999/xlink" x="0px" y="0px"
	 viewBox="0 0 595.28 565.89" style="enable-background:new 0 0 595.28 565.89;" xml:space="preserve">
<style type="text/css">
	.st0{fill:#1A322E;}
</style>
<path id="Path_83614" class="st0" d="M326.69,368.13c-4.4,0.41-8.83-0.58-12.63-2.84c-2.78-2.85-4.11-6.8-3.63-10.75
	c0.1-3.29,0.5-6.57,1.18-9.79c0.65-3.68,1.5-7.33,2.53-10.93l11.54-39.73c1.19-3.92,1.97-7.96,2.34-12.04c0-4.37,0.59-7.43,0.59-9.2
	c0.25-7.85-3.1-15.38-9.09-20.45c-7.37-5.66-16.56-8.44-25.83-7.82c-6.68,0.09-13.31,1.18-19.67,3.23
	c-6.92,2.16-14.2,4.73-21.85,7.74l-3.32,12.92c2.19-0.79,4.98-1.66,8.13-2.64c2.99-0.89,6.08-1.35,9.2-1.38
	c4.37-0.47,8.77,0.6,12.43,3.04c2.49,2.96,3.66,6.82,3.23,10.66c-0.01,3.29-0.37,6.57-1.07,9.79c-0.68,3.42-1.57,7.07-2.64,10.93
	l-11.65,39.93c-0.92,3.71-1.65,7.47-2.19,11.25c-0.45,3.24-0.68,6.52-0.68,9.79c-0.05,7.9,3.57,15.39,9.79,20.26
	c7.49,5.75,16.8,8.6,26.22,8.02c6.67,0.15,13.31-0.81,19.67-2.84c5.55-1.89,12.95-4.6,22.2-8.13l3.13-12.33
	c-2.51,1.04-5.1,1.89-7.74,2.53c-3.34,0.76-6.77,1.05-10.18,0.87L326.69,368.13z M338.93,179.8c-11.21-9.78-27.93-9.78-39.14,0
	c-9.78,8.43-10.88,23.2-2.45,32.98c0.75,0.87,1.57,1.69,2.45,2.45c11.14,9.97,28,9.97,39.14,0c9.78-8.52,10.8-23.36,2.28-33.14
	C340.5,181.27,339.74,180.51,338.93,179.8z"/>
<path id="Path_83615" class="st0" d="M297.93,64.83c-118.88,0-215.25,96.37-215.25,215.25s96.37,215.25,215.25,215.25
	s215.25-96.37,215.25-215.25S416.81,64.83,297.93,64.83C297.93,64.83,297.93,64.83,297.93,64.83z M297.93,475.67
	c-108.07,0.05-195.71-87.52-195.76-195.59S189.69,84.37,297.76,84.32c108.07-0.05,195.71,87.52,195.76,195.59c0,0.06,0,0.12,0,0.17
	C493.47,388.08,405.93,475.62,297.93,475.67z"/>
</svg>
