<?xml version="1.0" encoding="utf-8"?>
<!-- Generator: Adobe Illustrator 27.1.1, SVG Export Plug-In . SVG Version: 6.00 Build 0)  -->
<svg version="1.1" id="Layer_1" xmlns="http://www.w3.org/2000/svg" xmlns:xlink="http://www.w3.org/1999/xlink" x="0px" y="0px"
	 viewBox="0 0 595.28 565.89" style="enable-background:new 0 0 595.28 565.89;" xml:space="preserve">
<style type="text/css">
	.st0{fill:#1A322E;}
</style>
<path id="Path_83621" class="st0" d="M317.03,485.14h-38.26c-12.94-0.02-23.83-9.7-25.38-22.54l-4.08-32.06
	c-8.07-2.62-15.92-5.87-23.48-9.72l-25.53,19.85c-10.2,7.99-24.77,7.06-33.87-2.16l-26.98-26.91c-9.18-9.12-10.05-23.68-2.01-33.83
	l19.85-25.55c-3.87-7.55-7.12-15.4-9.72-23.48l-32.13-4.08c-12.87-1.54-22.57-12.45-22.59-25.42v-38.26
	c0.02-12.95,9.71-23.84,22.57-25.37l32.06-4.08c2.62-8.07,5.87-15.92,9.72-23.48l-19.76-25.55c-8.03-10.22-7.07-24.85,2.23-33.94
	l26.76-26.91c9.13-9.17,23.69-10.02,33.83-1.98l25.53,19.85c7.56-3.89,15.42-7.17,23.5-9.81l4.1-32.13
	c1.57-12.83,12.45-22.48,25.38-22.5h38.29c12.96,0.01,23.86,9.7,25.4,22.57l4.08,32.06c8.08,2.62,15.94,5.87,23.5,9.72l25.51-19.76
	c10.22-8.01,24.83-7.05,33.92,2.23l26.85,26.76c9.24,9.06,10.2,23.61,2.23,33.8l-19.85,25.55c3.87,7.55,7.12,15.4,9.72,23.48
	l32.13,4.08c12.83,1.6,22.46,12.49,22.48,25.42v38.29c-0.01,12.96-9.7,23.86-22.57,25.4l-32.06,4.08
	c-2.62,8.07-5.87,15.92-9.72,23.48l19.85,25.53c8.01,10.22,7.05,24.83-2.23,33.92l-26.91,26.85c-9.1,9.2-23.67,10.1-33.83,2.07
	l-25.55-19.85c-7.55,3.87-15.4,7.12-23.48,9.72l-4.08,32.13C340.87,475.43,329.98,485.11,317.03,485.14z M224.94,402.1
	c1.46,0,2.89,0.37,4.17,1.07c9.59,5.34,19.75,9.56,30.3,12.58c3.28,0.94,5.68,3.75,6.11,7.14l4.79,37.59
	c0.52,4.29,4.13,7.52,8.45,7.58h38.29c4.28-0.05,7.87-3.25,8.43-7.49l4.79-37.66c0.43-3.39,2.83-6.19,6.11-7.14
	c10.55-3.02,20.72-7.24,30.3-12.58c2.99-1.67,6.69-1.39,9.39,0.71l29.9,23.23c3.33,2.66,8.12,2.41,11.15-0.58l27.14-27.09
	c3.08-3.04,3.36-7.9,0.67-11.28l-23.23-29.97c-2.1-2.7-2.38-6.4-0.71-9.39c5.34-9.59,9.56-19.75,12.58-30.3
	c0.94-3.28,3.75-5.68,7.14-6.11l37.59-4.79c4.28-0.54,7.5-4.14,7.58-8.45v-38.22c-0.05-4.28-3.25-7.87-7.49-8.43l-37.68-4.79
	c-3.39-0.43-6.19-2.83-7.14-6.11c-3.02-10.55-7.24-20.72-12.58-30.3c-1.68-2.99-1.39-6.69,0.71-9.39l23.23-29.9
	c2.67-3.32,2.43-8.11-0.56-11.15l-27.07-27.16c-3.03-3.1-7.91-3.38-11.28-0.67l-29.99,23.26c-2.71,2.11-6.41,2.39-9.41,0.71
	c-9.58-5.34-19.75-9.56-30.3-12.58c-3.28-0.94-5.68-3.75-6.11-7.14l-4.79-37.59c-0.53-4.28-4.13-7.53-8.45-7.6h-38.2
	c-4.27,0.05-7.85,3.22-8.43,7.45l-4.79,37.73c-0.44,3.38-2.84,6.18-6.11,7.14c-10.55,3.01-20.72,7.22-30.3,12.55
	c-2.99,1.68-6.7,1.41-9.41-0.69l-29.95-23.28c-3.32-2.67-8.11-2.43-11.15,0.56l-27.09,27.14c-3.08,3.04-3.36,7.9-0.67,11.28
	l23.23,29.9c2.1,2.7,2.38,6.4,0.71,9.39c-5.35,9.59-9.57,19.77-12.58,30.33c-0.94,3.28-3.75,5.68-7.14,6.11l-37.59,4.79
	c-4.29,0.52-7.52,4.13-7.58,8.45v38.29c0.05,4.28,3.25,7.87,7.49,8.43l37.66,4.79c3.39,0.43,6.19,2.83,7.14,6.11
	c3.02,10.55,7.24,20.72,12.58,30.3c1.68,2.99,1.39,6.69-0.71,9.39l-23.26,29.92c-2.67,3.32-2.43,8.11,0.56,11.15l27.11,27.11
	c3.04,3.08,7.9,3.36,11.28,0.67l29.9-23.23C221.2,402.74,223.04,402.12,224.94,402.1z"/>
<path id="Path_83622" class="st0" d="M297.9,391.57c-61.57,0-111.49-49.92-111.49-111.49S236.32,168.6,297.9,168.6
	s111.49,49.92,111.49,111.49C409.31,341.63,359.44,391.5,297.9,391.57z M297.9,190.89c-49.26,0-89.19,39.93-89.19,89.19
	s39.93,89.19,89.19,89.19s89.19-39.93,89.19-89.19S347.16,190.89,297.9,190.89z"/>
</svg>
