<?xml version="1.0" encoding="utf-8"?>
<!-- Generator: Adobe Illustrator 27.1.1, SVG Export Plug-In . SVG Version: 6.00 Build 0)  -->
<svg version="1.1" id="Layer_1" xmlns="http://www.w3.org/2000/svg" xmlns:xlink="http://www.w3.org/1999/xlink" x="0px" y="0px"
	 viewBox="0 0 595.28 565.89" style="enable-background:new 0 0 595.28 565.89;" xml:space="preserve">
<style type="text/css">
	.st0{fill:#1A322E;}
</style>
<g id="svgexport-17_-_2024-05-14T172435.456" transform="translate(0 -0.008)">
	<path id="Path_83618" class="st0" d="M500.49,275.85H339.46c-7.02,0-12.71-5.69-12.71-12.71c0-7.02,5.69-12.71,12.71-12.71l0,0
		h161.04c7.02,0,12.71,5.69,12.71,12.71C513.21,270.16,507.52,275.85,500.49,275.85z"/>
	<path id="Path_83619" class="st0" d="M436.92,339.4c-7.02,0-12.72-5.68-12.72-12.71c0-3.38,1.34-6.61,3.73-9l54.58-54.58
		l-54.56-54.58c-4.97-4.97-4.97-13.02,0-17.99c4.97-4.97,13.02-4.97,17.99,0l63.46,63.46c4.97,4.96,4.97,13.01,0.01,17.98
		c0,0,0,0.01-0.01,0.01l-63.46,63.46C443.59,337.94,440.34,339.36,436.92,339.4z M242.05,491.99c-3.56,0.01-7.1-0.52-10.5-1.58
		l-102.09-34.01c-13.78-4.74-23.05-17.68-23.09-32.26V119.04c0.02-18.71,15.19-33.87,33.9-33.9c3.57-0.01,7.12,0.52,10.53,1.58
		l102,33.98c13.77,4.73,23.04,17.67,23.09,32.23v305.14C275.87,476.77,260.75,491.93,242.05,491.99z M140.27,110.57
		c-4.67,0.01-8.46,3.8-8.47,8.47v305.12c0.05,3.69,2.4,6.95,5.89,8.16l101.54,33.83c0.89,0.26,1.82,0.39,2.76,0.37
		c4.67-0.01,8.46-3.8,8.47-8.47V152.93c-0.05-3.69-2.4-6.95-5.89-8.16l-101.52-33.83c-0.89-0.26-1.82-0.39-2.76-0.37L140.27,110.57z
		"/>
	<path id="Path_83620" class="st0" d="M364.88,220.75c-7.02,0-12.71-5.69-12.71-12.71c0,0,0,0,0,0v-76.29
		c-0.02-11.69-9.49-21.16-21.18-21.18H140.27c-7.02,0-12.71-5.69-12.71-12.71c0-7.02,5.69-12.71,12.71-12.71l0,0h190.71
		c25.73,0.02,46.59,20.88,46.61,46.61v76.29C377.6,215.06,371.91,220.75,364.88,220.75L364.88,220.75z M330.99,441.12h-67.84
		c-7.02,0-12.71-5.7-12.71-12.72c0-7.02,5.69-12.7,12.71-12.71h67.84c11.69-0.02,21.16-9.49,21.18-21.18v-76.29
		c-0.01-7.02,5.67-12.72,12.7-12.73s12.72,5.67,12.73,12.7c0,0.01,0,0.02,0,0.04v76.29C377.57,420.24,356.72,441.09,330.99,441.12z"
		/>
</g>
</svg>
