<?xml version="1.0" encoding="utf-8"?>
<!-- Generator: Adobe Illustrator 27.1.1, SVG Export Plug-In . SVG Version: 6.00 Build 0)  -->
<svg version="1.1" id="Layer_1" xmlns="http://www.w3.org/2000/svg" xmlns:xlink="http://www.w3.org/1999/xlink" x="0px" y="0px"
	 viewBox="0 0 595.28 565.89" style="enable-background:new 0 0 595.28 565.89;" xml:space="preserve">
<style type="text/css">
	.st0{fill:#1A322E;}
</style>
<g id="svgexport-17_-_2024-05-14T172218.044" transform="translate(0.002 -0.492)">
	<path id="Path_83617" class="st0" d="M171.57,499.84c-13.44,0.03-24.36-10.85-24.39-24.29c0-1.83,0.2-3.66,0.6-5.44l29.52-129.68
		l-99.81-87.53c-10.11-8.86-11.13-24.23-2.28-34.35c4.11-4.69,9.86-7.63,16.07-8.2l132.13-12l52.14-122.2
		c5.28-12.35,19.56-18.08,31.91-12.8c5.76,2.46,10.34,7.05,12.8,12.8l52.22,122.22l132.13,12c13.39,1.23,23.24,13.07,22.02,26.46
		c-0.57,6.2-3.49,11.95-8.17,16.06l-99.81,87.53l29.44,129.65c2.98,13.09-5.21,26.12-18.31,29.1c-6.1,1.39-12.5,0.37-17.87-2.84
		l-114-68.08l-113.87,68.1C180.27,498.64,175.96,499.84,171.57,499.84z M297.91,398.97c4.39,0,8.7,1.19,12.47,3.44l107.48,64.3
		l-27.77-122.33c-2.02-8.74,0.94-17.88,7.69-23.78l94.26-82.61l-124.71-11.31c-8.95-0.8-16.72-6.47-20.22-14.75L297.91,96.6
		l-49.29,115.35c-3.49,8.24-11.23,13.89-20.14,14.69l-124.71,11.31l94.24,82.64c6.76,5.9,9.72,15.04,7.69,23.78l-27.75,122.36
		l107.48-64.22c3.77-2.26,8.08-3.45,12.47-3.46V398.97z M222.33,200.77L222.33,200.77z M373.47,200.77L373.47,200.77z"/>
</g>
</svg>
