<?xml version="1.0" encoding="utf-8"?>
<!-- Generator: Adobe Illustrator 27.1.1, SVG Export Plug-In . SVG Version: 6.00 Build 0)  -->
<svg version="1.1" id="Layer_1" xmlns="http://www.w3.org/2000/svg" xmlns:xlink="http://www.w3.org/1999/xlink" x="0px" y="0px"
	 viewBox="0 0 595.28 565.89" style="enable-background:new 0 0 595.28 565.89;" xml:space="preserve">
<style type="text/css">
	.st0{fill:#1A322E;}
</style>
<path id="Path_83616" class="st0" d="M416.37,355.43c-20.1-0.03-39.28,8.44-52.81,23.31l-117.57-72.82c6.5-16.65,6.5-35.13,0-51.78
	l117.57-72.82c26.55,29.15,71.7,31.26,100.85,4.71c29.15-26.55,31.26-71.7,4.71-100.85s-71.7-31.26-100.85-4.71
	c-21.85,19.9-29.18,51.21-18.44,78.74l-117.59,72.86c-26.52-29.17-71.67-31.33-100.85-4.8s-31.33,71.67-4.8,100.85
	s71.67,31.33,100.85,4.8c1.68-1.52,3.28-3.13,4.8-4.8l117.57,72.82c-14.29,36.75,3.91,78.12,40.66,92.41
	c36.75,14.29,78.12-3.91,92.41-40.66c14.29-36.75-3.91-78.12-40.66-92.41c-8.25-3.21-17.03-4.86-25.89-4.86H416.37z M370.99,133.34
	c0-25.06,20.32-45.38,45.38-45.38c25.06,0,45.38,20.32,45.38,45.38s-20.32,45.38-45.38,45.38l0,0
	C391.32,178.7,371.02,158.39,370.99,133.34z M179.42,325.47c-25.06-0.01-45.37-20.34-45.35-45.4s20.34-45.37,45.4-45.35
	s45.37,20.34,45.35,45.4C224.79,305.17,204.47,325.46,179.42,325.47z M370.97,426.84c0-25.06,20.32-45.38,45.38-45.38
	c25.06,0,45.38,20.32,45.38,45.38c0,25.06-20.32,45.38-45.38,45.38C391.3,472.2,370.99,451.89,370.97,426.84z"/>
</svg>
