<?xml version="1.0" encoding="utf-8"?>
<!-- Generator: Adobe Illustrator 27.1.1, SVG Export Plug-In . SVG Version: 6.00 Build 0)  -->
<svg version="1.1" id="Layer_1" xmlns="http://www.w3.org/2000/svg" xmlns:xlink="http://www.w3.org/1999/xlink" x="0px" y="0px"
	 viewBox="0 0 595.28 565.89" style="enable-background:new 0 0 595.28 565.89;" xml:space="preserve">
<g id="Group_163224" transform="translate(0 -0.005)">
	<path id="Path_83698" d="M287.66,303.75l-15.29-22.12L147.85,100.62h53.58l100.7,146.32l15.29,22.12L448.56,459.6h-53.52
		L287.66,303.75z M96.72,73.63l28.98,42.24l128.56,186.78l15.29,22.12l103.38,150.16l8.04,11.62h118.66l-28.98-42.11L335.53,248.06
		l-15.29-22.12l-96.7-140.56l-8-11.75H96.72z"/>
	<path id="Path_83699" d="M254.26,302.65L96.24,486.55h34.19l139.02-161.72l18.1-21.08l-15.29-22.12L254.26,302.65z"/>
	<path id="Path_83700" d="M451.08,73.73l-29.34,33.97L320.23,225.86l-18.1,21.08l15.29,22.12l18.1-21.08L485.37,73.73H451.08z"/>
</g>
</svg>
