<?xml version="1.0" encoding="utf-8"?>
<!-- Generator: Adobe Illustrator 27.1.1, SVG Export Plug-In . SVG Version: 6.00 Build 0)  -->
<svg version="1.1" id="Layer_1" xmlns="http://www.w3.org/2000/svg" xmlns:xlink="http://www.w3.org/1999/xlink" x="0px" y="0px"
	 viewBox="0 0 595.28 565.89" style="enable-background:new 0 0 595.28 565.89;" xml:space="preserve">
<style type="text/css">
	.st0{fill:#A2926E;}
</style>
<g id="svgexport-17_-_2024-05-14T115018.746" transform="translate(0 -64)">
	<path id="Path_83479" class="st0" d="M482.92,177.55H112.95c-20.46,0-37.05,16.59-37.05,37.05v258.97
		c0,20.46,16.59,37.05,37.05,37.05h369.97c20.46,0,37.05-16.59,37.05-37.05V214.6C519.97,194.14,503.38,177.55,482.92,177.55z
		 M112.95,196.07h369.97c1.31,0.12,2.6,0.38,3.85,0.78c-32.03,29.32-138.21,126.49-175.43,159.99c-7.05,7.42-18.77,7.72-26.19,0.67
		c-0.23-0.22-0.45-0.44-0.67-0.67c-37.16-33.53-143.39-130.71-175.42-160.02C110.32,196.43,111.62,196.18,112.95,196.07z
		 M94.42,473.57V214.6c0.09-1.75,0.44-3.47,1.04-5.12c24.52,22.44,98.63,90.24,146.76,133.94
		c-48.06,41.11-122.16,111.4-146.85,134.97c-0.55-1.55-0.88-3.17-0.98-4.82H94.42z M482.95,492.1h-370
		c-1.42-0.11-2.82-0.39-4.17-0.84c25.53-24.35,100.14-95.04,147.21-135.36c5.38,4.88,10.76,9.76,16.16,14.62
		c14.35,14.02,37.27,14.02,51.62,0c5.4-4.86,10.79-9.74,16.17-14.63c47.02,40.25,121.66,110.94,147.21,135.36
		c-1.37,0.45-2.78,0.72-4.22,0.83L482.95,492.1z M501.47,473.57c-0.1,1.64-0.44,3.26-0.98,4.82
		c-24.72-23.58-98.84-93.86-146.76-135.01c48.06-43.7,122.17-111.5,146.76-133.94c0.6,1.65,0.95,3.37,1.04,5.12L501.47,473.57z"/>
</g>
</svg>
