<?xml version="1.0" encoding="utf-8"?>
<!-- Generator: Adobe Illustrator 27.1.1, SVG Export Plug-In . SVG Version: 6.00 Build 0)  -->
<svg version="1.1" id="Layer_1" xmlns="http://www.w3.org/2000/svg" xmlns:xlink="http://www.w3.org/1999/xlink" x="0px" y="0px"
	 viewBox="0 0 595.28 565.89" style="enable-background:new 0 0 595.28 565.89;" xml:space="preserve">
<style type="text/css">
	.st0{opacity:0.25;fill:url(#Path_1_00000036971732605563918380000014434638534201990273_);enable-background:new    ;}
	.st1{opacity:0.25;fill:url(#Path_2_00000010305860192334778220000007345880152739964581_);enable-background:new    ;}
	.st2{fill:url(#Path_3_00000073721309873231937120000000579186324370257045_);}
	.st3{opacity:0.4;fill:url(#Path_4_00000070796745671476144960000003373434508657909381_);enable-background:new    ;}
	.st4{fill:url(#Path_5_00000094585816691200586350000002819977005312048052_);}
	.st5{fill:url(#Path_6_00000100360948326020470570000015462760645648657576_);}
	.st6{fill:url(#Path_7_00000080169395355725313390000000087757585510613663_);}
	.st7{fill:#ECD8AA;}
	.st8{fill:#1A322E;}
	.st9{fill:url(#Rectangle_4_00000050660157247336513650000014215481802376824248_);}
	.st10{fill:url(#Rectangle_5_00000155829037802547388400000011635717580544346256_);}
	.st11{fill:#1D574E;}
	.st12{opacity:0.5;fill:url(#Path_10_00000167387711260814949590000007596588290157636749_);enable-background:new    ;}
	.st13{opacity:0.4;fill:#1A322E;enable-background:new    ;}
	.st14{opacity:0.5;fill:#1F429B;enable-background:new    ;}
	.st15{fill:#5091CD;}
	.st16{fill:#1F429B;}
	.st17{opacity:0.4;fill:#1F429B;enable-background:new    ;}
	.st18{opacity:0.5;fill:#5091CD;enable-background:new    ;}
	.st19{opacity:0.4;fill:#85CFC8;enable-background:new    ;}
	.st20{fill:#368BCA;}
	.st21{fill:#3C9889;}
	.st22{opacity:0.5;}
	.st23{fill:#A2926E;}
	.st24{fill:#43BFEE;}
	
		.st25{fill:url(#Path_34_00000088831512090146581380000014180313295765952917_);stroke:#707071;stroke-width:0.3987;stroke-miterlimit:10;}
	
		.st26{fill:url(#Path_35_00000121994210857840182190000017504842838422142878_);stroke:#707071;stroke-width:0.3987;stroke-miterlimit:10;}
	.st27{fill:url(#Path_36_00000122680786004470731910000006781121310362594440_);}
	.st28{fill:url(#Path_37_00000085931222957839498270000017332032234046595249_);}
	.st29{opacity:0.3;}
	.st30{fill:url(#Path_38_00000127728758384233458330000002337100069673526954_);}
	.st31{fill:url(#Path_39_00000128442804976517024120000014700883115534874520_);}
	.st32{fill:url(#Path_40_00000130623928782942672230000001689771428532415148_);}
	.st33{opacity:0.5;fill:#1A322E;enable-background:new    ;}
</style>
<g id="OBJECTS" transform="translate(-28.639 -76.48)">
	<g id="Group_30" transform="translate(28.639 76.48)">
		<g id="Group_1">
			
				<linearGradient id="Path_1_00000103253929700806362510000000964570512752281247_" gradientUnits="userSpaceOnUse" x1="1.1332" y1="699.8809" x2="2.6865" y2="699.8809" gradientTransform="matrix(318.6593 0 0 -242.5964 -317.6295 170063.6562)">
				<stop  offset="0" style="stop-color:#C4E0F5"/>
				<stop  offset="1" style="stop-color:#5091CD;stop-opacity:0"/>
			</linearGradient>
			
				<path id="Path_1" style="opacity:0.25;fill:url(#Path_1_00000103253929700806362510000000964570512752281247_);enable-background:new    ;" d="
				M549.11,251.23c6.05,11.77,7.25,25.44,3.35,38.09c-13.04,42.47-63.17,127.35-181.64,163.31
				c-143.77,43.64-247.71-11.57-289.01-58.02c-45.5-51.17-43.18-151.68-14.78-229.1c21.38-58.26,75.66-91.91,136.97-82.25
				C306.84,99.45,505.15,165.99,549.11,251.23z"/>
			
				<linearGradient id="Path_2_00000169525233895114054220000005353869198696002441_" gradientUnits="userSpaceOnUse" x1="1.1548" y1="699.8533" x2="2.7496" y2="699.8533" gradientTransform="matrix(310.149 0 0 -237.1939 -304.8637 166275.9844)">
				<stop  offset="0" style="stop-color:#C4E0F5"/>
				<stop  offset="1" style="stop-color:#5091CD;stop-opacity:0"/>
			</linearGradient>
			
				<path id="Path_2" style="opacity:0.25;fill:url(#Path_2_00000169525233895114054220000005353869198696002441_);enable-background:new    ;" d="
				M73.55,426.85c-10.41-8.18-17.2-20.1-18.92-33.22c-5.84-44.04,4.35-142.09,97.04-224.15c112.5-99.59,229.99-92.72,286.89-67.72
				c62.69,27.55,102.48,119.87,108.92,202.09c4.85,61.87-30.47,115.08-90.22,131.85C357.04,463.84,149.04,486.01,73.55,426.85z"/>
		</g>
		<g id="Group_4" transform="translate(36.821 44.466)">
			<g id="Group_2" transform="translate(40.661)">
				
					<linearGradient id="Path_3_00000139984597399707461500000008853069290638298754_" gradientUnits="userSpaceOnUse" x1="-75.0712" y1="654.5847" x2="-73.336" y2="653.1669" gradientTransform="matrix(72.1661 0 0 -120.4395 5520.4316 79003.7344)">
					<stop  offset="0" style="stop-color:#F7ECDE"/>
					<stop  offset="1" style="stop-color:#A2926E"/>
				</linearGradient>
				<path id="Path_3" style="fill:url(#Path_3_00000139984597399707461500000008853069290638298754_);" d="M207.66,256.91
					c0.41-12.02-4.72-24.2-14.75-31.2c-5.97-4.16-16.01-5.39-18.71-13.05c-2.32-6.59,0.74-13.81,0.82-20.54
					c0.03-12.09-5.68-23.49-15.38-30.71c-6.52-4.78-15.2-6.4-20.72-12.56c-5.09-5.68-6.75-13.48-9.15-20.51
					c-3.46-10.12-12.6-24.11-25.31-19.31c-10.76,4.06-12.71,18.15-11.6,28.03c0.39,3.53,1.16,7.02,2.29,10.39
					c1.31,3.89,3.52,7.47,4.61,11.42c1.35,4.34,1.82,8.91,1.38,13.43c-0.58,3.9-1.95,7.66-2.51,11.56
					c-2.07,14.39,3.58,28.73,12.01,40.2c5.6,7.64,9.77,13.95,9.99,23.74c0.17,7.6-0.95,15.28,0.61,22.81
					c3.07,14.83,15.56,24.9,29.53,29.03c0.37,0.11,0.76,0.05,1.09-0.15C178.4,304.02,205.62,284.2,207.66,256.91z"/>
				
					<linearGradient id="Path_4_00000023260646364006526330000016196084728302819492_" gradientUnits="userSpaceOnUse" x1="-75.0712" y1="654.5847" x2="-73.336" y2="653.1669" gradientTransform="matrix(72.1661 0 0 -120.4395 5520.4316 79003.7344)">
					<stop  offset="0" style="stop-color:#F7ECDE"/>
					<stop  offset="1" style="stop-color:#A2926E"/>
				</linearGradient>
				
					<path id="Path_4" style="opacity:0.4;fill:url(#Path_4_00000023260646364006526330000016196084728302819492_);enable-background:new    ;" d="
					M207.66,256.91c0.41-12.02-4.72-24.2-14.75-31.2c-5.97-4.16-16.01-5.39-18.71-13.05c-2.32-6.59,0.74-13.81,0.82-20.54
					c0.03-12.09-5.68-23.49-15.38-30.71c-6.52-4.78-15.2-6.4-20.72-12.56c-5.09-5.68-6.75-13.48-9.15-20.51
					c-3.46-10.12-12.6-24.11-25.31-19.31c-10.76,4.06-12.71,18.15-11.6,28.03c0.39,3.53,1.16,7.02,2.29,10.39
					c1.31,3.89,3.52,7.47,4.61,11.42c1.35,4.34,1.82,8.91,1.38,13.43c-0.58,3.9-1.95,7.66-2.51,11.56
					c-2.07,14.39,3.58,28.73,12.01,40.2c5.6,7.64,9.77,13.95,9.99,23.74c0.17,7.6-0.95,15.28,0.61,22.81
					c3.07,14.83,15.56,24.9,29.53,29.03c0.37,0.11,0.76,0.05,1.09-0.15C178.4,304.02,205.62,284.2,207.66,256.91z"/>
				
					<linearGradient id="Path_5_00000176002603080282098030000013960955430416711064_" gradientUnits="userSpaceOnUse" x1="-73.8381" y1="653.3085" x2="-73.8381" y2="654.511" gradientTransform="matrix(51.3521 0 0 -118.8367 3934.0093 77961.1875)">
					<stop  offset="0" style="stop-color:#A2926E"/>
					<stop  offset="1" style="stop-color:#F7ECDE"/>
				</linearGradient>
				<path id="Path_5" style="fill:url(#Path_5_00000176002603080282098030000013960955430416711064_);" d="M183.1,312.55
					c-5.85-14.32-11.68-28.64-17.48-42.97c0-0.02,0.02-0.03,0.02-0.05c5.01-13.06,8.17-26.76,9.37-40.7
					c0.16-1.82-2.69-1.83-2.85-0.02c-1.11,12.58-3.84,24.97-8.13,36.85c-4.92-12.14-9.83-24.29-14.72-36.44
					c0.09-0.11,0.16-0.24,0.21-0.37c5.11-13.51,8.53-27.6,10.18-41.95c0.21-1.81-2.64-1.82-2.85-0.01
					c-1.54,13.14-4.59,26.05-9.09,38.49c-4.59-11.39-9.16-22.78-13.73-34.18c3.07-9.69,5.35-19.62,6.83-29.67
					c0.26-1.79-2.47-2.58-2.74-0.77c-1.3,8.87-3.23,17.64-5.78,26.24c-4.55-11.35-9.08-22.71-13.61-34.07
					c0.13-0.15,0.23-0.32,0.29-0.5c2.17-6.29,4.06-12.66,5.65-19.12c0.44-1.78-2.3-2.55-2.74-0.77c-1.38,5.55-2.97,11.04-4.78,16.46
					c-3.03-7.61-6.06-15.22-9.09-22.83c-0.67-1.68-3.43-0.99-2.75,0.72c4.17,10.52,8.36,21.03,12.56,31.54
					c-4.7-3.8-9.52-7.45-14.46-10.94c-1.5-1.05-2.96,1.39-1.47,2.44c6.24,4.38,12.27,9.03,18.09,13.93
					c3.69,9.25,7.39,18.5,11.1,27.75c0.02,0.1,0.06,0.2,0.12,0.29c2.07,5.17,4.15,10.34,6.22,15.51
					c-11.15-5.64-21.62-12.53-31.21-20.53c-1.4-1.17-3.38,0.88-1.97,2.05c10.63,8.89,22.31,16.44,34.78,22.46
					c5.3,13.18,10.61,26.34,15.94,39.51l-26.79-12.85c-1.64-0.79-3.12,1.64-1.47,2.44l29.85,14.31c7.98,19.74,16,39.46,24.04,59.17
					C181.3,315.64,183.78,314.23,183.1,312.55z"/>
			</g>
			<g id="Group_3" transform="translate(0 37.033)">
				
					<linearGradient id="Path_6_00000020363085270883822420000011631128186268351913_" gradientUnits="userSpaceOnUse" x1="-35.0905" y1="617.9377" x2="-33.7301" y2="616.37" gradientTransform="matrix(106.349 0 0 -125.7042 3810.5488 77808.1172)">
					<stop  offset="0" style="stop-color:#F7ECDE"/>
					<stop  offset="1" style="stop-color:#A2926E"/>
				</linearGradient>
				<path id="Path_6" style="fill:url(#Path_6_00000020363085270883822420000011631128186268351913_);" d="M237.01,265.31
					c-3.31-13.48-12.81-25.41-26.14-30.04c-7.93-2.75-19.47-0.98-24.86-8.64c-4.64-6.59-3.5-15.57-5.51-23.08
					c-3.76-13.44-13.66-24.31-26.69-29.3c-8.74-3.28-18.89-2.35-26.95-7.47c-7.43-4.72-11.71-12.86-16.59-19.92
					c-7.01-10.16-21.54-22.84-34.16-13.53c-10.69,7.88-8.44,24.14-4.12,34.77c1.54,3.8,3.49,7.43,5.8,10.82
					c2.67,3.91,6.25,7.2,8.7,11.24c2.86,4.4,4.82,9.32,5.74,14.49c0.57,4.51,0.22,9.11,0.82,13.63
					c2.21,16.63,12.97,30.79,25.92,40.91c8.61,6.73,15.22,12.44,18.53,23.24c2.57,8.39,3.73,17.27,7.81,25.14
					c8.05,15.51,25.07,22.81,41.88,23c0.44,0,0.86-0.18,1.17-0.5C219.24,326.79,243.28,296.27,237.01,265.31z"/>
				
					<linearGradient id="Path_7_00000168092737816147232080000004376124707007912360_" gradientUnits="userSpaceOnUse" x1="-34.2137" y1="616.1094" x2="-34.2137" y2="617.5559" gradientTransform="matrix(89.5984 0 0 -113.9894 3219.2412 70556.625)">
					<stop  offset="0" style="stop-color:#A2926E"/>
					<stop  offset="1" style="stop-color:#F7ECDE"/>
				</linearGradient>
				<path id="Path_7" style="fill:url(#Path_7_00000168092737816147232080000004376124707007912360_);" d="M225.19,332.32
					c-10.33-13.25-20.64-26.51-30.94-39.78c0-0.02,0.01-0.04,0.01-0.06c1.48-16.08,0.7-32.28-2.32-48.14
					c-0.39-2.07-3.56-1.2-3.17,0.87c2.7,14.33,3.54,28.94,2.49,43.48c-9.27-11.95-18.52-23.91-27.75-35.88
					c0.06-0.15,0.1-0.31,0.11-0.48c1.45-16.61,0.84-33.33-1.81-49.79c-0.33-2.08-3.5-1.2-3.17,0.87c2.4,15.08,3.05,30.38,1.94,45.61
					c-8.66-11.21-17.31-22.44-25.94-33.67c0.38-11.73-0.19-23.46-1.7-35.1c-0.27-2.07-3.56-2.09-3.29,0
					c1.33,10.26,1.93,20.61,1.79,30.96c-8.6-11.19-17.19-22.39-25.77-33.59c0.1-0.2,0.15-0.43,0.16-0.65
					c0.45-7.67,0.55-15.34,0.3-23.01c-0.07-2.11-3.35-2.12-3.29,0c0.21,6.6,0.16,13.19-0.15,19.78
					c-5.75-7.51-11.5-15.01-17.24-22.52c-1.27-1.66-4.12-0.02-2.84,1.66c7.93,10.38,15.86,20.74,23.82,31.1
					c-6.41-2.75-12.9-5.31-19.49-7.63c-2-0.7-2.86,2.47-0.87,3.17c8.29,2.92,16.44,6.19,24.45,9.81c6.99,9.12,14,18.24,21.01,27.35
					c0.06,0.11,0.14,0.2,0.22,0.29c3.92,5.1,7.84,10.19,11.76,15.28c-14.15-2.78-27.93-7.15-41.09-13.04
					c-1.91-0.86-3.48,2.03-1.55,2.9c14.58,6.55,29.92,11.28,45.67,14.07c10,12.98,20.03,25.95,30.06,38.9l-33.79-5.89
					c-2.07-0.36-2.96,2.81-0.87,3.17l37.64,6.56c13.8,17.82,27.63,35.62,41.48,53.4L225.19,332.32z"/>
			</g>
		</g>
		<g id="Group_5" transform="translate(216.461 88.407)">
			<circle id="Ellipse_1" class="st7" cx="209.88" cy="154.96" r="20.76"/>
			<path id="Path_8" class="st7" d="M184.02,134.2c0,4.84-3.92,8.76-8.76,8.76c4.84,0,8.76,3.92,8.76,8.76
				c0-4.84,3.92-8.76,8.76-8.76c0,0,0,0,0,0C187.95,142.96,184.03,139.04,184.02,134.2z"/>
		</g>
		<g id="Group_12" transform="translate(97.889 109.971)">
			<g id="Group_6" transform="translate(43.419 13.433)">
				<rect id="Rectangle_2" x="130.56" y="155.02" class="st8" width="18.28" height="34.72"/>
				<rect id="Rectangle_3" x="180.91" y="155.02" class="st8" width="18.28" height="34.72"/>
			</g>
			<g id="Group_7" transform="translate(43.419 16.819)">
				
					<linearGradient id="Rectangle_4_00000101094421823786827570000008177008926302187430_" gradientUnits="userSpaceOnUse" x1="-128.2115" y1="559.4711" x2="-128.2115" y2="561.9638" gradientTransform="matrix(11.464 0 0 -21.769 1609.5189 12372.5391)">
					<stop  offset="0" style="stop-color:#1A322E"/>
					<stop  offset="0.995" style="stop-color:#1F429B"/>
					<stop  offset="1" style="stop-color:#1F429B"/>
				</linearGradient>
				
					<rect id="Rectangle_4" x="130.56" y="157.03" style="fill:url(#Rectangle_4_00000101094421823786827570000008177008926302187430_);" width="18.28" height="34.72"/>
				
					<linearGradient id="Rectangle_5_00000039092340434981397450000012763420804254601399_" gradientUnits="userSpaceOnUse" x1="-126.5735" y1="559.4711" x2="-126.5735" y2="561.9638" gradientTransform="matrix(11.464 0 0 -21.769 1641.0889 12372.5391)">
					<stop  offset="0" style="stop-color:#1A322E"/>
					<stop  offset="0.995" style="stop-color:#1F429B"/>
					<stop  offset="1" style="stop-color:#1F429B"/>
				</linearGradient>
				
					<rect id="Rectangle_5" x="180.91" y="157.03" style="fill:url(#Rectangle_5_00000039092340434981397450000012763420804254601399_);" width="18.28" height="34.72"/>
			</g>
			<path id="Path_9" class="st11" d="M242.61,191.21h-68.63l-57.27,64.6c-1.62,1.82-2.51,4.17-2.51,6.61v33.08
				c0,5.5,4.46,9.96,9.96,9.96h168.27c5.5,0,9.96-4.46,9.96-9.96v-33.08c0-2.44-0.89-4.79-2.51-6.61L242.61,191.21z"/>
			
				<linearGradient id="Path_10_00000089552081917834201690000008510571714400338595_" gradientUnits="userSpaceOnUse" x1="-95.1829" y1="586.7095" x2="-95.1829" y2="585.1514" gradientTransform="matrix(118.007 0 0 -71.642 11440.54 42272.332)">
				<stop  offset="0" style="stop-color:#1D574E;stop-opacity:0"/>
				<stop  offset="0.995" style="stop-color:#1D574E"/>
				<stop  offset="1" style="stop-color:#1F429B"/>
			</linearGradient>
			
				<path id="Path_10" style="opacity:0.5;fill:url(#Path_10_00000089552081917834201690000008510571714400338595_);enable-background:new    ;" d="
				M242.61,191.21h-68.63l-57.27,64.6c-1.62,1.82-2.51,4.17-2.51,6.61v33.08c0,5.5,4.46,9.96,9.96,9.96h168.27
				c5.5,0,9.96-4.46,9.96-9.96v-33.08c0-2.44-0.89-4.79-2.51-6.61L242.61,191.21z"/>
			<g id="Group_8">
				<path id="Path_11" class="st11" d="M258.75,147.03H124.98c-8.81,0-15.95,7.14-15.95,15.95v26.9h48.55v-15.95h101.16v15.95h48.55
					v-26.9c0-8.81-7.14-15.95-15.95-15.95H258.75z"/>
				<path id="Rectangle_6" class="st8" d="M106.47,178.41h53.33c0.96,0,1.73,0.77,1.73,1.73v14.48c0,0.96-0.77,1.73-1.73,1.73
					h-53.33c-0.96,0-1.73-0.77-1.73-1.73v-14.48C104.74,179.19,105.51,178.41,106.47,178.41z"/>
				<path id="Rectangle_7" class="st8" d="M256.79,178.41h53.33c0.96,0,1.73,0.77,1.73,1.73v14.48c0,0.96-0.77,1.73-1.73,1.73
					h-53.33c-0.96,0-1.73-0.77-1.73-1.73v-14.48C255.06,179.19,255.84,178.41,256.79,178.41z"/>
				<path id="Rectangle_8" class="st13" d="M106.47,178.41h53.33c0.96,0,1.73,0.77,1.73,1.73v14.48c0,0.96-0.77,1.73-1.73,1.73
					h-53.33c-0.96,0-1.73-0.77-1.73-1.73v-14.48C104.74,179.19,105.51,178.41,106.47,178.41z"/>
				<path id="Rectangle_9" class="st13" d="M256.79,178.41h53.33c0.96,0,1.73,0.77,1.73,1.73v14.48c0,0.96-0.77,1.73-1.73,1.73
					h-53.33c-0.96,0-1.73-0.77-1.73-1.73v-14.48C255.06,179.19,255.84,178.41,256.79,178.41z"/>
			</g>
			<g id="Group_11" transform="translate(44.942 48.111)">
				<path id="Path_12" class="st14" d="M141.18,186.61c-12.65,12.25-12.98,32.43-0.74,45.09c12.25,12.65,32.43,12.98,45.09,0.74
					c12.65-12.25,12.98-32.43,0.74-45.09l0,0C174.02,174.69,153.83,174.36,141.18,186.61z M174.97,221.52
					c-6.63,6.41-17.2,6.24-23.61-0.38c-6.41-6.63-6.24-17.2,0.38-23.61c6.63-6.41,17.2-6.24,23.61,0.38
					C181.77,204.53,181.59,215.11,174.97,221.52C174.97,221.52,174.97,221.52,174.97,221.52z"/>
				<path id="Path_13" class="st15" d="M141.18,184.62c-12.65,12.25-12.98,32.43-0.74,45.09c12.25,12.65,32.43,12.98,45.09,0.74
					c12.65-12.25,12.98-32.43,0.74-45.09l0,0C174.02,172.7,153.83,172.37,141.18,184.62z M174.97,219.53
					c-6.63,6.41-17.2,6.24-23.61-0.38c-6.42-6.63-6.24-17.2,0.38-23.61c6.63-6.42,17.2-6.24,23.61,0.38c0,0,0,0,0,0
					C181.77,202.54,181.59,213.11,174.97,219.53C174.97,219.53,174.97,219.53,174.97,219.53z"/>
				<g id="Group_9" transform="translate(1.95 2.034)">
					<path id="Path_14" class="st16" d="M174.35,226.43c-1.86-1.92-1.81-4.99,0.11-6.85c1.92-1.86,4.99-1.81,6.85,0.11
						c1.86,1.92,1.81,4.99-0.11,6.85c0,0,0,0,0,0C179.28,228.4,176.21,228.35,174.35,226.43
						C174.35,226.43,174.35,226.43,174.35,226.43z"/>
					<circle id="Ellipse_2" class="st16" cx="162.29" cy="229.5" r="4.84"/>
					<path id="Path_15" class="st16" d="M142.65,221.29c1.62-2.13,4.66-2.54,6.79-0.91c2.13,1.62,2.54,4.66,0.91,6.79
						c-1.62,2.13-4.66,2.54-6.79,0.91c0,0,0,0,0,0C141.44,226.45,141.03,223.41,142.65,221.29
						C142.65,221.29,142.65,221.29,142.65,221.29z"/>
					<path id="Path_16" class="st16" d="M136.47,205.21c2.62-0.56,5.19,1.12,5.74,3.73c0.56,2.62-1.12,5.19-3.73,5.74
						c-2.62,0.55-5.19-1.12-5.74-3.73c0,0,0,0,0,0C132.18,208.34,133.85,205.77,136.47,205.21z"/>
					<path id="Path_17" class="st16" d="M142.26,189c2.34,1.29,3.2,4.23,1.92,6.58c-1.29,2.34-4.23,3.2-6.58,1.92
						c-2.34-1.29-3.2-4.23-1.92-6.58c0,0,0,0,0,0C136.97,188.57,139.92,187.71,142.26,189C142.26,189,142.26,189,142.26,189z"/>
					<path id="Path_18" class="st16" d="M157.23,180.48c0.94,2.5-0.33,5.3-2.83,6.24c-2.5,0.94-5.3-0.33-6.24-2.83
						c-0.94-2.5,0.33-5.3,2.83-6.24C153.49,176.71,156.29,177.98,157.23,180.48C157.23,180.48,157.23,180.48,157.23,180.48z"/>
					<circle id="Ellipse_3" class="st16" cx="169.58" cy="182.12" r="4.84"/>
					<path id="Path_19" class="st16" d="M184.48,197c-2.34,1.3-5.29,0.47-6.59-1.87c-1.3-2.34-0.47-5.29,1.87-6.59
						c2.34-1.3,5.29-0.47,6.59,1.87c0,0,0,0,0,0C187.65,192.74,186.82,195.69,184.48,197z"/>
					<path id="Path_20" class="st16" d="M184.38,212.54c-2.62-0.53-4.31-3.09-3.78-5.71c0.53-2.62,3.09-4.31,5.71-3.78
						c2.62,0.53,4.31,3.09,3.78,5.71c0,0,0,0,0,0C189.56,211.38,187,213.07,184.38,212.54z"/>
				</g>
				<g id="Group_10" transform="translate(29.412 24.577)">
					<path id="Path_21" class="st16" d="M161.67,198.71l-12.71-8.45l14.34,5.15C163.3,195.41,162.3,197.65,161.67,198.71z"/>
					<path id="Path_22" class="st17" d="M161.67,198.71l-12.71-8.45l14.34,5.15C163.3,195.41,162.3,197.65,161.67,198.71z"/>
				</g>
			</g>
		</g>
		<g id="Group_20" transform="translate(44.903 141.098)">
			<path id="Path_23" class="st15" d="M73.22,222.96l41.28-37.71l41.29,37.71v34.46H73.22V222.96z"/>
			<path id="Path_24" class="st18" d="M73.22,222.96l41.28-37.71l41.29,37.71v34.46H73.22V222.96z"/>
			<g id="Group_14" transform="translate(0.967)">
				<path id="Path_25" class="st15" d="M73.79,165.54h64.24l13.53,13.54v77.78H73.79V165.54z"/>
				<path id="Path_26" class="st19" d="M73.79,165.54h64.24l13.53,13.54v77.78H73.79V165.54z"/>
				<path id="Path_27" class="st15" d="M138.04,179.08h13.53l-13.53-13.53V179.08z"/>
				<g id="Group_13" transform="translate(13.405 15.614)">
					<path id="Path_28" class="st20" d="M116.78,190.78c0,6.55-3,10.28-7.5,10.28c-2.2,0.19-4.26-1.11-5.01-3.19
						c-1.35,2.13-3.74,3.35-6.26,3.19c-4.72,0-8.45-3.73-8.45-9.25c0-5.49,3.7-9.22,8.45-9.22c2.15-0.1,4.23,0.79,5.63,2.41v-2.16
						h4.98v11.85c0,1.75,0.77,2.34,1.75,2.34c1.68,0,2.71-1.94,2.71-6.18c0-7.43-5.49-12.55-13.61-12.55
						c-8.16,0-13.61,5.56-13.61,13.21c0,7.79,5.34,13.32,13.46,13.32c2.49,0.01,4.96-0.54,7.21-1.61l1.17,3.37
						c-2.63,1.19-5.49,1.79-8.38,1.75c-10.57,0-17.56-7.18-17.56-16.83c0-9.55,7.06-16.68,17.7-16.68
						C109.76,174.82,116.78,181.6,116.78,190.78z M103.72,191.8c0.22-2.52-1.64-4.73-4.15-4.95c-2.52-0.22-4.73,1.64-4.95,4.15
						c-0.02,0.27-0.02,0.53,0,0.8c0,3.15,1.87,5.05,4.54,5.05c2.5,0.05,4.56-1.94,4.6-4.44
						C103.75,192.21,103.74,192.01,103.72,191.8z"/>
				</g>
			</g>
			<path id="Path_29" class="st11" d="M155.79,272.31H73.22v-49.35l41.28,23.67l41.29-23.67V272.31z"/>
			<path id="Path_30" class="st21" d="M155.79,274.33H73.22v-51.38l41.28,25.69l41.29-25.69V274.33z"/>
			<g id="Group_19" transform="translate(2.33 52.828)">
				<g id="Group_16" transform="translate(30.987)">
					<g id="Group_15" class="st22">
						<path id="Path_31" class="st15" d="M118.75,219.09c0,0-1.77-1.19-4.31-3.13c-1.28-0.96-2.73-2.11-4.27-3.37
							c-0.77-0.64-1.57-1.28-2.37-1.95l-2.41-2.04l-2.38-2.08c-0.8-0.68-1.54-1.38-2.28-2.05c-1.47-1.34-2.83-2.61-3.97-3.72
							c-2.29-2.21-3.73-3.79-3.73-3.79s1.77,1.19,4.31,3.13c1.28,0.96,2.73,2.11,4.27,3.37c0.77,0.64,1.57,1.28,2.37,1.95l2.41,2.04
							l2.38,2.08c0.79,0.68,1.54,1.39,2.28,2.05c1.47,1.34,2.82,2.61,3.97,3.72C117.31,217.51,118.75,219.09,118.75,219.09z"/>
					</g>
				</g>
				<g id="Group_18">
					<g id="Group_17" class="st22">
						<path id="Path_32" class="st15" d="M74.6,219.09c0,0,1.44-1.58,3.74-3.78c1.14-1.12,2.49-2.38,3.97-3.72
							c0.74-0.66,1.49-1.37,2.28-2.05l2.38-2.08l2.41-2.04c0.8-0.68,1.59-1.32,2.37-1.95c1.54-1.26,3-2.4,4.27-3.37
							c2.53-1.94,4.31-3.13,4.31-3.13s-1.44,1.58-3.73,3.79c-1.14,1.12-2.5,2.38-3.97,3.72c-0.74,0.66-1.49,1.37-2.28,2.05
							l-2.38,2.08l-2.42,2.04c-0.8,0.68-1.59,1.32-2.37,1.95c-1.54,1.26-3,2.4-4.27,3.37C76.38,217.9,74.6,219.09,74.6,219.09z"/>
					</g>
				</g>
			</g>
		</g>
		<g id="Group_22" transform="translate(129.289 27.663)">
			<path id="Path_33" class="st21" d="M248.98,110.89c-28.5-18.74-106.33-21.12-119.9,21.62c-13.57,42.73,0,60.83,12.07,64.85
				c8.61,2.87,34.23,6.85,61.11,6.63c2.61,6.35,0.1,14.99,0.1,14.99c6.54-2.87,10.33-10.78,12.06-15.4c1.9-0.11,3.79-0.25,5.68-0.41
				c14.02-1.55,39.31-7.85,46.61-25.93C274.86,157.01,273.85,127.25,248.98,110.89z"/>
			<g id="Group_21" transform="translate(17.851 27.78)">
				<circle id="Ellipse_4" class="st23" cx="212.37" cy="127.16" r="8.89"/>
				<circle id="Ellipse_5" class="st23" cx="179.49" cy="127.16" r="8.89"/>
				<circle id="Ellipse_6" class="st23" cx="146.6" cy="127.16" r="8.89"/>
			</g>
		</g>
		<g id="Group_24" transform="translate(256.418 109.97)">
			<circle id="Ellipse_7" class="st24" cx="222.24" cy="170.23" r="23.21"/>
			<g id="Group_23" transform="translate(12.139 5.099)">
				<rect id="Rectangle_10" x="206.25" y="158.75" class="st24" width="7.7" height="21.46"/>
				<rect id="Rectangle_11" x="206.25" y="150.06" class="st24" width="7.7" height="6.58"/>
			</g>
		</g>
		<g id="Group_29" transform="translate(222.749 128.356)">
			
				<linearGradient id="Path_34_00000029019012853077586280000001522017164040022170_" gradientUnits="userSpaceOnUse" x1="-211.2131" y1="559.7722" x2="-209.6183" y2="559.7722" gradientTransform="matrix(16.8922 0 0 -25.2791 3746.8586 14387.418)">
				<stop  offset="0" style="stop-color:#F7ECDE"/>
				<stop  offset="1" style="stop-color:#A2926E"/>
			</linearGradient>
			
				<path id="Path_34" style="fill:url(#Path_34_00000029019012853077586280000001522017164040022170_);stroke:#707071;stroke-width:0.3987;stroke-miterlimit:10;" d="
				M205.56,254.9c-2-5.46-6.91-9.26-11.7-12.56c-4.79-3.3-9.9-6.62-12.71-11.72c-1.84-3.36-2.52-7.22-1.96-11
				c0.04-0.54,0.23-1.05,0.55-1.49c0.28-0.3,0.63-0.53,1.02-0.67c4-1.71,8.81-0.3,12.12,2.52c3.16,3.01,5.56,6.73,7,10.85
				c3.42,8.35,5.46,17.19,6.06,26.19"/>
			
				<linearGradient id="Path_35_00000079485182880174768670000008922789442641966727_" gradientUnits="userSpaceOnUse" x1="-212.4094" y1="563.0916" x2="-210.8146" y2="563.0916" gradientTransform="matrix(20.4933 0 0 -33.978 4567.979 19369.5859)">
				<stop  offset="0" style="stop-color:#F7ECDE"/>
				<stop  offset="1" style="stop-color:#A2926E"/>
			</linearGradient>
			
				<path id="Path_35" style="fill:url(#Path_35_00000079485182880174768670000008922789442641966727_);stroke:#707071;stroke-width:0.3987;stroke-miterlimit:10;" d="
				M215,261.83c1.41-13.58,5.34-26.78,11.59-38.91c3.03-5.87,7.38-12.02,13.91-13.01c1.6-0.32,3.26-0.06,4.68,0.75
				c1.76,1.31,2.7,3.44,2.47,5.62c-0.25,2.14-0.94,4.2-2.03,6.06c-3.49,6.69-8.15,12.71-13.76,17.76c-3.22,2.62-6.3,5.41-9.22,8.36
				c-3.89,4.36-6.44,9.74-7.35,15.5"/>
			
				<linearGradient id="Path_36_00000008866315298274849660000005110580944051579279_" gradientUnits="userSpaceOnUse" x1="-208.4011" y1="568.0844" x2="-207.087" y2="568.0844" gradientTransform="matrix(14.0637 0 0 -68.4915 3133.0515 39121.5078)">
				<stop  offset="0" style="stop-color:#FCDA43"/>
				<stop  offset="1" style="stop-color:#E4A124"/>
			</linearGradient>
			<path id="Path_36" style="fill:url(#Path_36_00000008866315298274849660000005110580944051579279_);" d="M212.88,157.97
				c-5.41-0.22-7.96,7.46-9.35,11.55c-3.04,8.92-3.37,18.62-3.04,27.95c0.8,21.5,3.61,42.88,8.4,63.86c0.07,0.52,0.53,0.9,1.06,0.88
				c0.03,1.35,0.08,2.7,0.17,4.04c0.07,1.04,1.62,1.37,1.9,0.26c5.21-21.07,7.61-43.88,9.47-65.51
				C222.12,193.5,227.01,158.53,212.88,157.97z"/>
			
				<linearGradient id="Path_37_00000109716085068971216410000013692094037684826753_" gradientUnits="userSpaceOnUse" x1="-208.4011" y1="568.0844" x2="-207.087" y2="568.0844" gradientTransform="matrix(14.0637 0 0 -68.4915 3133.0515 39121.5078)">
				<stop  offset="0" style="stop-color:#F7ECDE"/>
				<stop  offset="1" style="stop-color:#A2926E"/>
			</linearGradient>
			<path id="Path_37" style="fill:url(#Path_37_00000109716085068971216410000013692094037684826753_);" d="M212.88,157.97
				c-5.41-0.22-7.96,7.46-9.35,11.55c-3.04,8.92-3.37,18.62-3.04,27.95c0.8,21.5,3.61,42.88,8.4,63.86c0.07,0.52,0.53,0.9,1.06,0.88
				c0.03,1.35,0.08,2.7,0.17,4.04c0.07,1.04,1.62,1.37,1.9,0.26c5.21-21.07,7.61-43.88,9.47-65.51
				C222.12,193.5,227.01,158.53,212.88,157.97z"/>
			<g id="Group_25" transform="translate(3.961 40.188)" class="st29">
				
					<linearGradient id="Path_38_00000070093599687937161530000017631602278507489692_" gradientUnits="userSpaceOnUse" x1="-212.8452" y1="517.9779" x2="-211.3222" y2="517.9779" gradientTransform="matrix(14.0629 0 0 -22.5738 3175.1685 11892.6055)">
					<stop  offset="0" style="stop-color:#F7ECDE"/>
					<stop  offset="1" style="stop-color:#A2926E"/>
				</linearGradient>
				<path id="Path_38" style="fill:url(#Path_38_00000070093599687937161530000017631602278507489692_);" d="M203.78,217.23
					c-2.14-14.16-9.88-26.87-21.49-35.27c-0.56-0.4-1.28,0.52-0.74,0.96c11.05,9.14,18.47,20.36,21.24,34.58
					C202.92,218.15,203.89,217.86,203.78,217.23L203.78,217.23z"/>
			</g>
			<g id="Group_26" transform="translate(21.303 37.817)" class="st29">
				
					<linearGradient id="Path_39_00000111167631213851943280000014387908016796668860_" gradientUnits="userSpaceOnUse" x1="-231.5697" y1="523.0765" x2="-230.0386" y2="523.0765" gradientTransform="matrix(16.6612 0 0 -27.7843 4050.5725 14735.9404)">
					<stop  offset="0" style="stop-color:#A2926E"/>
					<stop  offset="1" style="stop-color:#F7ECDE"/>
				</linearGradient>
				<path id="Path_39" style="fill:url(#Path_39_00000111167631213851943280000014387908016796668860_);" d="M193.12,224.27
					c5.8-15.87,15.16-29.63,25.05-43.16c0.3-0.41-0.36-0.9-0.7-0.54c-11.55,12.54-19.2,27.75-25.74,43.31
					C191.38,224.73,192.8,225.16,193.12,224.27L193.12,224.27z"/>
			</g>
			<g id="Group_27" transform="translate(19.267 8.566)" class="st29">
				
					<linearGradient id="Path_40_00000149341381336882164750000010971033207073111215_" gradientUnits="userSpaceOnUse" x1="-139.9377" y1="557.6926" x2="-139.9377" y2="559.3369" gradientTransform="matrix(1.889 0 0 -56.6915 456.317 31871.7227)">
					<stop  offset="0" style="stop-color:#A2926E"/>
					<stop  offset="1" style="stop-color:#F7ECDE"/>
				</linearGradient>
				<path id="Path_40" style="fill:url(#Path_40_00000149341381336882164750000010971033207073111215_);" d="M193.28,252.63
					c0.15-14.83-0.19-29.66-0.3-44.48c-0.1-14.68,1.16-29.85,0.01-44.47c-0.05-0.65-1.12-0.92-1.24-0.16
					c-2.13,13.98-1.02,28.96-0.86,43.07c0.17,15.35,0.38,30.7,0.64,46.05c0.02,0.48,0.43,0.85,0.91,0.83
					C192.89,253.45,193.25,253.09,193.28,252.63L193.28,252.63z"/>
			</g>
			<g id="Group_28" transform="translate(8.446 59.74)">
				<path id="Path_41" class="st11" d="M221.23,227.34h-32.55l-1.66-29.24h35.87L221.23,227.34z"/>
				<rect id="Rectangle_12" x="184.03" y="193.49" class="st8" width="41.85" height="10.08"/>
				<rect id="Rectangle_13" x="184.03" y="193.49" class="st33" width="41.85" height="10.08"/>
			</g>
		</g>
	</g>
</g>
</svg>
