<?xml version="1.0" encoding="utf-8"?>
<!-- Generator: Adobe Illustrator 27.1.1, SVG Export Plug-In . SVG Version: 6.00 Build 0)  -->
<svg version="1.1" id="Layer_1" xmlns="http://www.w3.org/2000/svg" xmlns:xlink="http://www.w3.org/1999/xlink" x="0px" y="0px"
	 viewBox="0 0 595.28 565.89" style="enable-background:new 0 0 595.28 565.89;" xml:space="preserve">
<style type="text/css">
	.st0{fill:#1A322E;stroke:#1A322E;stroke-width:7.349;}
</style>
<g id="Group_163223" transform="translate(-57.253 -736.16)">
	<path id="Path_83696" class="st0" d="M354.74,1201.44c-35.63,0.05-70.5-10.24-100.39-29.63l-68.16,21.77
		c-1.9,0.61-3.94-0.44-4.55-2.34c-0.24-0.74-0.23-1.53,0.02-2.26l22.05-65.63c-22.32-31.19-34.27-68.61-34.17-106.96
		c-0.08-102.28,82.77-185.26,185.05-185.34s185.26,82.77,185.34,185.05s-82.77,185.26-185.05,185.34
		C354.83,1201.44,354.78,1201.44,354.74,1201.44 M254.79,1164.22c0.71,0,1.41,0.21,2,0.6c82.02,53.92,192.22,31.13,246.14-50.89
		s31.13-192.22-50.89-246.14s-192.22-31.13-246.14,50.89c-19.07,29.01-29.23,62.97-29.21,97.69
		c-0.12,37.45,11.73,73.96,33.81,104.21c0.68,0.95,0.87,2.17,0.5,3.28l-20.2,60.64l63-20.11c0.36-0.12,0.73-0.18,1.1-0.18"/>
	<path id="Path_83697" class="st0" d="M414.37,1121.6c-18.95-1.71-37.44-6.84-54.56-15.14c-37.14-17.45-68.62-44.99-90.86-79.47
		c-0.5-0.72-0.84-1.22-1.03-1.47l-0.28-0.38c-12.81-16.23-20.49-35.91-22.05-56.53c-0.49-17.42,6.46-34.22,19.11-46.21l0.46-0.47
		c5.78-5.21,13.38-7.94,21.15-7.58c2.12,0,4.04,0.09,5.78,0.18h0.47c6.33,0.28,10.51,1.16,14.7,11.19
		c1.37,3.28,3.32,8.03,5.42,13.11c4.41,10.79,9.99,24.22,10.83,25.99c2.29,3.99,2.56,8.82,0.72,13.04
		c-1.49,3.14-3.48,6.03-5.88,8.54l-0.43,0.5c-1.16,1.34-2.29,2.54-3.44,3.75c-1.47,1.59-2.94,3.1-4.41,4.89
		c-2.7,3.17-3.48,4.41-1.81,7.2c7.76,13.25,17.44,25.28,28.73,35.69c11.64,10.72,25.17,19.19,39.89,24.99l1.68,0.69
		c2.91,1.41,6.37,0.95,8.82-1.16c4.24-4.96,8.2-10.15,11.86-15.55l2.03-2.84c2.45-3.92,6.72-6.33,11.35-6.39
		c2.01,0.03,4.01,0.42,5.88,1.16c5.54,1.93,35.28,16.68,36.51,17.31l3.03,1.47c3.43,1.14,6.44,3.28,8.64,6.14
		c2.07,9.42,1.09,19.26-2.81,28.09c-7.81,14.65-21.88,24.94-38.21,27.93c-3.67,0.85-7.42,1.28-11.19,1.29 M286.36,921.57
		c-5.82-0.31-11.54,1.63-15.98,5.42l-0.47,0.49c-11.35,10.62-17.56,25.62-17.05,41.15c1.54,19.06,8.7,37.24,20.58,52.24l0.25,0.35
		c0.18,0.22,0.57,0.81,1.18,1.68c21.45,33.34,51.83,59.99,87.69,76.9c16.26,7.91,33.8,12.85,51.8,14.58
		c3.25-0.02,6.49-0.39,9.66-1.13c13.87-2.57,25.92-11.07,32.98-23.28c2.89-7.06,4.02-14.71,3.31-22.3
		c-1.65-1.29-3.48-2.33-5.44-3.09c-0.96-0.46-2-0.96-3.12-1.47c-11.76-5.88-31.89-15.65-35.73-16.98c-1.09-0.44-2.25-0.69-3.42-0.72
		c-2.29,0.06-4.37,1.34-5.45,3.35l-2.03,2.84c-3.84,5.67-8,11.11-12.46,16.3c-2.69,2.79-6.42,4.32-10.29,4.23
		c-2.26-0.01-4.5-0.47-6.58-1.34l-1.62-0.66c-15.47-6.15-29.68-15.08-41.95-26.32c-11.85-10.91-22.02-23.53-30.16-37.44
		c-3.09-4.99-2.09-11.48,2.35-15.32c1.72-2.12,3.29-3.79,4.82-5.41c1.07-1.13,2.15-2.26,3.23-3.53l0.44-0.5
		c2-2.04,3.66-4.4,4.89-6.98c0.88-2.22,0.6-4.73-0.75-6.7c-0.87-1.82-5.1-12.07-10.99-26.35l-5.41-13.08
		c-2.72-6.5-3.79-6.54-8.35-6.75h-0.5c-1.63-0.07-3.44-0.18-5.44-0.18"/>
</g>
</svg>
