<?xml version="1.0" encoding="utf-8"?>
<!-- Generator: Adobe Illustrator 27.1.1, SVG Export Plug-In . SVG Version: 6.00 Build 0)  -->
<svg version="1.1" id="Layer_1" xmlns="http://www.w3.org/2000/svg" xmlns:xlink="http://www.w3.org/1999/xlink" x="0px" y="0px"
	 viewBox="0 0 595.28 565.89" style="enable-background:new 0 0 595.28 565.89;" xml:space="preserve">
<style type="text/css">
	.st0{fill:#F7ECDE;}
</style>
<g id="svgexport-17_-_2024-05-15T124020.335" transform="translate(0 14.027) rotate(-90)">
	<path id="Path_83624" class="st0" d="M-484.39,267.83L-484.39,267.83z M-457.11,412.41L-457.11,412.41z M-208.35,521.66
		c-53.13-0.01-96.19-43.09-96.19-96.22V230.3c0-29.66,24.04-53.7,53.7-53.7c29.66,0,53.7,24.04,53.7,53.7v152.65
		c0,6.18-5.01,11.19-11.19,11.19s-11.19-5.01-11.19-11.19V230.3c0.01-17.3-14.01-31.33-31.31-31.34
		c-17.3-0.01-31.33,14.01-31.34,31.31c0,0.01,0,0.02,0,0.03v195.17c0.77,40.77,34.45,73.2,75.23,72.43
		c39.69-0.75,71.68-32.74,72.43-72.43V212.92c0-64.25-52.09-116.34-116.34-116.34s-116.34,52.09-116.34,116.34v171.84
		c0,6.18-5.01,11.19-11.19,11.19s-11.19-5.01-11.19-11.19V212.92c0-76.61,62.1-138.71,138.71-138.71s138.71,62.1,138.71,138.71
		v212.55C-112.14,478.6-155.22,521.66-208.35,521.66z"/>
</g>
</svg>
