<?xml version="1.0" encoding="utf-8"?>
<!-- Generator: Adobe Illustrator 27.1.1, SVG Export Plug-In . SVG Version: 6.00 Build 0)  -->
<svg version="1.1" id="Layer_1" xmlns="http://www.w3.org/2000/svg" xmlns:xlink="http://www.w3.org/1999/xlink" x="0px" y="0px"
	 viewBox="0 0 595.28 565.89" style="enable-background:new 0 0 595.28 565.89;" xml:space="preserve">
<style type="text/css">
	.st0{fill:#1A322E;}
</style>
<g id="svgexport-17_-_2024-05-15T124820.523" transform="translate(-78.336)">
	<path id="Path_83625" class="st0" d="M509.42,286.93c-0.02-8.11-6.61-14.67-14.72-14.66c-8.09,0.02-14.64,6.57-14.66,14.66
		c0,57.31-46.46,103.77-103.77,103.77s-103.77-46.46-103.77-103.77c-0.02-8.11-6.61-14.67-14.72-14.66
		c-8.09,0.02-14.64,6.57-14.66,14.66c-0.18,67.98,50.9,125.18,118.46,132.67v39.16h-53.36c-8.11-0.02-14.7,6.54-14.72,14.66
		c-0.02,8.11,6.54,14.7,14.66,14.72c0.02,0,0.04,0,0.07,0h136.11c8.11,0.02,14.7-6.54,14.72-14.66c0.02-8.11-6.54-14.7-14.66-14.72
		c-0.02,0-0.04,0-0.07,0h-53.36v-39.16C458.53,412.11,509.6,354.91,509.42,286.93z"/>
	<path id="Path_83626" class="st0" d="M376.24,72.03c-45.07,0.14-81.55,36.67-81.64,81.74v132.67c-0.13,45.15,36.36,81.86,81.51,82
		c45.15,0.13,81.86-36.36,82-81.51V153.77C458.03,108.62,421.4,72.05,376.24,72.03z"/>
</g>
</svg>
