<?xml version="1.0" encoding="utf-8"?>
<!-- Generator: Adobe Illustrator 27.1.1, SVG Export Plug-In . SVG Version: 6.00 Build 0)  -->
<svg version="1.1" id="Layer_1" xmlns="http://www.w3.org/2000/svg" xmlns:xlink="http://www.w3.org/1999/xlink" x="0px" y="0px"
	 viewBox="0 0 595.28 565.89" style="enable-background:new 0 0 595.28 565.89;" xml:space="preserve">
<g id="Group_163033" transform="translate(0 0)">
	<path id="Path_83662" d="M195.08,429.52c6.47-38.87,34.16-70.84,71.7-82.79c-16.4-11.21-25.58-30.32-24.08-50.13
		c0.82-14.34,7.41-27.75,18.25-37.17c22.27-19.97,56.35-18.73,77.11,2.81c21.32,22.62,20.27,58.24-2.35,79.57
		c-1.99,1.87-4.11,3.6-6.34,5.16c37.61,11.86,65.25,44.03,71.31,83c2.81-2.51,5.32-4.54,7.59-6.84
		c38.01-36.1,55.72-88.67,47.29-140.42c-0.72-5.38,1.26-8.96,5.53-9.59c4.27-0.63,7.29,1.97,8.1,7.53
		c14.96,93.17-47.52,181.13-140.42,197.69c-6.18,1.17-10.52-2.15-9.8-7.41c0.57-4.12,3.5-5.62,7.23-6.27
		c18.41-3.07,36.08-9.54,52.13-19.06c11.53-6.93,10.67-3.29,7.92-17.36c-9.98-48.7-57.55-80.09-106.25-70.11
		c-37.21,7.62-65.63,37.78-71.03,75.37c-1.09,3.75,0.69,7.74,4.21,9.44c17.44,10.64,36.68,18.01,56.76,21.75
		c2.03,0.39,4.75,1.17,5.59,2.66c1.26,2.27,1.64,4.94,1.05,7.47c-1.18,3.22-4.74,4.88-7.97,3.71c-0.1-0.04-0.21-0.08-0.31-0.12
		c-10.3-2.13-20.46-4.89-30.41-8.28c-57.54-20.54-99.59-70.43-110.09-130.62c-3.78-19.05-4.11-38.62-0.99-57.78
		c0-0.87,0.33-1.7,0.51-2.54c0.47-3.8,3.94-6.49,7.74-6.02c0.1,0.01,0.2,0.03,0.3,0.04c3.83,0.87,6.29,4.59,5.59,8.45
		c-1.28,10.74-1.92,21.54-1.94,32.36c1.27,43.33,20.44,84.19,52.94,112.87C192.75,427.7,193.79,428.51,195.08,429.52z M339.5,300.67
		c0-22.98-18.63-41.62-41.62-41.62c-22.98,0-41.62,18.63-41.62,41.62c0,22.98,18.63,41.62,41.62,41.62c0.01,0,0.02,0,0.03,0
		C320.84,342.16,339.38,323.59,339.5,300.67L339.5,300.67z"/>
	<path id="Path_83663" d="M248.29,216c2.12-12.49,4.24-25.72,6.75-38.84c0.83-3.06-0.24-6.32-2.72-8.31
		c-9.14-8.6-17.93-17.51-27.1-26.23c-2.51-2.42-4.54-4.99-3.2-8.72c1.34-3.73,4.36-4.48,7.89-4.96c12.88-1.76,25.69-3.82,38.57-5.56
		c2.28-0.2,4.24-1.69,5.05-3.82c5.41-11.17,10.99-22.26,16.4-33.4c1.7-3.47,3.23-6.93,7.86-6.96c4.63-0.03,6.27,3.26,7.98,6.78
		c5.47,11.29,11.11,22.5,16.58,33.82c0.76,2,2.61,3.38,4.75,3.53c13.18,1.76,26.29,3.85,39.44,5.71c3.27,0.01,6.18,2.06,7.29,5.14
		c0.85,3.01-0.28,6.23-2.81,8.07c-9.44,9.14-18.79,18.4-28.32,27.46c-1.89,1.56-2.72,4.07-2.12,6.45
		c2.27,12.49,4.42,25.01,6.57,37.52c0.6,3.47,1.17,6.99-2.24,9.5c-3.41,2.51-6.78,1.02-10.07-0.75
		c-10.58-5.62-21.27-11.02-31.73-16.85c-3.11-2.09-7.17-2.09-10.28,0c-11.08,6.21-22.38,11.95-33.67,17.93
		c-3.15,2.26-7.54,1.53-9.79-1.63C248.15,220.17,247.75,218.02,248.29,216z M264.3,204.89c10.04-5.26,19.27-9.98,28.32-14.94
		c3.23-2.03,7.34-2.03,10.58,0c7.44,4.12,14.94,7.98,22.59,11.95l5.74,2.99c-1.91-11.23-3.5-21.48-5.47-31.67
		c-0.89-3.56,0.32-7.32,3.14-9.68c5.8-5.44,11.41-11.08,17.12-16.58c1.82-1.73,3.76-3.32,5.68-4.96
		c-9.22-2.35-18.59-4.02-28.05-4.99c-5.88,0.02-11.14-3.63-13.18-9.14c-3.62-8.72-8.25-17-12.76-26.14
		c-1.11,2.03-1.88,3.35-2.57,4.72c-4.03,8.16-8.1,16.28-11.95,24.47c-1.21,3.01-4,5.07-7.23,5.35c-5.59,0.66-11.14,1.61-16.7,2.42
		l-14.13,2.15c7.08,7.56,14.1,15.24,21.33,22.68c2.69,2.45,3.83,6.17,2.99,9.71c-1.94,10.1-3.53,20.38-5.47,31.67H264.3z"/>
	<path id="Path_83664" d="M131.95,245.31c1.67-9.62,3.32-19.87,5.26-30.08c0.74-2.65-0.15-5.48-2.27-7.23
		c-7.05-6.63-13.86-13.5-20.91-20.23c-2.7-1.85-3.95-5.2-3.14-8.37c1.19-3.73,4.3-4.72,7.77-5.2c9.86-1.4,19.72-2.72,29.52-4.39
		c1.83-0.43,3.4-1.58,4.36-3.2c4.6-8.96,8.96-17.75,13.26-26.74c1.18-3.95,5.35-6.2,9.3-5.01c2.41,0.72,4.29,2.6,5.01,5.01
		c4.27,8.96,8.66,17.93,13.26,26.74c0.96,1.6,2.52,2.74,4.33,3.17c9.65,1.64,19.39,2.99,29.1,4.39c3.58,0.51,6.9,1.28,8.22,5.23
		s-0.9,6.27-3.38,8.69c-6.84,6.63-13.56,13.38-20.52,19.9c-2.13,1.73-3.05,4.55-2.33,7.2c1.85,9.62,3.35,19.33,5.05,28.98
		c0.95,2.99-0.1,6.24-2.6,8.13c-2.57,1.79-5.98,1.79-8.54,0c-8.96-4.75-17.93-9.32-26.89-14.16c-1.82-1.18-4.16-1.18-5.98,0
		c-9.12,4.94-18.31,9.76-27.58,14.46c-3.34,1.91-7.59,0.75-9.5-2.58C131.94,248.59,131.65,246.92,131.95,245.31z M147.99,233.99
		c6.72-3.53,12.76-6.33,18.4-9.74c3.98-2.79,9.28-2.79,13.26,0c5.71,3.44,11.95,6.27,18.37,9.68c-1.28-7.65-2.12-14.52-3.62-21.24
		c-1.14-4.1,0.25-8.49,3.56-11.17c5.05-4.84,9.71-10.1,14.61-15.24c-5.49-1.1-11.03-1.9-16.61-2.39c-6.8,0.3-12.94-4.04-14.94-10.55
		c-2-5.41-5.02-10.46-7.95-16.37c-3.03,5.47-5.77,11.1-8.22,16.85c-1.92,6.24-7.82,10.38-14.34,10.07
		c-5.74,0.33-11.41,1.64-16.88,2.48c5.35,5.62,10.34,11.02,15.51,16.22c2.49,2.26,3.55,5.69,2.78,8.96
		c-1.43,7.11-2.57,14.37-3.94,22.56V233.99z"/>
	<path id="Path_83665" d="M381.68,245.22c1.64-9.59,3.29-19.84,5.26-30.03c0.71-2.65-0.2-5.47-2.33-7.2
		c-6.93-6.51-13.65-13.29-20.53-19.9c-2.51-2.42-4.63-4.9-3.38-8.66s4.66-4.72,8.22-5.2c9.71-1.37,19.42-2.69,29.1-4.33
		c1.82-0.45,3.38-1.61,4.33-3.23c4.6-8.96,8.96-17.75,13.26-26.74c1.18-3.95,5.35-6.2,9.3-5.01c2.41,0.72,4.29,2.6,5.01,5.01
		c4.27,8.96,8.66,17.93,13.26,26.74c1,1.54,2.57,2.61,4.36,2.99c9.68,1.64,19.39,2.99,29.1,4.36c3.58,0.51,6.9,1.34,8.19,5.29
		s-0.99,6.27-3.47,8.66c-6.96,6.72-13.77,13.59-20.91,20.2c-1.88,1.58-2.68,4.11-2.03,6.48c1.79,9.8,3.38,19.63,5.11,29.43
		c0.94,2.99-0.13,6.24-2.66,8.1c-2.62,1.71-6.02,1.63-8.54-0.21c-8.66-4.63-17.42-8.96-25.96-13.8c-2.28-1.49-5.22-1.49-7.5,0
		c-8.84,4.86-17.81,9.56-26.89,14.1c-3.35,1.89-7.59,0.7-9.48-2.65C381.75,248.28,381.46,246.74,381.68,245.22z M422.76,156.94
		c-3.67,7.41-7.02,13.89-10.13,20.49c-1.26,3.14-4.19,5.3-7.56,5.59c-7.35,0.93-14.64,2.18-21.75,3.26
		c5.23,5.53,10.16,10.93,15.36,16.1c2.67,2.32,3.82,5.94,2.99,9.38c-1.4,7.14-2.48,14.37-3.82,22.26
		c6.93-3.65,13.26-6.75,19.36-10.25c3.45-2.24,7.9-2.24,11.35,0c5.98,3.47,12.43,6.6,19.33,10.22c-1.31-7.83-2.3-14.94-3.76-21.96
		c-0.92-3.69,0.34-7.59,3.26-10.04c5.11-5.02,9.92-10.34,14.94-15.68c-7.08-1.08-14.28-2.33-21.54-3.2
		c-3.52-0.25-6.58-2.49-7.89-5.77C429.75,170.77,426.43,164.38,422.76,156.94z"/>
	<path id="Path_83666" d="M304.78,473.95c0.07,3.81-2.97,6.95-6.78,7.02c-3.81,0.06-6.95-2.97-7.02-6.78
		c-0.07-3.81,2.97-6.95,6.78-7.02C301.55,467.15,304.67,470.16,304.78,473.95z"/>
</g>
</svg>
