<?xml version="1.0" encoding="utf-8"?>
<!-- Generator: Adobe Illustrator 27.1.1, SVG Export Plug-In . SVG Version: 6.00 Build 0)  -->
<svg version="1.1" id="Layer_1" xmlns="http://www.w3.org/2000/svg" xmlns:xlink="http://www.w3.org/1999/xlink" x="0px" y="0px"
	 viewBox="0 0 595.28 565.89" style="enable-background:new 0 0 595.28 565.89;" xml:space="preserve">
<style type="text/css">
	.st0{fill:#1A322E;}
</style>
<path id="Path_83692" class="st0" d="M210.83,111.06c-10.22,0-18.22,5.96-18.22,13.54v14.9h-33.58c-12.21,0.01-22.1,9.9-22.11,22.11
	v265.41c0.03,12.2,9.91,22.07,22.11,22.09h277.84c12.19-0.01,22.07-9.89,22.09-22.09V161.61c-0.01-12.2-9.89-22.08-22.09-22.11
	h-33.39v-14.9c0-7.61-8.01-13.54-18.2-13.54c-10.2,0-18.22,5.96-18.22,13.54v14.9h-50.81v-14.9c0-7.61-8.01-13.54-18.22-13.54
	s-18.22,5.96-18.22,13.54v14.9h-50.81v-14.9C228.98,117.02,220.97,111.06,210.83,111.06z M203.76,124.7c4.13-3.31,10-3.31,14.13,0
	v14.81h-14.13V124.7z M148.26,209.06h299.59v165.57h-41.49c-3.07,0-5.56,2.49-5.56,5.56l0,0v41.49H159.02
	c-6.05-0.01-10.96-4.92-10.97-10.97L148.26,209.06z M440.09,385.65l-28.04,28.04v-27.93L440.09,385.65z M436.86,437.97H159.02
	c-4.85,0-9.12-3.18-10.52-7.82c3.23,1.75,6.85,2.67,10.52,2.66h247.23c1.47,0,2.89-0.59,3.93-1.62l37.67-37.58v33.36
	c0.01,6.06-4.89,10.98-10.95,11C436.89,437.97,436.88,437.97,436.86,437.97z M378.19,124.7c4.13-3.31,10-3.31,14.13,0v14.81h-14.13
	V124.7z M290.93,124.7c4.13-3.31,10-3.31,14.13,0v14.81h-14.13V124.7z M297.99,174.14c3.08,0,5.57-2.49,5.57-5.57
	s-2.49-5.57-5.57-5.57c-2.61,0.24-5.19-0.69-7.06-2.52v-9.94h76.15v10.03c0,7.61,8.01,13.54,18.22,13.54c3.08,0,5.57-2.49,5.57-5.57
	s-2.49-5.57-5.57-5.57c-2.61,0.24-5.19-0.67-7.06-2.5v-9.94h58.63c6.05,0.01,10.95,4.92,10.95,10.97v36.43H148.17v-36.33
	c0.01-6.05,4.92-10.96,10.97-10.97h33.39v10.03c0,7.61,8.01,13.54,18.22,13.54c3.08,0,5.57-2.49,5.57-5.57s-2.49-5.57-5.57-5.57l0,0
	c-2.61,0.24-5.19-0.69-7.06-2.52v-9.94h76.12v10.03c0,7.61,8.01,13.54,18.22,13.54L297.99,174.14z M251.68,275.18h28.25
	c3.07,0,5.56-2.49,5.56-5.56l0,0v-24.91c0-3.07-2.49-5.56-5.56-5.56l0,0h-28.25c-3.07,0-5.56,2.49-5.56,5.56l0,0v24.98
	c0,3.07,2.49,5.56,5.56,5.56c0.01,0,0.02,0,0.02,0L251.68,275.18z M257.23,250.19h17.19v13.92h-17.19V250.19z M316.1,275.18h28.25
	c3.07,0,5.56-2.49,5.56-5.56l0,0v-24.91c0-3.07-2.49-5.56-5.56-5.56l0,0H316.1c-3.07,0-5.56,2.49-5.56,5.56l0,0v24.98
	c0,3.03,2.43,5.51,5.46,5.56L316.1,275.18z M321.65,250.19h17.19v13.92h-17.35L321.65,250.19z M187.44,336.3h28.25
	c3.07,0,5.56-2.49,5.56-5.56l0,0v-24.96c0-3.07-2.49-5.56-5.56-5.56l0,0h-28.42c-3.07,0-5.56,2.49-5.56,5.56l0,0v24.96
	c-0.04,3.07,2.42,5.59,5.49,5.63c0.02,0,0.05,0,0.07,0L187.44,336.3z M193,311.34h17.21v13.99h-17.28L193,311.34z M251.87,336.3
	h28.25c3.07,0,5.56-2.49,5.56-5.56l0,0v-24.96c0-3.07-2.49-5.56-5.56-5.56l0,0h-28.25c-3.07,0-5.56,2.49-5.56,5.56l0,0v24.96
	c-0.04,3.03,2.36,5.54,5.39,5.63L251.87,336.3z M257.42,311.34h17.19v13.99h-17.19V311.34z M316.29,336.3h28.25
	c3.07,0,5.56-2.49,5.56-5.56l0,0v-24.96c0-3.07-2.49-5.56-5.56-5.56l0,0h-28.25c-3.07,0-5.56,2.49-5.56,5.56l0,0v24.96
	c-0.04,2.99,2.29,5.48,5.27,5.63L316.29,336.3z M321.84,311.34h17.19v13.99h-17.54L321.84,311.34z M187.63,397.42h28.25
	c3.07,0,5.56-2.49,5.56-5.56l0,0v-24.96c0-3.07-2.49-5.56-5.56-5.56l0,0h-28.61c-3.07,0-5.56,2.49-5.56,5.56l0,0v24.96
	c-0.04,3.07,2.42,5.59,5.49,5.63c0.02,0,0.05,0,0.07,0L187.63,397.42z M193.19,372.47h17.21v13.84h-17.47L193.19,372.47z
	 M252.05,397.42h28.25c3.07,0,5.56-2.49,5.56-5.56l0,0v-24.96c0-3.07-2.49-5.56-5.56-5.56l0,0h-28.25c-3.07,0-5.56,2.49-5.56,5.56
	l0,0v24.96c-0.04,2.96,2.25,5.44,5.2,5.63L252.05,397.42z M257.61,372.47h17.19v13.84h-17.19V372.47z M187.28,275.25h28.25
	c3.07,0,5.56-2.49,5.56-5.56l0,0v-24.98c0-3.07-2.49-5.56-5.56-5.56l0,0h-28.25c-3.07,0-5.56,2.49-5.56,5.56l0,0v24.98
	C181.72,272.76,184.21,275.25,187.28,275.25z M192.84,250.26h17.21v13.84h-17.12L192.84,250.26z M408.61,300.3h-28.25
	c-3.07,0-5.56,2.49-5.56,5.56l0,0v24.96c0,3.07,2.49,5.56,5.56,5.56l0,0h28.25c3.07,0,5.56-2.49,5.56-5.56l0,0v-24.96
	C414.17,302.79,411.68,300.3,408.61,300.3L408.61,300.3z M403.05,325.26h-17.19v-13.84h17.19V325.26z M315.93,397.52h28.25
	c3.07,0,5.56-2.49,5.56-5.56l0,0V367c0-3.07-2.49-5.56-5.56-5.56l0,0h-28.25c-3.07,0-5.56,2.49-5.56,5.56l0,0v24.96
	c0.01,3.07,2.51,5.55,5.58,5.53c0.02,0,0.03,0,0.05,0L315.93,397.52z M321.49,372.56h17.19v13.84h-17.19L321.49,372.56z
	 M375.64,260.72c-2.18-2.17-2.19-5.69-0.02-7.86c2.17-2.18,5.69-2.19,7.86-0.02l0,0l7.06,7.06l14.55-17.21
	c1.98-2.35,5.49-2.64,7.84-0.66s2.64,5.49,0.66,7.84l-18.46,21.8c-1,1.18-2.45,1.89-4,1.95h-0.24c-1.47,0-2.89-0.58-3.93-1.62
	L375.64,260.72z"/>
</svg>
