<?xml version="1.0" encoding="utf-8"?>
<!-- Generator: Adobe Illustrator 27.1.1, SVG Export Plug-In . SVG Version: 6.00 Build 0)  -->
<svg version="1.1" id="Layer_1" xmlns="http://www.w3.org/2000/svg" xmlns:xlink="http://www.w3.org/1999/xlink" x="0px" y="0px"
	 viewBox="0 0 595.28 565.89" style="enable-background:new 0 0 595.28 565.89;" xml:space="preserve">
<style type="text/css">
	.st0{fill:#1A322E;stroke:#1A322E;stroke-width:13.4823;}
</style>
<g id="svgexport-17_-_2024-05-25T151418.515" transform="translate(-7.06 -3.24)">
	<path id="Path_83688" class="st0" d="M195.65,171.37c0,57.75,46.82,104.57,104.57,104.57s104.57-46.82,104.57-104.57
		S357.97,66.8,300.22,66.8C242.5,66.87,195.72,113.65,195.65,171.37z M393.6,171.37c-0.07,51.57-41.94,93.32-93.51,93.24
		s-93.32-41.94-93.24-93.51c0.07-51.52,41.86-93.24,93.38-93.24C351.81,77.93,393.6,119.77,393.6,171.37z M464.46,494.19v-50.42
		c0-88.07-71.4-159.47-159.47-159.47s-159.47,71.4-159.47,159.47v50.42c0,3.13,2.54,5.66,5.66,5.66h307.91
		C462.12,499.72,464.49,497.21,464.46,494.19z M453.27,488.53H156.66V443.6c0-81.91,66.4-148.31,148.31-148.31
		s148.31,66.4,148.31,148.31V488.53z"/>
</g>
</svg>
