<?xml version="1.0" encoding="utf-8"?>
<!-- Generator: Adobe Illustrator 27.1.1, SVG Export Plug-In . SVG Version: 6.00 Build 0)  -->
<svg version="1.1" id="Layer_1" xmlns="http://www.w3.org/2000/svg" xmlns:xlink="http://www.w3.org/1999/xlink" x="0px" y="0px"
	 viewBox="0 0 595.28 565.89" style="enable-background:new 0 0 595.28 565.89;" xml:space="preserve">
<style type="text/css">
	.st0{fill:#3C9889;}
	.st1{fill:#1D574E;}
	.st2{fill:#61C4B5;}
	.st3{fill:#276B5F;}
	.st4{fill:#237B6B;}
	.st5{fill:#5FB1A3;}
</style>
<path id="Path_83750" class="st0" d="M339.52,101.71c-29.41-0.09-58.03,9.47-81.48,27.22c-22.94,17.34-39.82,41.47-48.24,68.96
	c-1.66,5.49,1.45,11.29,6.94,12.95c1.96,0.59,4.05,0.59,6.01,0c60.67-18.4,124.77,15.86,143.17,76.53c6.59,21.73,6.59,44.92,0,66.65
	c-1.66,5.49,1.45,11.29,6.94,12.95c1.96,0.59,4.05,0.59,6.01,0c27.49-8.42,51.62-25.3,68.96-48.24
	c45-59.82,32.97-144.8-26.85-189.79C397.49,111.26,368.9,101.71,339.52,101.71z"/>
<path id="Path_83751" class="st1" d="M337.24,239.52c29.98,29.94,41.01,73.98,28.68,114.52c-1.66,5.49,1.45,11.29,6.94,12.95
	c1.96,0.59,4.05,0.59,6.01,0c27.49-8.42,51.62-25.3,68.96-48.24c40.6-53.95,35.26-129.56-12.52-177.26L337.24,239.52z"/>
<path id="Path_83752" class="st1" d="M383.2,349.69c-2.71-2.71-6.69-3.7-10.35-2.59c-60.71,18.36-124.81-15.97-143.17-76.68
	c-6.56-21.68-6.56-44.81,0-66.49c1.67-5.49-1.43-11.28-6.92-12.95c-1.97-0.6-4.06-0.6-6.03,0c-71.62,21.75-112.05,97.44-90.3,169.07
	c21.75,71.62,97.44,112.05,169.07,90.3c43.28-13.14,77.16-47.02,90.3-90.3C386.91,356.38,385.91,352.4,383.2,349.69L383.2,349.69z"
	/>
<path id="Path_83753" class="st1" d="M372.84,347.07c-40.52,12.25-84.49,1.21-114.41-28.73l-98.17,98.17
	c52.99,52.92,138.85,52.85,191.76-0.14c15.71-15.73,27.31-35.09,33.78-56.36c1.66-5.49-1.44-11.29-6.93-12.95
	c-1.96-0.59-4.06-0.59-6.02,0L372.84,347.07z"/>
<path id="Path_83754" class="st2" d="M351.92,224.83c-35.37-35.35-87.32-48.37-135.19-33.9c-3.32,1.01-5.92,3.61-6.93,6.93
	c-21.7,71.67,18.81,147.37,90.49,169.07c25.62,7.76,52.96,7.76,78.58,0c3.33-1,5.93-3.6,6.94-6.93
	C400.34,312.15,387.31,260.17,351.92,224.83z"/>
<path id="Path_83755" class="st3" d="M243.75,333.03c35.34,35.36,87.29,48.39,135.14,33.9c3.32-1,5.93-3.6,6.94-6.93
	c14.54-47.87,1.51-99.85-33.9-135.19L243.75,333.03z"/>
<path id="Path_83756" class="st4" d="M150.13,397.68c-5.73,0-10.39-4.64-10.39-10.37c0-2.76,1.09-5.4,3.04-7.35l172.6-172.6
	c4.05-4.06,10.63-4.06,14.69,0c4.06,4.05,4.06,10.63,0,14.69l-172.6,172.6C155.53,396.59,152.88,397.69,150.13,397.68z
	 M131.14,338.01c-5.74,0-10.39-4.65-10.39-10.39c0-2.75,1.09-5.4,3.04-7.34l131.91-131.91c4.13-3.99,10.7-3.87,14.69,0.25
	c3.89,4.03,3.89,10.41,0,14.44L138.52,334.97c-1.95,1.95-4.59,3.05-7.34,3.04H131.14z"/>
<g id="Group_163274" transform="translate(8.285 20.099)">
	<path id="Path_83757" class="st5" d="M181.17,416.91c-5.73,0-10.39-4.64-10.39-10.37c0-2.76,1.09-5.4,3.04-7.35l172.6-172.59
		c4.17-3.94,10.74-3.76,14.69,0.41c3.79,4.01,3.79,10.27,0,14.28l-172.6,172.59C186.56,415.82,183.92,416.92,181.17,416.91z
		 M240.83,435.9c-5.74,0-10.39-4.65-10.39-10.39c0-2.75,1.09-5.4,3.04-7.34L365.4,286.26c3.99-4.13,10.56-4.24,14.69-0.25
		c4.13,3.99,4.24,10.56,0.25,14.69c-0.08,0.09-0.17,0.17-0.25,0.25l-131.9,131.91C246.24,434.81,243.6,435.91,240.83,435.9
		L240.83,435.9z"/>
</g>
</svg>
