<?xml version="1.0" encoding="utf-8"?>
<!-- Generator: Adobe Illustrator 27.1.1, SVG Export Plug-In . SVG Version: 6.00 Build 0)  -->
<svg version="1.1" id="Layer_1" xmlns="http://www.w3.org/2000/svg" xmlns:xlink="http://www.w3.org/1999/xlink" x="0px" y="0px"
	 viewBox="0 0 595.28 565.89" style="enable-background:new 0 0 595.28 565.89;" xml:space="preserve">
<style type="text/css">
	.st0{fill:none;}
	.st1{fill:#DFDDEF;}
	.st2{fill:#B7B9DD;}
	.st3{fill:#3C9889;}
	.st4{fill:#1D574E;}
	.st5{fill:#FEF5F5;}
	.st6{fill:#5EC4B4;}
	.st7{fill:#FDF5A2;}
	.st8{fill:#FEDA45;}
</style>
<rect x="92" y="79.24" class="st0" width="411.86" height="401.69"/>
<path id="Path_83758" class="st1" d="M313.17,472.76h-29.92c-14.46,0.01-26.19-11.71-26.2-26.17c0,0,0-0.01,0-0.01v-29.92
	c0-6.2,5.02-11.22,11.22-11.22h59.85c6.2,0,11.22,5.03,11.22,11.22v29.92C339.35,461.04,327.63,472.76,313.17,472.76z"/>
<path id="Path_83759" class="st2" d="M313.17,472.76c14.46,0,26.18-11.72,26.18-26.18v-29.92c0-6.2-5.03-11.22-11.22-11.22H298.2
	v67.33H313.17z"/>
<path id="Path_83760" class="st3" d="M350.58,381.5H245.84c-6.2,0-11.22-5.02-11.22-11.22l0,0c0.02-19.76-8.42-38.58-23.2-51.7
	c-54.15-47.93-59.2-130.68-11.27-184.84c47.93-54.15,130.68-59.2,184.84-11.27s59.2,130.68,11.27,184.84
	c-3.52,3.98-7.29,7.74-11.27,11.27c-14.77,13.12-23.22,31.94-23.2,51.7C361.79,376.47,356.77,381.49,350.58,381.5z M257.05,370.27
	L257.05,370.27z"/>
<path id="Path_83761" class="st4" d="M298.2,89.73V381.5h52.37c6.2,0,11.22-5.02,11.22-11.22c-0.02-19.76,8.42-38.58,23.2-51.7
	c54.12-47.89,59.17-130.59,11.27-184.71C371.41,105.78,335.7,89.71,298.2,89.73z"/>
<path id="Path_83762" class="st5" d="M234.61,370.27v31.42c0.02,14.45,11.73,26.16,26.18,26.18h74.82
	c14.45-0.02,26.16-11.73,26.18-26.18v-31.42H234.61z"/>
<path id="Path_83763" class="st4" d="M478.5,231.88h-22.43c-6.2,0.15-11.35-4.74-11.5-10.94c-0.15-6.2,4.74-11.35,10.94-11.5
	c0.19,0,0.37,0,0.56,0h22.44c6.2,0.15,11.1,5.3,10.94,11.5c-0.15,5.98-4.96,10.79-10.94,10.94H478.5z M438.86,162.68
	c-3.1-5.37-1.26-12.23,4.11-15.33c0,0,0,0,0,0l19.43-11.22c5.3-3.22,12.2-1.53,15.42,3.76c3.22,5.3,1.53,12.2-3.76,15.42
	c-0.14,0.09-0.29,0.17-0.43,0.25l-19.43,11.22C448.82,169.88,441.96,168.04,438.86,162.68
	C438.86,162.67,438.86,162.67,438.86,162.68L438.86,162.68z M462.41,305.18l-19.45-11.2c-5.3-3.22-6.98-10.12-3.76-15.42
	c3.12-5.13,9.72-6.9,14.99-4.01l19.43,11.22c5.44,2.98,7.43,9.8,4.45,15.24c-2.98,5.44-9.8,7.43-15.24,4.45
	c-0.15-0.08-0.29-0.16-0.43-0.25L462.41,305.18z"/>
<g id="Group_163275" transform="translate(0 6.479)">
	<path id="Path_83764" class="st3" d="M140.35,225.4h-22.44c-6.2,0.15-11.35-4.74-11.5-10.94s4.74-11.35,10.94-11.5
		c0.19,0,0.37,0,0.56,0h22.44c6.2-0.15,11.35,4.74,11.5,10.94c0.15,6.2-4.74,11.35-10.94,11.5
		C140.72,225.4,140.54,225.4,140.35,225.4z M142.22,160.27l-19.43-11.22c-5.44-2.98-7.43-9.8-4.45-15.24
		c2.98-5.44,9.8-7.43,15.24-4.45c0.15,0.08,0.29,0.16,0.43,0.25l19.43,11.22c5.44,2.98,7.43,9.8,4.45,15.24s-9.8,7.43-15.24,4.45
		C142.51,160.44,142.36,160.36,142.22,160.27z M118.66,294.57c-3.1-5.37-1.26-12.23,4.11-15.33c0,0,0,0,0,0l19.43-11.22
		c5.38-3.1,12.26-1.26,15.36,4.13c3.1,5.38,1.26,12.26-4.13,15.36l0,0l-19.43,11.22c-5.37,3.1-12.23,1.26-15.33-4.11c0,0,0,0,0,0
		L118.66,294.57z"/>
</g>
<path id="Path_83765" class="st1" d="M298.2,370.27v57.61h37.41c14.45-0.02,26.16-11.73,26.18-26.18v-31.43H298.2z"/>
<path id="Path_83766" class="st6" d="M316.9,306.69h-37.41c-5.97-0.01-10.89-4.68-11.2-10.64l-0.56-11.21
	c-3.43-1.63-6.73-3.53-9.86-5.69l-9.99,5.12c-5.32,2.72-11.84,0.8-14.83-4.38l-18.71-32.4c-2.99-5.18-1.39-11.79,3.63-15.03
	l9.4-6.07c-0.16-1.92-0.24-3.82-0.24-5.71c0-1.88,0.08-3.79,0.24-5.71l-9.4-6.07c-5.02-3.24-6.62-9.86-3.63-15.03l18.71-32.4
	c2.99-5.18,9.51-7.1,14.83-4.38l9.99,5.12c3.13-2.16,6.42-4.06,9.86-5.69l0.56-11.21c0.28-5.98,5.21-10.69,11.2-10.7h37.41
	c5.98,0,10.91,4.69,11.21,10.66l0.56,11.21c3.43,1.63,6.73,3.53,9.86,5.69l9.99-5.12c5.32-2.72,11.84-0.8,14.83,4.38l18.71,32.4
	c2.99,5.18,1.39,11.79-3.63,15.03l-9.4,6.07c0.16,1.92,0.24,3.82,0.24,5.71c0,1.88-0.08,3.79-0.24,5.71l9.4,6.07
	c5.02,3.24,6.62,9.86,3.63,15.03l-18.71,32.4c-2.99,5.18-9.51,7.1-14.83,4.38l-9.99-5.12c-3.13,2.16-6.42,4.06-9.86,5.69
	l-0.56,11.21C327.82,301.99,322.89,306.69,316.9,306.69z"/>
<path id="Path_83767" class="st3" d="M382.03,193.83l-18.71-32.4c-2.99-5.18-9.52-7.11-14.84-4.38l-9.99,5.12
	c-3.13-2.16-6.42-4.06-9.86-5.69l-0.56-11.21c-0.3-5.96-5.2-10.64-11.17-10.66H298.2v172.07h18.71c5.98,0,10.91-4.69,11.21-10.66
	l0.56-11.21c3.43-1.63,6.73-3.53,9.86-5.69l9.99,5.12c5.32,2.73,11.85,0.8,14.84-4.38l18.71-32.4c2.99-5.18,1.39-11.79-3.63-15.03
	l-9.4-6.07c0.16-1.92,0.24-3.82,0.24-5.71s-0.08-3.79-0.24-5.71l9.4-6.07C383.46,205.62,385.04,199,382.03,193.83z"/>
<path id="Path_83768" class="st7" d="M298.2,254.32c-18.59,0-33.66-15.07-33.66-33.66s15.07-33.66,33.66-33.66
	c18.59,0,33.66,15.07,33.66,33.66v0C331.84,239.23,316.78,254.29,298.2,254.32z"/>
<path id="Path_83769" class="st8" d="M331.86,220.65c-0.02-18.58-15.08-33.64-33.66-33.66v67.33
	C316.78,254.29,331.84,239.23,331.86,220.65z"/>
</svg>
