<?xml version="1.0" encoding="utf-8"?>
<!-- Generator: Adobe Illustrator 27.1.1, SVG Export Plug-In . SVG Version: 6.00 Build 0)  -->
<svg version="1.1" id="Layer_1" xmlns="http://www.w3.org/2000/svg" xmlns:xlink="http://www.w3.org/1999/xlink" x="0px" y="0px"
	 viewBox="0 0 595.28 565.89" style="enable-background:new 0 0 595.28 565.89;" xml:space="preserve">
<style type="text/css">
	.st0{fill:#1D574E;}
	.st1{fill:#3C9889;}
	.st2{fill:#F9F1F1;}
	.st3{fill:#E2DEEF;}
</style>
<g id="svgexport-10" transform="translate(-65.005)">
	<path id="Path_83732" class="st0" d="M362.95,385.25l52.56,91.03l36.39-44.39l56.64-9.32l-44.85-77.7L362.95,385.25z"/>
	<path id="Path_83733" class="st1" d="M362.94,385.25l-52.56,91.03l-36.39-44.39l-56.64-9.32l44.85-77.7L362.94,385.25z"/>
	<path id="Path_83734" class="st1" d="M362.94,83.9c-16.16-0.06-31.71,6.18-43.36,17.39c-33.21-4.52-64.07,17.95-69.97,50.94
		c-29.55,15.85-41.34,52.17-26.74,82.36c-14.56,30.2-2.77,66.52,26.75,82.41c6.01,32.98,36.88,55.41,70.11,50.92
		c11.61,11.18,27.11,17.4,43.23,17.33l102.54-144.7L362.94,83.9z"/>
	<path id="Path_83735" class="st0" d="M476.29,316.87c-5.88,33.01-36.76,55.5-69.98,50.97c-11.66,11.19-27.2,17.43-43.36,17.4V83.9
		c16.16-0.02,31.7,6.21,43.36,17.39c33.19-4.61,64.09,17.85,69.94,50.85c29.53,15.9,41.32,52.22,26.75,82.43
		C517.61,264.73,505.82,301.04,476.29,316.87z"/>
	<path id="Path_83736" class="st2" d="M435.75,234.57c0,55.48-72.8,100.45-72.8,100.45c-55.48,0.45-100.81-44.17-101.25-99.64
		c-0.45-55.48,44.17-100.81,99.64-101.25c0.54,0,1.08,0,1.61,0C362.95,134.12,435.75,179.09,435.75,234.57z"/>
	<path id="Path_83737" class="st3" d="M463.39,234.57c0,55.47-44.97,100.44-100.44,100.44v-200.9
		C418.42,134.12,463.39,179.1,463.39,234.57z"/>
	<path id="Path_83738" class="st1" d="M373.85,245.47l-10.91,22.29l-8.7,8.7l-41.98-41.98l16.26-16.26l25.72,25.72l8.7-8.7
		L373.85,245.47z"/>
	<path id="Path_83739" class="st0" d="M413.62,217.06l-50.67,50.72v-32.52l34.44-34.43L413.62,217.06z"/>
</g>
</svg>
