<?xml version="1.0" encoding="utf-8"?>
<!-- Generator: Adobe Illustrator 27.1.1, SVG Export Plug-In . SVG Version: 6.00 Build 0)  -->
<svg version="1.1" id="Layer_1" xmlns="http://www.w3.org/2000/svg" xmlns:xlink="http://www.w3.org/1999/xlink" x="0px" y="0px"
	 viewBox="0 0 595.28 565.89" style="enable-background:new 0 0 595.28 565.89;" xml:space="preserve">
<style type="text/css">
	.st0{fill:#1D574E;}
	.st1{fill:#3C9889;}
	.st2{fill:#86C7BC;}
	.st3{fill:#1A322E;}
	.st4{fill:#36756A;}
	.st5{fill:#20463F;}
</style>
<g id="svgexport-6_1_" transform="translate(0 -35.167)">
	<path id="Path_83740" class="st0" d="M374.88,233.43c-6.52,0-11.81-5.29-11.81-11.81c0,0,0,0,0-0.01v-27.64
		c-0.04-10.38-8.45-18.79-18.83-18.81h-92.64c-10.38,0.03-18.79,8.43-18.83,18.81v27.64c0.31,6.52-4.72,12.05-11.23,12.36
		c-6.52,0.31-12.05-4.72-12.36-11.23c-0.02-0.38-0.02-0.75,0-1.13v-27.64c0-23.46,19.02-42.48,42.48-42.48l0,0h92.58
		c23.46,0,42.48,19.02,42.48,42.48l0,0v27.64c0,6.52-5.28,11.82-11.81,11.82C374.89,233.43,374.88,233.43,374.88,233.43
		L374.88,233.43z"/>
	<path id="Path_83741" class="st0" d="M344.23,151.52h-45.85v23.63h45.85c10.38,0.03,18.79,8.43,18.83,18.81v27.64
		c-0.31,6.52,4.72,12.05,11.23,12.36c6.52,0.31,12.05-4.72,12.36-11.23c0.02-0.38,0.02-0.75,0-1.13v-27.64
		C386.64,170.54,367.65,151.55,344.23,151.52z"/>
	<path id="Path_83742" class="st1" d="M483.58,220.26l-371.5,0.16c-2.55,2.52-3.98,5.96-3.98,9.54v235.57
		c0,7.45,6.04,13.48,13.48,13.48h352.69c7.45,0,13.48-6.04,13.48-13.48V229.95c0-3.66-1.49-7.16-4.13-9.7L483.58,220.26z"/>
	<path id="Path_83743" class="st0" d="M298.33,220.33v258.65h175.9c7.45,0,13.48-6.04,13.48-13.48V229.95c0-3.66-1.49-7.16-4.13-9.7
		L298.33,220.33z"/>
	<path id="Path_83744" class="st1" d="M252.93,325.88h89.96v49.69h-89.96V325.88z"/>
	<path id="Path_83745" class="st0" d="M298.33,325.88h44.5v49.69h-44.5V325.88z"/>
	<path id="Path_83746" class="st2" d="M342.88,386.67h-89.96c-6.14,0-11.12-4.98-11.12-11.12c0,0,0,0,0-0.01v-49.66
		c0-6.14,4.98-11.12,11.12-11.12c6.14,0,11.12,4.98,11.12,11.12v38.57h67.71v-38.57c0-6.14,4.98-11.12,11.12-11.12
		c6.14,0,11.12,4.98,11.12,11.12v49.66c0,6.14-4.98,11.12-11.12,11.12C342.89,386.67,342.89,386.67,342.88,386.67z"/>
	<path id="Path_83747" class="st3" d="M342.89,314.76c-6.14,0-11.12,4.98-11.12,11.12c0,0,0,0,0,0.01v38.57h-33.44v22.25h44.5
		c6.14,0,11.12-4.98,11.12-11.12v-49.7C353.95,319.77,349.01,314.79,342.89,314.76z"/>
	<path id="Path_83748" class="st4" d="M181.4,332.49h231.05c17.11,0,32.45-10.57,38.54-26.56l32.62-85.67
		c-2.5-2.42-5.85-3.77-9.32-3.77H121.56c-3.56,0-6.97,1.41-9.49,3.92l30.54,84.81C148.5,321.59,164.02,332.49,181.4,332.49z"/>
	<path id="Path_83749" class="st5" d="M298.33,216.52v115.97H412.4c17.11,0,32.45-10.57,38.54-26.56l32.62-85.67
		c-2.5-2.42-5.85-3.77-9.32-3.77h-175.9V216.52z"/>
</g>
</svg>
