<?xml version="1.0" encoding="utf-8"?>
<!-- Generator: Adobe Illustrator 27.1.1, SVG Export Plug-In . SVG Version: 6.00 Build 0)  -->
<svg version="1.1" id="Layer_1" xmlns="http://www.w3.org/2000/svg" xmlns:xlink="http://www.w3.org/1999/xlink" x="0px" y="0px"
	 viewBox="0 0 595.28 565.89" style="enable-background:new 0 0 595.28 565.89;" xml:space="preserve">
<style type="text/css">
	.st0{clip-path:url(#SVGID_00000102522959815689145140000010558069179261199029_);}
	.st1{fill:#F5F5F5;}
	.st2{fill:#CCD7EE;}
	.st3{fill:#1D574E;}
	.st4{fill:#FFFFFF;}
</style>
<g>
	<defs>
		<rect id="SVGID_1_" x="83.53" y="65.68" width="428.81" height="428.81"/>
	</defs>
	<clipPath id="SVGID_00000147217683732394951720000001171911187137093294_">
		<use xlink:href="#SVGID_1_"  style="overflow:visible;"/>
	</clipPath>
	<g id="Group_163264" style="clip-path:url(#SVGID_00000147217683732394951720000001171911187137093294_);">
		<path id="Path_83717" class="st1" d="M512.34,280.08c0,118.41-95.99,214.41-214.41,214.41S83.53,398.5,83.53,280.08
			c0-118.41,95.99-214.41,214.41-214.41S512.34,161.67,512.34,280.08L512.34,280.08"/>
		<path id="Path_83718" class="st2" d="M303.69,100.93c-99.69,0-180.51,80.82-180.51,180.51s80.82,180.51,180.51,180.51
			S484.2,381.14,484.2,281.44l0,0C484.2,181.75,403.38,100.93,303.69,100.93"/>
		<path id="Path_83719" class="st3" d="M474.9,280.08c0,97.73-79.23,176.96-176.96,176.96s-176.96-79.23-176.96-176.96
			c0-97.73,79.22-176.96,176.96-176.96C395.66,103.13,474.89,182.35,474.9,280.08"/>
		<path id="Path_83720" class="st4" d="M462.54,280.08c0,90.9-73.69,164.59-164.59,164.59s-164.59-73.69-164.59-164.59
			c0-90.9,73.68-164.58,164.58-164.59c90.9-0.01,164.6,73.68,164.61,164.58C462.54,280.08,462.54,280.08,462.54,280.08"/>
		<path id="Path_83721" class="st3" d="M297.64,355.6h-0.36c-28.86-0.1-59.91-12.16-89.81-34.87
			c-13.46-10.14-25.78-21.72-36.74-34.51l-2.47-3.03l2.34-3.13c10.92-13.92,23.31-26.61,36.96-37.85
			c29.98-24.84,61.08-37.97,89.92-37.97h0.33c28.94,0.1,60.07,13.45,89.99,38.59c13.56,11.34,25.86,24.12,36.68,38.11l2.32,3.15
			l-2.49,3.02c-11.05,12.72-23.44,24.21-36.96,34.26c-29.93,22.44-60.94,34.26-89.68,34.26 M181.12,282.9
			c11.53,12.88,59.64,62.47,116.17,62.67h0.34c56.49,0,104.69-49.08,116.28-61.86c-11.22-13.94-59.48-69.27-116.17-69.46h-0.28
			C240.84,214.25,192.44,269.04,181.12,282.9"/>
		<path id="Path_83722" class="st3" d="M297.69,228.58c-28.35-0.1-51.41,22.8-51.51,51.15c-0.1,28.35,22.8,51.41,51.15,51.51
			s51.41-22.8,51.51-51.15c0-0.01,0-0.02,0-0.03C348.94,251.72,326.04,228.68,297.69,228.58 M297.43,305.77
			c-14.28-0.05-25.81-11.67-25.76-25.95c0.05-14.28,11.67-25.81,25.95-25.76s25.81,11.67,25.76,25.95c0,0.01,0,0.01,0,0.02
			C323.32,294.3,311.7,305.82,297.43,305.77"/>
	</g>
</g>
</svg>
