<?xml version="1.0" encoding="utf-8"?>
<!-- Generator: Adobe Illustrator 27.1.1, SVG Export Plug-In . SVG Version: 6.00 Build 0)  -->
<svg version="1.1" id="Layer_1" xmlns="http://www.w3.org/2000/svg" xmlns:xlink="http://www.w3.org/1999/xlink" x="0px" y="0px"
	 viewBox="0 0 595.28 565.89" style="enable-background:new 0 0 595.28 565.89;" xml:space="preserve">
<style type="text/css">
	.st0{fill:none;}
	.st1{fill:#F5F5F5;}
	.st2{fill:#CCD7EE;}
	.st3{fill:#1D574E;}
	.st4{fill:#FFFFFF;}
</style>
<rect x="92" y="79.24" class="st0" width="411.86" height="401.69"/>
<g id="Group_163271">
	<g id="Group_163270" transform="translate(0 0)">
		<g>
			<g id="Group_163269">
				<path id="Path_83724" class="st1" d="M490.55,278.52c0,110.06-89.22,199.28-199.28,199.28S91.99,388.57,91.99,278.52
					S181.21,79.24,291.27,79.24c0,0,0,0,0.01,0C401.33,79.24,490.55,168.46,490.55,278.52"/>
				<path id="Path_83725" class="st2" d="M296.62,112c-92.65,0.02-167.74,75.15-167.72,167.8c0.02,92.65,75.15,167.74,167.8,167.72
					c92.62-0.02,167.69-75.1,167.72-167.72c0-92.65-75.11-167.76-167.76-167.76"/>
				<path id="Path_83726" class="st3" d="M455.75,278.52c0,90.84-73.64,164.48-164.48,164.48s-164.48-73.64-164.48-164.48
					s73.64-164.48,164.48-164.48c0,0,0,0,0.01,0C382.11,114.04,455.75,187.68,455.75,278.52"/>
				<path id="Path_83727" class="st4" d="M444.23,278.51c0,84.49-68.49,152.98-152.98,152.98S138.28,363,138.28,278.51
					s68.49-152.98,152.98-152.98c0.01,0,0.02,0,0.02,0C375.76,125.55,444.23,194.03,444.23,278.51"/>
				<path id="Path_83728" class="st3" d="M289.77,367.26c-49.31,0-89.28-39.97-89.28-89.28s39.97-89.28,89.28-89.28
					s89.28,39.97,89.28,89.28l0,0C378.99,327.27,339.05,367.21,289.77,367.26 M289.77,198.09c-44.13,0-79.91,35.77-79.91,79.9
					c0,44.13,35.77,79.91,79.9,79.91c44.13,0,79.91-35.77,79.91-79.9c0,0,0-0.01,0-0.01C369.61,233.88,333.87,198.14,289.77,198.09"
					/>
				<path id="Path_83729" class="st3" d="M289.73,332.53c-30.3-0.4-54.54-25.29-54.14-55.6c0.4-30.3,25.29-54.54,55.6-54.14
					c30.3,0.4,54.54,25.29,54.14,55.6c-0.4,29.73-24.4,53.74-54.14,54.14C290.7,332.53,290.21,332.53,289.73,332.53 M289.79,232.84
					h-1.21c-24.97,0.33-44.94,20.85-44.6,45.81s20.85,44.94,45.81,44.6c24.97-0.33,44.94-20.85,44.6-45.81
					C334.07,252.94,314.29,233.17,289.79,232.84"/>
				<path id="Path_83730" class="st3" d="M289.76,307.3c-16.19-0.04-29.29-13.2-29.25-29.39c0.04-15.84,12.65-28.79,28.49-29.24
					c16.18-0.42,29.65,12.35,30.07,28.53c0,0,0,0.01,0,0.01c0.4,16.18-12.37,29.63-28.54,30.07h-0.78 M289.75,258.03h-0.52
					c-11.01,0.27-19.73,9.41-19.46,20.43c0.26,10.84,9.13,19.48,19.98,19.47h0.52c11.01-0.27,19.73-9.41,19.46-20.43
					c-0.26-10.83-9.13-19.48-19.96-19.46"/>
				<path id="Path_83731" class="st3" d="M286.57,269.39l-64.99-63.64v-0.25l0.22-9.15l-13.04-13.04l-0.39,16.05h-0.09l-15.81,0.72
					l12.54,12.52l9.88-0.45l1.04-0.05l64.65,63.27l-5.53,5.53l26.82,9.3l-9.79-26.33L286.57,269.39z"/>
			</g>
		</g>
	</g>
</g>
</svg>
