<?xml version="1.0" encoding="utf-8"?>
<!-- Generator: Adobe Illustrator 27.1.1, SVG Export Plug-In . SVG Version: 6.00 Build 0)  -->
<svg version="1.1" id="Layer_1" xmlns="http://www.w3.org/2000/svg" xmlns:xlink="http://www.w3.org/1999/xlink" x="0px" y="0px"
	 viewBox="0 0 595.28 565.89" style="enable-background:new 0 0 595.28 565.89;" xml:space="preserve">
<g id="svgexport-17_-_2024-05-23T151634.935" transform="translate(-26.666 -47.657)">
	<path id="Path_83677" d="M191.93,226.65l10.97,22.73l24.98,3.41c3.48,0.49,5.91,3.7,5.43,7.18c-0.19,1.4-0.85,2.69-1.86,3.68
		l-18.24,17.48l4.49,24.83c0.62,3.45-1.67,6.75-5.13,7.37c-1.41,0.25-2.87,0.02-4.14-0.66l0,0l-22.24-11.95l-22.23,11.95
		c-3.1,1.66-6.96,0.5-8.62-2.6c-0.74-1.38-0.95-2.99-0.57-4.52l4.35-24.46l-18.18-17.46c-2.52-2.45-2.58-6.48-0.14-9
		c1.02-1.05,2.37-1.72,3.82-1.89l24.89-3.39l10.97-22.73c1.54-3.15,5.34-4.46,8.49-2.93C190.27,224.33,191.31,225.37,191.93,226.65z
		 M192.93,257.96l-6.73-13.93l-6.73,13.93c-0.93,1.92-2.76,3.26-4.87,3.55l-15.34,2.1l11.21,10.71l0,0c1.53,1.47,2.22,3.6,1.83,5.68
		l-2.73,15.24l13.57-7.25c1.9-1.04,4.19-1.04,6.09,0l13.64,7.25l-2.68-14.93c-0.52-2.18,0.16-4.48,1.78-6.03l11.18-10.71
		l-15.14-2.07c-2.2-0.21-4.14-1.55-5.1-3.54H192.93z M468.75,226.65l10.96,22.73l24.99,3.41c3.48,0.49,5.91,3.7,5.43,7.18
		c-0.19,1.4-0.85,2.69-1.86,3.68l-18.24,17.48l4.47,24.83c0.63,3.44-1.66,6.74-5.1,7.37c-1.41,0.26-2.87,0.03-4.13-0.65l0,0
		l-22.23-11.95l-22.23,11.95c-3.1,1.67-6.97,0.5-8.64-2.6c-0.74-1.38-0.95-2.99-0.58-4.52l4.44-24.46l-18.24-17.48
		c-2.53-2.43-2.61-6.45-0.18-8.98c1.03-1.07,2.39-1.74,3.86-1.91l24.86-3.39l10.97-22.73c1.55-3.15,5.37-4.45,8.52-2.9
		C467.11,224.34,468.13,225.37,468.75,226.65z M469.75,257.96l-6.73-13.93l-6.73,13.93c-0.93,1.92-2.76,3.26-4.87,3.55l-15.34,2.1
		l11.21,10.71l0,0c1.54,1.46,2.23,3.6,1.84,5.68l-2.75,15.24l13.58-7.25c1.89-1.04,4.18-1.04,6.07,0l13.66,7.25l-2.71-14.93
		c-0.5-2.18,0.18-4.47,1.78-6.03l11.21-10.71l-15.15-2.07c-2.2-0.21-4.12-1.55-5.09-3.54H469.75z M330.34,163.93l14.22,29.47
		l32.4,4.44c3.48,0.49,5.9,3.71,5.41,7.19c-0.2,1.39-0.85,2.68-1.86,3.67l-23.65,22.65l5.8,32.23c0.61,3.46-1.71,6.76-5.17,7.37
		c-1.4,0.24-2.84,0.01-4.09-0.65l0,0l-28.82-15.47l-28.79,15.51c-3.1,1.66-6.96,0.49-8.61-2.61c-0.73-1.37-0.94-2.96-0.58-4.48
		l5.8-31.9l-23.72-22.6c-2.53-2.43-2.61-6.45-0.18-8.98c1.02-1.06,2.38-1.74,3.84-1.91l32.3-4.35l14.22-29.47
		c1.51-3.18,5.31-4.54,8.49-3.04C328.65,161.61,329.7,162.64,330.34,163.93z M334.59,201.99l-9.99-20.66l-9.99,20.66
		c-0.92,1.93-2.75,3.27-4.87,3.55L287,208.66l16.59,15.95c1.53,1.46,2.22,3.6,1.84,5.68l-4.09,22.62l20.18-10.82
		c1.89-1.04,4.18-1.04,6.07,0l20.3,10.86l-4.04-22.33c-0.51-2.18,0.17-4.46,1.78-6l16.6-15.95l-22.56-3.09
		c-2.2-0.22-4.13-1.57-5.09-3.57V201.99z M315.3,388.36h18.62c9.03,0.02,16.34,7.33,16.35,16.35v19.62l62.2-11.71
		c4.72-0.86,8.14-5,8.09-9.8v-43.07c-0.02-5.49-4.47-9.94-9.96-9.96H238.63c-5.49,0.02-9.94,4.47-9.96,9.96v43.13
		c-0.05,4.81,3.38,8.95,8.1,9.8l62.2,11.71v-19.62c0.01-9.02,7.31-16.33,16.32-16.35L315.3,388.36z M350.26,437.27v4.62
		c-0.01,9.03-7.33,16.35-16.35,16.35h-18.62c-8.98-0.03-16.26-7.3-16.31-16.28v-4.62l-64.54-12.18c-0.42-0.07-0.84-0.16-1.25-0.28
		v44.38c0.03,7.25,5.9,13.12,13.15,13.15h156.58c7.24-0.04,13.1-5.91,13.12-13.15v-44.38c-0.41,0.12-0.83,0.21-1.25,0.28
		L350.26,437.27z M333.91,401.03h-18.62c-1.98,0.02-3.58,1.63-3.6,3.61v37.2c0.01,1.98,1.61,3.59,3.6,3.6h18.62
		c1.98-0.01,3.59-1.61,3.6-3.6v-37.06c-0.01-1.99-1.61-3.6-3.6-3.62L333.91,401.03z M220.43,416.38c-2.94-3.94-4.53-8.73-4.52-13.64
		v-43c0.02-12.53,10.18-22.69,22.72-22.7h52.92v-17.31c0.05-7.51,6.13-13.6,13.64-13.64h38.87c7.51,0.05,13.58,6.13,13.61,13.64
		v17.32h52.95c12.54,0.01,22.7,10.17,22.72,22.7v43.13c0.01,4.92-1.58,9.7-4.52,13.64v52.76c-0.04,14.28-11.6,25.84-25.88,25.88
		H246.35c-14.28-0.03-25.85-11.6-25.89-25.88L220.43,416.38z M304.29,336.92h40.59v-17.66c-0.14-0.33-0.46-0.55-0.81-0.57h-39.14
		l-0.57,0.84L304.29,336.92z"/>
</g>
</svg>
