<?xml version="1.0" encoding="utf-8"?>
<!-- Generator: Adobe Illustrator 27.1.1, SVG Export Plug-In . SVG Version: 6.00 Build 0)  -->
<svg version="1.1" id="Layer_1" xmlns="http://www.w3.org/2000/svg" xmlns:xlink="http://www.w3.org/1999/xlink" x="0px" y="0px"
	 viewBox="0 0 595.28 565.89" style="enable-background:new 0 0 595.28 565.89;" xml:space="preserve">
<g id="svgexport-17_-_2024-05-15T184151.340" transform="translate(0 -45.908)">
	<path id="Path_83644" d="M503.04,227.01l-180.19-77.25c-15.93-6.79-33.95-6.79-49.88,0L92.82,226.99
		c-14.17,6.07-20.73,22.47-14.66,36.64c2.82,6.59,8.07,11.84,14.66,14.66l21.3,9.12c-0.01,0.23-0.01,0.45,0,0.68v100.77
		c-10.89,3.67-16.76,15.47-13.09,26.36c0.9,2.66,2.32,5.12,4.19,7.22c-3.77,3.7-6.08,8.62-6.54,13.88l-5.1,56.13
		c-0.69,7.56,4.88,14.24,12.43,14.93c0.42,0.04,0.84,0.06,1.25,0.06h26.94c7.59,0,13.74-6.15,13.74-13.73
		c0-0.42-0.02-0.84-0.06-1.25l-5.1-56.16c-0.45-5.26-2.77-10.18-6.54-13.88c7.65-8.58,6.9-21.74-1.68-29.39
		c-2.1-1.87-4.55-3.3-7.22-4.19V293.1l36.42,15.61c-0.01,0.22-0.01,0.44,0,0.66v50.73c0,21.18,14.5,40.76,40.83,55.15
		c28.9,14.59,60.93,21.88,93.29,21.25c32.41,0.65,64.48-6.64,93.41-21.25c26.33-14.4,40.83-33.99,40.83-55.15v-50.78
		c0.01-0.22,0.01-0.44,0-0.66l70.9-30.39c14.17-6.07,20.73-22.47,14.66-36.64c-2.82-6.59-8.07-11.84-14.66-14.66V227.01z
		 M134.54,493.95c-0.08,0.09-0.2,0.14-0.33,0.14h-27c-0.25-0.01-0.44-0.22-0.43-0.47c0-0.01,0-0.01,0-0.02l5.1-56.12
		c0.43-4.89,4.74-8.49,9.63-8.06c4.28,0.38,7.68,3.78,8.06,8.06l5.1,56.12C134.67,493.73,134.63,493.86,134.54,493.95z
		 M120.66,416.12c-4.16,0-7.53-3.37-7.53-7.53c0-4.16,3.37-7.53,7.53-7.53s7.53,3.37,7.53,7.53l0,0c-0.01,4.13-3.34,7.49-7.48,7.53
		H120.66z M418.82,331.75c0,17.19-14.14,33.96-38.8,46.03c-3.3,1.61-4.66,5.59-3.04,8.89c1.61,3.3,5.59,4.66,8.89,3.04
		c12.31-5.71,23.35-13.85,32.45-23.92c-4.91,16.97-17.17,30.85-33.4,37.81c-26.97,13.54-56.84,20.27-87.01,19.62
		c-30.18,0.66-60.06-6.08-87.03-19.62c-16.17-6.96-28.41-20.76-33.37-37.65c7.69,8.53,16.84,15.62,27,20.95
		c28.93,14.62,60.99,21.92,93.4,21.28c9.75,0.02,19.49-0.56,29.17-1.73c3.65-0.36,6.31-3.62,5.95-7.27
		c-0.36-3.65-3.62-6.31-7.27-5.95c-0.1,0.01-0.21,0.02-0.31,0.04c-9.14,1.14-18.33,1.72-27.54,1.73
		c-30.18,0.61-60.06-6.18-87.01-19.77c-18.4-7.22-31.4-23.9-33.91-43.5v-17.34l96.02,41.16c15.93,6.79,33.95,6.79,49.88,0
		l95.98-41.14v17.34H418.82z M497.75,266.1l-180.12,77.2c-12.59,5.36-26.82,5.36-39.41,0l-137.68-58.97l126.13-21.97
		c8.4,7.9,19.72,11.93,31.22,11.12c19.95,0,35-8.95,35-20.81c0-11.86-15.04-20.81-35-20.81c-18.12,0-32.19,7.39-34.69,17.64
		l-143.64,24.98c-0.41,0.07-0.82,0.18-1.21,0.33l-20.33-8.67c-7.42-3.19-10.85-11.79-7.66-19.21c1.48-3.44,4.22-6.18,7.66-7.66
		l180.15-77.22c12.59-5.36,26.82-5.36,39.41,0l180.19,77.23c7.42,3.19,10.85,11.79,7.66,19.21c-1.48,3.44-4.22,6.18-7.66,7.66
		L497.75,266.1z M276.22,252.64c0-1.94,7.46-7.53,21.71-7.53c14.26,0,21.71,5.6,21.71,7.53s-7.46,7.53-21.71,7.53
		C283.68,260.17,276.22,254.58,276.22,252.64z"/>
	<path id="Path_83645" d="M347.54,402.68c0.51,0,1.01-0.06,1.51-0.17c4.95-1.16,9.85-2.49,14.69-4.01c3.5-1.11,5.44-4.84,4.34-8.34
		s-4.84-5.44-8.34-4.34c-4.51,1.42-9.07,2.67-13.67,3.73c-3.58,0.79-5.85,4.34-5.06,7.92c0.68,3.07,3.41,5.24,6.55,5.21H347.54z"/>
</g>
</svg>
