<?xml version="1.0" encoding="utf-8"?>
<!-- Generator: Adobe Illustrator 27.1.1, SVG Export Plug-In . SVG Version: 6.00 Build 0)  -->
<svg version="1.1" id="Layer_1" xmlns="http://www.w3.org/2000/svg" xmlns:xlink="http://www.w3.org/1999/xlink" x="0px" y="0px"
	 viewBox="0 0 595.28 565.89" style="enable-background:new 0 0 595.28 565.89;" xml:space="preserve">
<g id="svgexport-17_-_2024-05-15T181857.424" transform="translate(-39.02 -1)">
	<path id="Path_83633" d="M534.18,441.28l-61.4-106.31c2.46-3.88,6.18-6.79,10.53-8.25c28.3-11.57,41.86-43.89,30.29-72.18
		c-1.16-2.84-2.55-5.57-4.16-8.17c-4.97-6.9-4.97-16.21,0-23.11c8.92-13.7,10.99-30.75,5.61-46.18
		c-4.7-15.69-16.43-28.31-31.73-34.15c-8.08-2.66-13.55-10.19-13.59-18.69c-0.83-16.36-9.21-31.41-22.67-40.73
		c-13.03-9.93-29.94-13.25-45.76-8.97c-8.1,2.59-16.96-0.29-21.99-7.15C369.03,54.58,353.4,47.28,337,47.62l0,0
		c-16.38-0.37-32.01,6.88-42.29,19.64c-5.03,6.86-13.89,9.74-21.99,7.15c-15.82-4.28-32.73-0.96-45.76,8.97
		c-13.47,9.32-21.85,24.37-22.67,40.73c-0.04,8.5-5.52,16.03-13.59,18.69c-15.31,5.84-27.03,18.46-31.73,34.15
		c-5.38,15.43-3.31,32.49,5.61,46.18c4.97,6.9,4.97,16.21,0,23.11c-16.11,25.98-8.1,60.1,17.88,76.21c2.63,1.63,5.4,3.04,8.27,4.21
		c4.35,1.46,8.07,4.37,10.53,8.25l-61.4,106.35c-3.23,5.73-1.21,13,4.53,16.24c2.4,1.35,5.2,1.83,7.92,1.36l61.58-11l21.24,58.87
		c1.55,4.38,5.53,7.45,10.16,7.83h1.1c4.25,0.01,8.19-2.26,10.29-5.96l53.84-93.2c16.64,8.53,36.36,8.53,53,0l53.84,93.2
		c2.11,3.7,6.04,5.97,10.29,5.96h1.1c4.63-0.38,8.61-3.45,10.16-7.83l21.24-58.87l61.58,11c6.49,1.13,12.66-3.22,13.78-9.7
		c0.47-2.71-0.01-5.49-1.36-7.89L534.18,441.28z M246.92,496.26l-21.33-59.16c-1.21-3.36-4.67-5.36-8.18-4.73l-62.04,11.11
		l50.58-87.13c3.42,12.08,10.87,22.63,21.11,29.89c13.03,9.93,29.94,13.25,45.76,8.97c8.1-2.59,16.96,0.29,21.99,7.15
		c1.21,1.55,2.51,3.02,3.91,4.4L246.92,496.26z M337.09,407.21c-11.79,0.39-23.1-4.71-30.61-13.81
		c-6.51-8.73-16.76-13.87-27.64-13.88c-3.5,0-6.97,0.52-10.31,1.54c-21.99,4.92-43.8-8.91-48.72-30.9c-0.37-1.67-0.64-3.37-0.8-5.08
		c-0.19-14.63-9.58-27.56-23.44-32.26c-20.68-8.95-30.18-32.97-21.23-53.64c0.68-1.56,1.45-3.08,2.32-4.55
		c8.46-11.95,8.46-27.94,0-39.89c-6.29-9.92-7.65-22.2-3.67-33.25c3.28-11.33,11.63-20.5,22.61-24.83
		c13.83-4.74,23.19-17.66,23.36-32.28c0.73-11.78,6.88-22.55,16.65-29.16c9.34-7.28,21.53-9.8,32.99-6.82
		c13.98,4.34,29.18-0.6,37.94-12.34c14.92-16.9,40.71-18.51,57.61-3.59c1.27,1.12,2.47,2.32,3.59,3.59
		c8.75,11.73,23.95,16.68,37.94,12.34c11.46-2.98,23.65-0.46,32.99,6.82c9.76,6.62,15.9,17.39,16.63,29.16
		c0.19,14.63,9.58,27.56,23.44,32.26c10.98,4.33,19.33,13.5,22.61,24.83c3.93,11.1,2.5,23.39-3.87,33.3
		c-8.46,11.95-8.46,27.94,0,39.89c11.46,19.4,5.03,44.41-14.37,55.87c-1.47,0.87-2.98,1.64-4.55,2.32
		c-13.86,4.7-23.25,17.63-23.44,32.26c-2.13,22.43-22.04,38.89-44.46,36.76c-1.7-0.16-3.39-0.43-5.06-0.8
		c-13.98-4.34-29.18,0.6-37.94,12.34c-7.51,9.1-18.82,14.2-30.61,13.81L337.09,407.21z M456.65,432.48
		c-3.52-0.63-6.97,1.37-8.18,4.73l-21.33,59.16l-51.86-89.53c1.4-1.38,2.71-2.85,3.91-4.4c5.03-6.86,13.89-9.74,21.99-7.15
		c15.82,4.28,32.73,0.96,45.76-8.97c10.24-7.26,17.69-17.81,21.11-29.89l50.47,87.04L456.65,432.48z M459.25,234.8
		c0.02-67.49-54.67-122.23-122.16-122.25s-122.23,54.67-122.25,122.16C214.81,302.2,269.5,356.94,337,356.96c0.01,0,0.03,0,0.04,0
		c67.43-0.08,122.08-54.73,122.16-122.16H459.25z M337,342.31c-59.38-0.01-107.51-48.16-107.5-107.54s48.16-107.51,107.54-107.5
		c59.37,0.01,107.5,48.15,107.5,107.52C444.4,294.13,396.33,342.19,337,342.31z M413.97,207.68c-0.91-2.81-3.42-4.79-6.36-5.04
		l-45.92-3.85l-17.86-42.47c-1.57-3.73-5.86-5.48-9.59-3.91c-1.77,0.74-3.17,2.15-3.91,3.91l-17.95,42.47l-45.92,3.85
		c-4.03,0.33-7.03,3.87-6.69,7.9c0.16,1.91,1.06,3.69,2.51,4.94l34.88,30.06l-10.51,44.84c-0.95,3.93,1.46,7.89,5.39,8.84
		c1.91,0.46,3.94,0.14,5.61-0.91l39.41-23.86l39.37,23.86c3.43,2.14,7.95,1.1,10.09-2.33c1.04-1.67,1.37-3.69,0.91-5.61l-10.6-44.84
		l34.88-30.11c2.24-1.92,3.11-5,2.2-7.81L413.97,207.68z M363.89,237.39c-2.07,1.78-2.97,4.56-2.35,7.21l7.57,32.2l-28.3-17.13
		c-2.33-1.41-5.26-1.41-7.59,0l-28.3,17.13l7.57-32.2c0.62-2.65-0.29-5.43-2.35-7.21l-25-21.6l32.99-2.77
		c2.7-0.22,5.06-1.91,6.14-4.4l12.82-30.48l12.82,30.5c1.07,2.49,3.43,4.18,6.14,4.4l32.99,2.77L363.89,237.39z"/>
</g>
</svg>
