<?xml version="1.0" encoding="utf-8"?>
<!-- Generator: Adobe Illustrator 27.1.1, SVG Export Plug-In . SVG Version: 6.00 Build 0)  -->
<svg version="1.1" id="Layer_1" xmlns="http://www.w3.org/2000/svg" xmlns:xlink="http://www.w3.org/1999/xlink" x="0px" y="0px"
	 viewBox="0 0 595.28 841.89" style="enable-background:new 0 0 595.28 841.89;" xml:space="preserve">
<g id="svgexport-6_18_" transform="translate(-51.216 -13.5)">
	<path id="Path_83478" d="M361.09,424.2c-67.49,0-122.21-54.71-122.21-122.21s54.71-122.21,122.21-122.21S483.3,234.5,483.3,301.99
		C483.24,369.46,428.56,424.14,361.09,424.2z M361.09,206.07c-52.99,0-95.95,42.96-95.95,95.95s42.96,95.95,95.95,95.95
		c52.99,0,95.95-42.96,95.95-95.95c0,0,0,0,0,0c-0.11-52.93-43.02-95.8-95.95-95.87V206.07z M515.62,689.11H206.57
		c-33.38-0.03-60.42-27.08-60.46-60.46V590.8c0.1-78.78,63.94-142.63,142.72-142.72h144.52c78.78,0.1,142.63,63.94,142.72,142.72
		v37.82C576.06,662.01,549.01,689.07,515.62,689.11z M288.98,474.24c-64.29,0.08-116.39,52.18-116.47,116.47v37.82
		c0.03,18.88,15.33,34.17,34.2,34.2h309.05c18.88-0.03,34.17-15.33,34.2-34.2V590.8c-0.03-64.38-52.23-116.56-116.62-116.56H288.98z
		"/>
</g>
</svg>
