<?xml version="1.0" encoding="utf-8"?>
<!-- Generator: Adobe Illustrator 27.1.1, SVG Export Plug-In . SVG Version: 6.00 Build 0)  -->
<svg version="1.1" id="Layer_1" xmlns="http://www.w3.org/2000/svg" xmlns:xlink="http://www.w3.org/1999/xlink" x="0px" y="0px"
	 viewBox="0 0 595.28 565.89" style="enable-background:new 0 0 595.28 565.89;" xml:space="preserve">
<style type="text/css">
	.st0{fill:#BAB9BA;}
</style>
<g id="Group_162945" transform="translate(-33.16 -46.124)">
	<g id="svgexport-17_-_2024-05-14T124136.503" transform="translate(33.16 46.124)">
		<path id="Path_83611" class="st0" d="M172.32,250.64c-5.6-7.57-7.33-17.33-4.68-26.36l28.66-95.35
			c16.88-55.95,75.92-87.62,131.87-70.74c33.94,10.24,60.5,36.8,70.74,70.74l28.82,95.18c4.77,15.66-4.07,32.22-19.73,36.99
			c-0.06,0.02-0.13,0.04-0.19,0.06c-2.78,0.84-5.66,1.29-8.56,1.33H196.2C186.81,262.55,177.95,258.15,172.32,250.64z
			 M472.39,477.25c-0.01,16.44-13.33,29.76-29.77,29.79H153.17c-16.47,0-29.81-13.35-29.81-29.81l0,0
			c0-96.42,78.16-174.58,174.58-174.58s174.58,78.16,174.58,174.58L472.39,477.25z"/>
	</g>
</g>
</svg>
