<?xml version="1.0" encoding="utf-8"?>
<!-- Generator: Adobe Illustrator 27.1.1, SVG Export Plug-In . SVG Version: 6.00 Build 0)  -->
<svg version="1.1" id="Layer_1" xmlns="http://www.w3.org/2000/svg" xmlns:xlink="http://www.w3.org/1999/xlink" x="0px" y="0px"
	 viewBox="0 0 595.28 565.89" style="enable-background:new 0 0 595.28 565.89;" xml:space="preserve">
<style type="text/css">
	.st0{fill:#BAB9BA;}
</style>
<path id="Path_83612" class="st0" d="M200.94,142.95c0.09-54.42,44.28-98.46,98.7-98.37c54.42,0.09,98.46,44.28,98.37,98.7
	c-0.09,54.36-44.18,98.37-98.54,98.37C245.02,241.59,200.92,197.41,200.94,142.95z M475.05,485.38
	c0.01,16.63-13.42,30.14-30.05,30.22H151.09c-16.68-0.01-30.2-13.53-30.22-30.22c-1.13-97.79,77.23-177.98,175.02-179.11
	c97.79-1.13,177.98,77.23,179.11,175.02c0.02,1.36,0.02,2.72,0,4.09H475.05z"/>
</svg>
