<?xml version="1.0" encoding="utf-8"?>
<!-- Generator: Adobe Illustrator 27.1.1, SVG Export Plug-In . SVG Version: 6.00 Build 0)  -->
<svg version="1.1" id="Layer_1" xmlns="http://www.w3.org/2000/svg" xmlns:xlink="http://www.w3.org/1999/xlink" x="0px" y="0px"
	 viewBox="0 0 595.28 841.89" style="enable-background:new 0 0 595.28 841.89;" xml:space="preserve">
<path id="Path_83483" d="M455.68,700.83h-315.5c-28.9-0.11-52.31-23.52-52.42-52.42V402.86c0.11-28.9,23.52-52.31,52.42-52.42h315.5
	c28.9,0.11,52.31,23.52,52.42,52.42v245.26C508.15,677.14,484.7,700.72,455.68,700.83z M140.18,385.39
	c-9.65,0-17.47,7.82-17.47,17.47l0,0v245.26c0,9.65,7.82,17.47,17.47,17.47c0,0,0,0,0,0h315.5c9.65,0,17.47-7.82,17.47-17.47l0,0
	V402.86c0-9.65-7.82-17.47-17.47-17.47c0,0,0,0,0,0H140.18z"/>
<path id="Path_83484" d="M175.3,385.47c-9.65,0-17.47-7.82-17.47-17.47v-87.63c-0.03-77.41,62.69-140.19,140.1-140.22
	s140.19,62.69,140.22,140.1c0,0.04,0,0.08,0,0.12c0.02,9.65-7.78,17.49-17.43,17.51c-9.65,0.02-17.49-7.78-17.51-17.43
	c0-0.03,0-0.05,0-0.08c0.97-58.05-45.31-105.9-103.37-106.86c-58.05-0.97-105.9,45.31-106.86,103.37c-0.02,1.17-0.02,2.33,0,3.5
	v87.6c0.02,9.65-7.79,17.49-17.44,17.5C175.46,385.47,175.38,385.47,175.3,385.47z"/>
</svg>
