<?xml version="1.0" encoding="utf-8"?>
<!-- Generator: Adobe Illustrator 27.1.1, SVG Export Plug-In . SVG Version: 6.00 Build 0)  -->
<svg version="1.1" id="Layer_1" xmlns="http://www.w3.org/2000/svg" xmlns:xlink="http://www.w3.org/1999/xlink" x="0px" y="0px"
	 viewBox="0 0 595.28 841.89" style="enable-background:new 0 0 595.28 841.89;" xml:space="preserve">
<g id="svgexport-17_-_2024-05-14T115204.075" transform="translate(-110.933)">
	<path id="Path_83480" d="M463.59,203.03h-85.71c-4.73,0.26-8.36,4.34-8.1,9.11c0.24,4.41,3.73,7.92,8.1,8.17h85.71
		c4.73-0.26,8.36-4.34,8.1-9.11C471.45,206.79,467.96,203.27,463.59,203.03z M523.6,203.03h-8.58c-4.73,0.26-8.36,4.34-8.1,9.11
		c0.24,4.41,3.73,7.92,8.1,8.17h8.58c4.73-0.26,8.36-4.34,8.1-9.11C531.46,206.79,527.97,203.27,523.6,203.03z M431.32,617.76
		h-21.28c-13.06,0.01-23.64,10.68-23.66,23.85v4.17c0.01,13.15,10.59,23.81,23.63,23.82h21.28c13.05-0.01,23.63-10.67,23.66-23.82
		v-4.17C454.94,628.46,444.37,617.79,431.32,617.76z M437.81,645.78c-0.01,3.61-2.91,6.53-6.49,6.54h-21.28
		c-3.59,0-6.5-2.92-6.52-6.54v-4.17c0-3.63,2.92-6.57,6.52-6.57h21.28c3.6,0,6.52,2.94,6.52,6.57L437.81,645.78z"/>
	<path id="Path_83481" d="M535.47,177.1H305.99c-17.14,0-31.03,14-31.03,31.28v455.91c0,17.27,13.89,31.28,31.03,31.28h229.47
		c17.14,0,31.03-14,31.03-31.28V208.37C566.49,191.1,552.6,177.1,535.47,177.1z M549.3,664.28c-0.01,7.69-6.2,13.93-13.83,13.94
		H305.99c-7.63-0.01-13.82-6.25-13.83-13.94V208.37c0.01-7.69,6.2-13.93,13.83-13.94h229.47c7.63,0.01,13.82,6.25,13.83,13.94
		V664.28z"/>
	<path id="Path_83482" d="M557.86,228.93H283.58c-4.74,0-8.58,3.87-8.58,8.65l0,0v362.9c0,4.78,3.84,8.65,8.58,8.65l0,0h274.31
		c4.74,0,8.58-3.87,8.58-8.65l0,0v-362.9c0-4.78-3.84-8.65-8.58-8.65C557.87,228.93,557.87,228.93,557.86,228.93z M549.27,591.83
		H292.21V246.21h257.16L549.27,591.83z"/>
</g>
</svg>
