<?xml version="1.0" encoding="utf-8"?>
<!-- Generator: Adobe Illustrator 27.1.1, SVG Export Plug-In . SVG Version: 6.00 Build 0)  -->
<svg version="1.1" id="Layer_1" xmlns="http://www.w3.org/2000/svg" xmlns:xlink="http://www.w3.org/1999/xlink" x="0px" y="0px"
	 viewBox="0 0 595.28 841.89" style="enable-background:new 0 0 595.28 841.89;" xml:space="preserve">
<g id="Group_162961" transform="translate(-284.999 -127.26)">
	<g id="Group_162951" transform="translate(-2779.001 -4808.324)">
		<path id="Path_83424" d="M3596.77,5282.56l-203.06-140.73c-15.52-10.69-36.02-10.69-51.54,0l-203.01,140.73
			c-8,5.55-9.98,16.54-4.43,24.54c3.29,4.74,8.7,7.57,14.47,7.58h26.5v230.57c0.04,24.99,20.33,45.22,45.33,45.19h294.01
			c24.96-0.03,45.19-20.26,45.22-45.22v-230.57h26.5c9.74-0.01,17.62-7.91,17.62-17.65c-0.01-5.77-2.84-11.18-7.58-14.47
			L3596.77,5282.56z M3587.44,5297.29c-0.16,0.52-0.43,0.52-0.71,0.52h-34.94c-4.66,0-8.44,3.78-8.44,8.44c0,0,0,0,0,0v238.98
			c-0.01,15.63-12.69,28.3-28.32,28.32h-294.01c-15.63-0.02-28.3-12.69-28.32-28.32v-238.98c0-4.66-3.78-8.44-8.44-8.44h-35.07
			c-0.4,0.03-0.75-0.27-0.78-0.68c-0.02-0.27,0.11-0.54,0.35-0.68l203.06-140.7c9.72-6.69,22.56-6.69,32.28,0l203.12,140.67
			c0.31,0.14,0.45,0.52,0.3,0.83c0,0,0,0.01-0.01,0.01L3587.44,5297.29z"/>
		<path id="Path_83425" d="M3367.96,5285.97c-13.99,0.02-25.32,11.35-25.34,25.34v109.78c0,13.99,11.34,25.34,25.33,25.34
			c13.99,0,25.34-11.34,25.34-25.33c0,0,0-0.01,0-0.01v-109.78C3393.28,5297.32,3381.95,5285.99,3367.96,5285.97z M3376.4,5421.09
			c0,4.67-3.78,8.45-8.45,8.45c-4.67,0-8.45-3.78-8.45-8.45v-109.78c0-4.67,3.78-8.45,8.45-8.45c4.67,0,8.45,3.78,8.45,8.45V5421.09
			z M3367.96,5463.29c-13.99,0-25.34,11.34-25.34,25.33c0,13.99,11.34,25.34,25.34,25.34s25.34-11.34,25.34-25.34l0,0
			C3393.3,5474.64,3381.96,5463.29,3367.96,5463.29z M3367.96,5497.06c-4.66,0-8.44-3.78-8.44-8.44c0-4.66,3.78-8.44,8.44-8.44
			s8.44,3.78,8.44,8.44C3376.4,5493.29,3372.62,5497.06,3367.96,5497.06L3367.96,5497.06z"/>
	</g>
	<path id="Path_83426" d="M588.96,445.46c-80.73,0-146.18,65.45-146.18,146.18s65.45,146.18,146.18,146.18
		s146.18-65.45,146.18-146.18l0,0C735.14,510.91,669.7,445.46,588.96,445.46z M588.96,720.92c-71.4,0-129.28-57.88-129.28-129.28
		c0-71.4,57.88-129.28,129.28-129.28c71.39,0,129.26,57.86,129.28,129.25c0.02,71.4-57.85,129.29-129.25,129.31
		C588.98,720.92,588.97,720.92,588.96,720.92z"/>
</g>
</svg>
