<?xml version="1.0" encoding="utf-8"?>
<!-- Generator: Adobe Illustrator 27.1.1, SVG Export Plug-In . SVG Version: 6.00 Build 0)  -->
<svg version="1.1" id="Layer_1" xmlns="http://www.w3.org/2000/svg" xmlns:xlink="http://www.w3.org/1999/xlink" x="0px" y="0px"
	 viewBox="0 0 595.28 841.89" style="enable-background:new 0 0 595.28 841.89;" xml:space="preserve">
<g id="svgexport-17_5_" transform="translate(-2 -2)">
	<path id="Layer_15" d="M310.1,201.73c-121.92,0-220.76,98.84-220.76,220.76s98.84,220.76,220.76,220.76s220.76-98.84,220.76-220.76
		S432.03,201.73,310.1,201.73C310.1,201.73,310.1,201.73,310.1,201.73z M310.1,611.6c-104.5,0.06-189.27-84.6-189.33-189.1
		c-0.06-104.5,84.6-189.27,189.1-189.33c104.5-0.06,189.27,84.6,189.33,189.1c0,0.08,0,0.15,0,0.23
		C499.14,526.9,414.52,611.53,310.1,611.6z M247.01,422.49c0,17.42-14.12,31.55-31.55,31.55c-17.42,0-31.55-14.12-31.55-31.55
		s14.12-31.55,31.55-31.55c0.01,0,0.02,0,0.03,0C232.9,390.96,247.01,405.08,247.01,422.49z M341.62,422.49
		c0,17.42-14.12,31.55-31.55,31.55c-17.42,0-31.55-14.12-31.55-31.55c0-17.42,14.12-31.55,31.55-31.55c0.01,0,0.02,0,0.03,0
		c17.42,0,31.55,14.12,31.55,31.55H341.62z M436.23,422.49c0,17.42-14.12,31.55-31.55,31.55c-17.42,0-31.55-14.12-31.55-31.55
		s14.12-31.55,31.55-31.55c17.42-0.02,31.56,14.1,31.57,31.52c0,0.01,0,0.02,0,0.03H436.23z"/>
</g>
</svg>
