<?xml version="1.0" encoding="utf-8"?>
<!-- Generator: Adobe Illustrator 27.1.1, SVG Export Plug-In . SVG Version: 6.00 Build 0)  -->
<svg version="1.1" id="Layer_1" xmlns="http://www.w3.org/2000/svg" xmlns:xlink="http://www.w3.org/1999/xlink" x="0px" y="0px"
	 viewBox="0 0 595.28 841.89" style="enable-background:new 0 0 595.28 841.89;" xml:space="preserve">
<g id="Group_162957" transform="translate(-3064 -5019.364)">
	<path id="Path_83454" d="M3462.95,5341.17h-212.51c-4.19,0-7.59,3.4-7.59,7.59s3.4,7.59,7.59,7.59h212.51
		c4.19,0,7.59-3.4,7.59-7.59S3467.15,5341.17,3462.95,5341.17z M3462.95,5379.11h-212.51c-4.19,0-7.59,3.4-7.59,7.59
		s3.4,7.59,7.59,7.59h212.51c4.19,0,7.59-3.4,7.59-7.59S3467.15,5379.11,3462.95,5379.11z M3462.95,5417.05h-212.51
		c-4.19,0-7.59,3.4-7.59,7.59c0,4.19,3.4,7.59,7.59,7.59h212.51c4.19,0,7.59-3.4,7.59-7.59
		C3470.55,5420.45,3467.15,5417.05,3462.95,5417.05z M3462.95,5454.99h-81.2l14.48,15.19h66.71c4.19,0,7.59-3.4,7.59-7.59
		S3467.15,5454.99,3462.95,5454.99z M3242.85,5462.61c0,4.19,3.4,7.59,7.59,7.59l0,0h66.04l14.4-15.19h-80.44
		C3246.25,5455.02,3242.85,5458.42,3242.85,5462.61L3242.85,5462.61z M3242.85,5500.55c0,4.19,3.4,7.59,7.59,7.59l0,0h30.07
		l14.4-15.19h-44.47C3246.25,5492.96,3242.85,5496.36,3242.85,5500.55c0,0.01,0,0.02,0,0.03V5500.55z M3462.95,5508.15
		c4.19,0,7.59-3.4,7.59-7.59s-3.4-7.59-7.59-7.59h-45l14.48,15.19H3462.95z M3356.7,5519.4c-12.58,0-22.78,10.2-22.78,22.78
		c0,12.58,10.2,22.78,22.78,22.78c12.58,0,22.78-10.2,22.78-22.78c-0.08-12.53-10.25-22.64-22.78-22.64V5519.4z M3356.7,5549.74
		c-4.19,0-7.59-3.4-7.59-7.59s3.4-7.59,7.59-7.59c4.19,0,7.59,3.4,7.59,7.59c0.09,4.19-3.23,7.67-7.42,7.76c-0.06,0-0.11,0-0.17,0
		V5549.74z M3531.27,5344.83h-22.78c-12.58,0.02-22.77,10.21-22.78,22.78v215.49c0,1.88,0.46,3.74,1.35,5.4l26.1,48.49
		c1.99,3.69,6.6,5.06,10.29,3.07c1.3-0.7,2.36-1.77,3.07-3.07l26.1-48.49l0,0c0.88-1.65,1.35-3.5,1.35-5.37v-215.38
		c-0.02-12.58-10.21-22.77-22.78-22.78L3531.27,5344.83z M3538.86,5401.75v170.77h-37.97v-170.55L3538.86,5401.75z M3508.52,5360.01
		h22.78c4.19,0,7.59,3.4,7.59,7.59l0,0v18.98h-38v-18.98c0.08-4.14,3.45-7.45,7.59-7.45L3508.52,5360.01z M3519.77,5617.24
		l-15.89-29.53h31.81L3519.77,5617.24z M3250.44,5265.29h37.94c4.19,0,7.6-3.4,7.6-7.59c0-4.19-3.4-7.6-7.59-7.6c0,0,0,0-0.01,0
		h-37.94c-4.19,0-7.6,3.4-7.6,7.59S3246.24,5265.29,3250.44,5265.29C3250.44,5265.29,3250.44,5265.29,3250.44,5265.29z"/>
	<path id="Path_83455" d="M3508.49,5653.1v6.86c0,4.19-3.4,7.59-7.59,7.59l0,0h-41.74v-101.25c-0.13-5.21-2.13-10.2-5.63-14.06
		l-87.75-91.97c-2.32-3-5.78-4.9-9.56-5.23h-0.17c-3.84,0.41-7.32,2.46-9.53,5.62l-86.85,91.57c-3.38,3.92-5.31,8.89-5.46,14.06
		v101.25h-41.71c-4.19,0-7.59-3.4-7.59-7.59l0,0v-440.21c0-4.19,3.4-7.59,7.59-7.59l0,0h187.45l-1.15,81.96
		c-0.14,12.57,9.93,22.87,22.5,23.01c0,0,0,0,0,0l87.19,1.24v11.45h15.19v-14.71c0-1.96-0.75-3.84-2.11-5.26l-106.12-110.53
		c-1.43-1.49-3.41-2.34-5.48-2.33H3212.5c-12.58,0.02-22.77,10.21-22.78,22.78v440.21c0.02,12.58,10.21,22.77,22.78,22.78h288.42
		c12.58-0.02,22.77-10.21,22.78-22.78v-4.16c-5.24,0.92-10.63-0.08-15.19-2.81L3508.49,5653.1z M3421.47,5301.93
		c-4.18-0.03-7.54-3.44-7.51-7.62c0,0,0,0,0,0l1.04-72.82l79.2,81.56L3421.47,5301.93z M3333.95,5667.56v-60.72
		c0-4.19,3.4-7.59,7.59-7.59l0,0h30.35c4.19,0,7.59,3.4,7.59,7.59l0,0v60.72H3333.95z M3394.67,5667.56v-60.72
		c-0.02-12.58-10.21-22.77-22.78-22.78h-30.29c-12.58,0.02-22.77,10.21-22.78,22.78v60.72h-49.39v-101.25
		c0.15-1.33,0.61-2.6,1.35-3.71l85.53-90.17l86.26,90.17c0.76,1.02,1.24,2.22,1.41,3.49v101.25L3394.67,5667.56z"/>
</g>
</svg>
