<?xml version="1.0" encoding="utf-8"?>
<!-- Generator: Adobe Illustrator 27.1.1, SVG Export Plug-In . SVG Version: 6.00 Build 0)  -->
<svg version="1.1" id="Layer_1" xmlns="http://www.w3.org/2000/svg" xmlns:xlink="http://www.w3.org/1999/xlink" x="0px" y="0px"
	 viewBox="0 0 595.28 841.89" style="enable-background:new 0 0 595.28 841.89;" xml:space="preserve">
<g id="Group_162952" transform="translate(-3320 -4976.936)">
	<path id="Path_83427" d="M3494.64,5388.59v16.83h15.41v-15.41h15.41v-23.14c-0.02-12.76-10.35-23.1-23.11-23.11
		c-4.25,0-7.7-3.45-7.7-7.7l0,0v-7.7h7.7c4.25,0,7.7,3.45,7.7,7.7l0,0v7.7h15.41v-7.7c-0.02-9.77-6.19-18.46-15.41-21.71v-16.83
		h-15.41v15.41h-15.41v23.11c0.01,12.76,10.35,23.1,23.11,23.11c4.25,0,7.7,3.45,7.7,7.7l0,0v7.7h-7.7c-4.25,0-7.7-3.45-7.7-7.7l0,0
		v-7.7h-15.41v7.7C3479.24,5376.63,3485.41,5385.34,3494.64,5388.59z"/>
	<path id="Path_83428" d="M3848.87,5405.53c0-2.58,0.27-5.15,0.27-7.7c0-14.64-1.42-29.25-4.25-43.62l-1.51-7.57l-60.48,12.04
		l1.51,7.54c2.05,10.4,3.08,20.98,3.07,31.58c0,2.58-0.22,5.13-0.36,7.7h-46.14c0.16-2.58,0.27-5.15,0.27-7.7
		c0.06-63.83-51.65-115.63-115.48-115.68c-18.7-0.02-37.13,4.51-53.7,13.18l-29.25-36.54c25.02-14.98,53.63-22.89,82.79-22.89h7.7
		v-61.66h-7.68c-23.6-0.05-47.06,3.65-69.5,10.97c0-1.12,0-2.22,0-3.34v-3.1l-2.17-2.25c-19.36-14.09-43.3-20.4-67.08-17.68h-7.7
		v7.7c0,2.74,0,5.21,0.22,7.81c-12.86,0.54-24.42,8.02-30.16,19.55l-1.73,3.45l16.26,32.76v26.29l-42.47,52.99
		c-12.42,15.57-19.19,34.91-19.19,54.83c0,2.11,0.16,4.17,0.33,6.25l-6.96,11.16c-9.41,15.04-11.37,33.58-5.29,50.25l27.42,75.23
		v129.67h138.72v-26.4c22.39,7.3,45.81,11,69.36,10.97c2.58,0,5.13-0.19,7.7-0.27v15.68h7.7
		c123.37-0.15,223.34-100.12,223.49-223.49v-7.7H3848.87z M3800.73,5370.72l30.16-6.03c1.78,10.88,2.69,21.88,2.74,32.9
		c0,2.55-0.16,5.13-0.27,7.7h-30.79c0-2.58,0.36-5.13,0.36-7.7C3802.86,5388.59,3802.13,5379.6,3800.73,5370.72z M3625.65,5297.52
		c55.32,0.06,100.14,44.89,100.2,100.2c0,2.58,0,5.15-0.3,7.7h-92.2v92.09c-23.03,1.81-45.98-4.44-64.92-17.68
		c2.15-8.2,3.25-16.64,3.26-25.11v-24.04c36.06-30.63,41.21-84.39,11.62-121.31l-1.4-1.75
		C3595.55,5300.98,3610.5,5297.53,3625.65,5297.52z M3633.36,5559.2c-2.58,0-5.13,0.36-7.7,0.36c-24,0.04-47.71-5.3-69.36-15.65
		v-36.11c2.59-4.1,4.89-8.39,6.85-12.83c20.82,13.49,45.46,19.84,70.21,18.09V5559.2z M3553.66,5202.66
		c20.6-7.68,42.29-12.03,64.26-12.89v30.84c-26.99,1.15-53.36,8.49-77.06,21.44v-11.54l1.29-1.95
		C3547.43,5220.65,3551.32,5211.89,3553.66,5202.66z M3540.78,5185.66c-0.67,12.26-4.63,24.12-11.46,34.32l-0.3,0.47h-21.93
		c-7.05-14.42-11.22-30.07-12.28-46.08C3510.84,5174.11,3526.68,5178,3540.78,5185.66z M3525.45,5235.86v15.41h-46.25v-15.41
		H3525.45z M3481.04,5189.61h0.16c1.8,10.58,4.82,20.92,8.99,30.81h-13.93l-11.38-22.75
		C3468.69,5192.58,3474.68,5189.59,3481.04,5189.61z M3433.36,5318.98l41.84-52.28h54.12l41.97,52.28
		c24.91,31.11,19.88,76.52-11.23,101.43c-12.8,10.25-28.71,15.83-45.11,15.83h-25.22c-5.94-0.05-11.85-0.83-17.6-2.33
		c-5.13-10.02-12.86-18.48-22.37-24.51l12.58-44c0.98-3.41,1.48-6.95,1.48-10.5c-0.03-14.65-11.91-26.52-26.57-26.54
		c-5.32-0.02-10.27,2.72-13.08,7.24l-1.92,3.07C3424.9,5331.56,3428.65,5324.92,3433.36,5318.98z M3404.69,5426.45
		c-4.4-12.23-2.93-25.8,4-36.79l28.54-45.89c6.14,0.02,11.12,4.99,11.13,11.13c0,2.12-0.29,4.24-0.88,6.28l-16.01,55.98l5.73,2.74
		c16.41,8.12,26.74,24.9,26.59,43.21v4.06h15.41v-4.06c-0.04-4.09-0.47-8.17-1.29-12.17c3.91,0.54,7.85,0.81,11.79,0.82h25.22
		c14.43,0.01,28.64-3.57,41.34-10.42v13.46c0.02,15.22-4.12,30.16-11.95,43.21h-113.69L3404.69,5426.45z M3432.98,5621.1v-107.8
		h107.88v107.91L3432.98,5621.1z M3625.65,5605.66c-23.64-0.02-47.1-4.1-69.36-12.04v-32.9c21.92,9.37,45.52,14.18,69.36,14.12
		c2.58,0,5.13-0.25,7.7-0.36v31.17c-2.58,0-5.13,0.27-7.7,0.27V5605.66z M3648.76,5620.94V5420.8h200.13
		c-4.14,108.79-91.34,196.05-200.13,200.27V5620.94z"/>
	<path id="Path_83429" d="M3748.97,5513.27c-12.76,0-23.11,10.35-23.11,23.11c0,12.76,10.35,23.11,23.11,23.11
		c12.76,0,23.11-10.35,23.11-23.11v0C3772.07,5523.62,3761.73,5513.28,3748.97,5513.27z M3748.97,5544.08
		c-4.25,0.18-7.84-3.12-8.03-7.37c-0.18-4.25,3.12-7.84,7.37-8.03c4.25-0.18,7.84,3.12,8.03,7.37c0,0.11,0.01,0.21,0.01,0.32
		c0.02,4.14-3.24,7.55-7.37,7.73V5544.08z M3687.31,5482.37c12.76,0,23.11-10.35,23.11-23.11s-10.35-23.11-23.11-23.11
		c-12.76,0-23.11,10.35-23.11,23.11l0,0C3664.22,5472.02,3674.56,5482.36,3687.31,5482.37z M3687.31,5451.56
		c4.25,0,7.7,3.45,7.7,7.7c0,4.25-3.45,7.7-7.7,7.7s-7.7-3.45-7.7-7.7c0,0,0,0,0,0c0.03-4.23,3.47-7.65,7.7-7.65V5451.56z
		 M3666.01,5546.88l92.5-107.85l11.71,10.03l-92.5,107.85L3666.01,5546.88z M3775.21,5335.78l2.96,7.13l56.97-23.6l-2.96-7.13
		c-28.48-69.06-89.64-119.28-162.93-133.76l-7.54-1.48l-12.04,60.48l7.57,1.51c53.11,10.43,97.45,46.78,118.1,96.8L3775.21,5335.78z
		 M3745.49,5266.94c-4.77-4.38-9.77-8.48-15-12.31l17.13-25.66c6.88,4.98,13.44,10.37,19.66,16.15L3745.49,5266.94z
		 M3717.77,5246.11c-5.53-3.35-11.24-6.4-17.11-9.13l11.62-28.48c7.71,3.53,15.2,7.53,22.43,11.98L3717.77,5246.11z
		 M3786.47,5322.87c-2.74-5.86-5.8-11.58-9.16-17.11l25.66-17.13c4.45,7.23,8.46,14.71,12.01,22.43L3786.47,5322.87z
		 M3794.4,5275.85l-25.66,17.13c-3.82-5.22-7.92-10.23-12.28-15l21.93-21.93c5.7,6.23,11.01,12.8,15.9,19.68L3794.4,5275.85z
		 M3673.91,5195.17c8.26,1.97,16.39,4.44,24.34,7.4l-11.82,28.51c-6.08-2.16-12.28-3.99-18.56-5.48L3673.91,5195.17z"/>
</g>
</svg>
