<?xml version="1.0" encoding="utf-8"?>
<!-- Generator: Adobe Illustrator 27.1.1, SVG Export Plug-In . SVG Version: 6.00 Build 0)  -->
<svg version="1.1" id="Layer_1" xmlns="http://www.w3.org/2000/svg" xmlns:xlink="http://www.w3.org/1999/xlink" x="0px" y="0px"
	 viewBox="0 0 595.28 841.89" style="enable-background:new 0 0 595.28 841.89;" xml:space="preserve">
<g id="Group_162956" transform="translate(-3193 -5019.003)">
	<g id="Group_162954">
		<path id="Path_83451" d="M3376.03,5371.69c-3.25-3.25-8.51-3.25-11.76-0.01s-3.25,8.51-0.01,11.76c3.25,3.25,8.51,3.25,11.76,0.01
			c0,0,0,0,0.01-0.01C3379.27,5380.2,3379.27,5374.94,3376.03,5371.69z M3488.6,5598.91c9.51-12.95,6.73-31.15-6.22-40.67
			c-4.99-3.67-11.02-5.65-17.22-5.65h-141.31c-16.05-0.03-29.08,12.96-29.11,29.02c-0.01,6.22,1.98,12.29,5.67,17.3
			c-13.69,7.17-22.27,21.34-22.29,36.79v8.32c0,4.59,3.72,8.32,8.32,8.32h216.1c4.59,0,8.32-3.72,8.32-8.32v-8.32
			C3510.85,5620.26,3502.28,5606.09,3488.6,5598.91L3488.6,5598.91z M3315.03,5572.86c2.34-2.35,5.51-3.66,8.83-3.65h141.31
			c6.88-0.32,12.72,5,13.04,11.89s-5,12.72-11.89,13.04c-0.38,0.02-0.77,0.02-1.15,0h-141.31c-6.89,0.02-12.49-5.56-12.51-12.45
			c-0.01-3.33,1.32-6.53,3.68-8.88V5572.86z M3294.76,5635.71c0.01-13.76,11.17-24.92,24.93-24.93h149.61
			c13.76,0.01,24.92,11.17,24.93,24.93h-199.49H3294.76z"/>
		<path id="Path_83452" d="M3695.99,5576.04c-2.76-4.3-6.14-8.17-10.03-11.49l-38.82-33.84c-0.31-0.46-0.67-0.89-1.07-1.28
			c-0.65-0.65-1.41-1.19-2.24-1.6l-23.49-20.48l-108.73-94.95c9.49-9.95,9.11-25.72-0.84-35.21c-1.93-1.84-4.14-3.35-6.55-4.49
			l10.16-9.97c11.43,3.03,23.61-0.24,32-8.59c12.99-12.98,12.99-34.03,0.01-47.02c0,0-0.01-0.01-0.01-0.01l-70.44-70.6
			c-12.96-12.98-34-13-46.98-0.03c-8.38,8.37-11.67,20.58-8.64,32.03l-100.33,100.47c-2.81-0.75-5.7-1.12-8.61-1.12
			c-18.36,0.02-33.23,14.93-33.21,33.29c0.01,8.79,3.5,17.23,9.72,23.45l70.52,70.52c13.01,12.96,34.07,12.91,47.02-0.11
			c8.32-8.35,11.59-20.49,8.6-31.89l10.03-10.03c5.94,12.42,20.83,17.67,33.25,11.73c2.37-1.14,4.55-2.64,6.45-4.45l115.8,133.05
			c0.32,0.51,0.7,0.98,1.12,1.41l0.45,0.43l34.53,39.43c0.87,1.03,1.76,2.02,2.67,2.96c9.29,9.37,21.95,14.63,35.14,14.61
			c2.34,0,4.67-0.16,6.99-0.48c15.74-2.22,29.5-11.75,37.11-25.7c8.67-15.77,8.03-35.01-1.65-50.18L3695.99,5576.04z
			 M3440.69,5248.27c6.47-6.5,16.99-6.52,23.49-0.05c0.02,0.02,0.03,0.03,0.05,0.05l70.5,70.52c6.49,6.49,6.49,17.02,0,23.52
			c-6.49,6.49-17.02,6.49-23.52,0l-70.52-70.52l0,0C3434.2,5265.29,3434.2,5254.77,3440.69,5248.27z M3393.65,5483.36
			c-6.5,6.49-17.02,6.49-23.52,0l-70.5-70.52c-6.15-6.8-5.63-17.31,1.18-23.46c6.34-5.73,15.99-5.72,22.31,0.03l70.52,70.47
			C3400.13,5466.36,3400.13,5476.87,3393.65,5483.36z M3428.66,5424.86l-23.25,23.2l-70.52-70.47l94.04-94.04l70.52,70.52
			l-23.28,23.28l-0.24,0.21l-46.98,47.01C3428.96,5424.57,3428.66,5424.86,3428.66,5424.86z M3458.34,5442.19L3458.34,5442.19
			l-5.87,5.87c-3.32,3.18-8.59,3.06-11.76-0.26c-3.04-3.17-3.08-8.16-0.1-11.39l47.19-47.17c3.3-3.2,8.57-3.11,11.76,0.19
			c1.5,1.55,2.34,3.62,2.34,5.78c0.01,2.2-0.87,4.31-2.43,5.87l-5.92,5.84l0,0l-35.22,35.3V5442.19z M3475.56,5448.48l24.29-24.29
			l102.87,89.72l-37.54,37.54l-89.61-102.95V5448.48z M3576.22,5564.04l39.14-39.14l12.56,10.96l-40.77,40.77l-10.93-12.56V5564.04z
			 M3683.22,5618.09c-5.09,9.39-14.31,15.83-24.88,17.36c-10.33,1.48-20.75-2.01-28.1-9.41c-0.64-0.64-1.24-1.3-1.81-1.97l0,0
			l-30.24-34.66l42.18-42.69l34.66,30.26l0,0c2.67,2.31,4.98,5.01,6.85,8c6.29,10.01,6.7,22.63,1.09,33.04L3683.22,5618.09z"/>
	</g>
	<g id="Group_162955">
		<path id="Path_83453" d="M3434.79,5312.96c-3.25-3.24-8.51-3.24-11.76,0l-35.28,35.27c-3.35,3.14-3.53,8.41-0.39,11.76
			c3.14,3.35,8.41,3.53,11.76,0.39c0.13-0.12,0.26-0.25,0.39-0.39l35.28-35.28C3438.04,5321.47,3438.04,5316.21,3434.79,5312.96z"/>
	</g>
</g>
</svg>
