<?xml version="1.0" encoding="utf-8"?>
<!-- Generator: Adobe Illustrator 27.1.1, SVG Export Plug-In . SVG Version: 6.00 Build 0)  -->
<svg version="1.1" id="Layer_1" xmlns="http://www.w3.org/2000/svg" xmlns:xlink="http://www.w3.org/1999/xlink" x="0px" y="0px"
	 viewBox="0 0 595.28 841.89" style="enable-background:new 0 0 595.28 841.89;" xml:space="preserve">
<path id="Path_83446" d="M521.5,498.93L521.5,498.93c0.01-45.91-25.91-87.9-66.95-108.47v-12.23
	c-0.01-18.71-15.17-33.87-33.88-33.88h-6.42v-8.17c23.76-12.04,33.25-41.05,21.22-64.81c-2.28-4.5-5.25-8.61-8.81-12.19
	l-24.64-24.67c-18.88-18.78-49.41-18.7-68.19,0.18c-2.16,2.17-4.1,4.54-5.81,7.08h-4.54c-14.87-22.09-44.84-27.94-66.93-13.07
	c-2.54,1.71-4.91,3.65-7.08,5.81l-4.26,4.26c-2.43,2.14-2.67,5.84-0.54,8.27c2.14,2.43,5.84,2.67,8.27,0.54
	c0.19-0.17,0.37-0.35,0.54-0.54l4.26-4.26c13.82-13.78,36.04-14.23,50.4-1.02h-10.91c-3.81,0-7.55,1.03-10.81,2.99
	c-0.98-0.12-1.96-0.18-2.94-0.18c-6.35-0.02-12.45,2.51-16.93,7l-24.67,24.67c-7.23,7.22-9.08,18.25-4.59,27.43
	c0,0.59,0,1.18,0,1.75v17.03c-1.46-1.08-2.85-2.27-4.14-3.55c-14.18-14.22-14.18-37.24,0-51.47l3.78-3.88
	c2.27-2.32,2.23-6.04-0.09-8.31c-2.32-2.27-6.04-2.23-8.31,0.09l-3.83,3.83c-18.77,18.89-18.67,49.42,0.22,68.19
	c3.58,3.56,7.69,6.53,12.19,8.81v8.17h-6.32c-18.71,0.01-33.87,15.17-33.88,33.88v12.23c-41,20.57-66.9,62.5-66.92,108.37l0,0l0,0
	c-0.02,67,54.28,121.33,121.28,121.34c26.99,0.01,53.21-8.99,74.52-25.56c52.86,41.12,129.04,31.61,170.17-21.24
	c16.54-21.26,25.53-47.42,25.56-74.36C521.5,499,521.5,498.98,521.5,498.93z M420.69,356.07c12.23,0.01,22.14,9.93,22.16,22.16
	v15.91c0.01,2.28,1.33,4.35,3.4,5.3c38.72,17.98,63.48,56.8,63.45,99.49l0,0c-0.34,8.09-7.17,14.38-15.27,14.05
	c-7.62-0.32-13.73-6.42-14.05-14.05l0,0c-0.02-44.35-35.98-80.29-80.33-80.27c-36.62,0.01-68.6,24.81-77.73,60.27
	c-8.16-7.04-19.79-8.39-29.34-3.4c7.29-33.5,29.82-61.67,60.91-76.14c2.07-0.96,3.39-3.03,3.4-5.3v-15.86
	c0.01-9.29,5.8-17.59,14.52-20.81v5.08c0.01,11.66,9.47,21.11,21.13,21.1c11.65-0.01,21.09-9.45,21.1-21.1v-6.42H420.69z
	 M350.34,545.95c-6.21-6.6-11.06-14.36-14.26-22.84c7.21,3.03,15.39,2.69,22.33-0.91C356.64,530.4,353.93,538.37,350.34,545.95z
	 M360.92,499.03c-0.34,8.09-7.17,14.38-15.27,14.05c-7.62-0.32-13.73-6.42-14.05-14.05l0,0l0,0l0,0
	c-0.04-17.54,6.67-34.42,18.73-47.15c6.98,14.7,10.6,30.76,10.61,47.03l0,0L360.92,499.03z M182.74,499.03L182.74,499.03
	L182.74,499.03c-0.09-37.84,30.52-68.59,68.37-68.68c14.71-0.03,29.03,4.67,40.86,13.4c-8.67,16.98-13.2,35.76-13.22,54.82
	c0,0,0,0.2,0,0.3l0,0c-0.02,19.16,4.52,38.05,13.25,55.1c-30.47,22.44-73.37,15.93-95.81-14.55c-8.64-11.74-13.32-25.93-13.35-40.5
	L182.74,499.03z M279.46,345.33v-8.71c4.98-2.35,9.51-5.54,13.4-9.44l24.64-24.64c3.26-3.27,6.03-7,8.22-11.07
	c2.21,4.05,4.98,7.76,8.25,11.01l24.64,24.64c3.89,3.9,8.42,7.09,13.4,9.44v8.58c-15.35,3.57-26.22,17.24-26.24,32.99v12.31
	c-7.08,3.57-13.8,7.82-20.05,12.69c-6.24-4.87-12.95-9.12-20.02-12.69v-12.23c-0.03-15.76-10.9-29.42-26.24-32.99V345.33z
	 M300.42,285.56c0.47-0.47,0.92-0.96,1.35-1.47h14.67c-1.81,3.78-4.25,7.21-7.23,10.15l-24.64,24.64c-1.56,1.56-3.26,2.98-5.08,4.24
	v-16.67L300.42,285.56z M375.36,262.98c0-1.5-0.16-3-0.48-4.47c0.64,0.43,1.23,0.93,1.78,1.47l24.64,24.64
	c0.69,0.7,1.3,1.47,1.8,2.31c-9.48-5.11-21.29-2.25-27.38,6.62l-11.88-11.88c7.07-3.61,11.51-10.87,11.52-18.81V262.98z
	 M402.55,305.44v57.1c0,5.19-4.21,9.4-9.4,9.4c-5.19,0-9.4-4.21-9.4-9.4v-57.1c0-5.19,4.21-9.4,9.4-9.4
	C398.34,296.03,402.55,300.24,402.55,305.44L402.55,305.44z M349.71,283.99c0.43,0.51,0.86,0.99,1.35,1.47l20.96,20.99v16.72
	c-1.82-1.26-3.52-2.68-5.08-4.24l-24.67-24.67c-2.97-2.94-5.41-6.38-7.21-10.15h14.67L349.71,283.99z M368.11,232.14
	c9.66-0.03,18.92,3.81,25.73,10.66l24.64,24.64c14.21,14.21,14.21,37.26,0,51.47c0,0,0,0,0,0c-1.29,1.28-2.67,2.47-4.14,3.55v-17.03
	c0-0.58,0-1.17,0-1.75c4.45-9.22,2.54-20.25-4.75-27.43l-24.67-24.67c-4.46-4.47-10.51-6.99-16.83-7c-0.98,0-1.97,0.06-2.94,0.18
	c-3.27-1.96-7-3-10.81-2.99h-10.91C350.15,235.55,358.96,232.11,368.11,232.14z M297.22,253.41h57.03c5.19,0,9.4,4.21,9.4,9.4
	c0,5.19-4.21,9.4-9.4,9.4h-57.03c-5.19,0-9.4-4.21-9.4-9.4C287.82,257.62,292.03,253.41,297.22,253.41L297.22,253.41z M274.81,259.8
	c0.55-0.54,1.14-1.04,1.78-1.47c-2.04,9.36,2.5,18.92,11.04,23.27l-11.88,11.88c-6.07-8.93-17.9-11.83-27.41-6.73
	c0.51-0.84,1.11-1.61,1.8-2.31L274.81,259.8z M267.73,305.49v57.05c0,5.22-4.23,9.45-9.45,9.45c-5.22,0-9.45-4.23-9.45-9.45v-57.1
	c0-5.19,4.21-9.4,9.4-9.4s9.4,4.21,9.4,9.4l0,0L267.73,305.49z M159.39,439.18c11.24-17.29,27.13-31.06,45.83-39.74
	c2.07-0.96,3.39-3.03,3.4-5.3v-15.91c0.01-12.23,9.93-22.14,22.16-22.16h6.45v6.47c0.01,11.66,9.47,21.11,21.13,21.1
	c11.65-0.01,21.09-9.45,21.1-21.1v-5.08c8.72,3.22,14.51,11.52,14.52,20.81v15.91c0.01,2.28,1.33,4.35,3.4,5.3
	c6.81,3.16,13.27,7.01,19.29,11.5c-6.9,6.55-13.01,13.88-18.2,21.85l-0.48,0.79c-36.12-25.74-86.26-17.32-111.99,18.8
	c-5.71,8.02-9.91,17.02-12.36,26.56c-8.16-7.04-19.79-8.39-29.34-3.4c2.82-12.94,7.98-25.26,15.23-36.34L159.39,439.18z
	 M251.36,608.54c-60.51-0.07-109.54-49.1-109.61-109.61l0,0c0.34-8.09,7.17-14.38,15.27-14.05c7.62,0.32,13.73,6.42,14.05,14.05l0,0
	c0.01,44.33,35.96,80.26,80.3,80.25c16.71,0,33-5.22,46.6-14.93c5.31,8.27,11.6,15.87,18.73,22.64
	C297.8,600.93,274.9,608.52,251.36,608.54z M400.24,608.54c-60.51-0.07-109.54-49.1-109.61-109.61l0,0
	c0.34-8.09,7.17-14.38,15.27-14.05c7.62,0.32,13.73,6.42,14.05,14.05l0,0l0,0c0.09,44.36,36.13,80.25,80.49,80.16
	c13.08-0.03,25.95-3.25,37.5-9.38c2.94-1.36,4.22-4.84,2.87-7.78c-1.36-2.94-4.84-4.22-7.78-2.87c-0.2,0.09-0.4,0.2-0.6,0.32
	c-23.34,12.41-51.73,10.28-72.97-5.46c8.63-16.94,13.16-35.68,13.22-54.69c0-0.13,0-0.28,0-0.41l0,0
	c-0.03-19.15-4.58-38.02-13.3-55.07c30.29-22.69,73.23-16.54,95.93,13.75c20.31,27.11,17.77,64.99-5.98,89.14
	c-2.32,2.26-2.36,5.97-0.1,8.29c2.26,2.32,5.97,2.36,8.29,0.1c0.08-0.08,0.16-0.16,0.24-0.24c9.72-10,16.65-22.38,20.1-35.89
	c8.15,7.03,19.77,8.37,29.31,3.4c-11.04,50.27-55.53,86.13-107,86.24H400.24z"/>
</svg>
