<?xml version="1.0" encoding="utf-8"?>
<!-- Generator: Adobe Illustrator 27.1.1, SVG Export Plug-In . SVG Version: 6.00 Build 0)  -->
<svg version="1.1" id="Layer_1" xmlns="http://www.w3.org/2000/svg" xmlns:xlink="http://www.w3.org/1999/xlink" x="0px" y="0px"
	 viewBox="0 0 595.28 841.89" style="enable-background:new 0 0 595.28 841.89;" xml:space="preserve">
<style type="text/css">
	.st0{fill:#1A322E;}
</style>
<g id="Group_162953" transform="translate(-3063 -4978)">
	<path id="Path_83447" class="st0" d="M3461.3,5586.16h-18.04v-192.09c8.97-2.06,16.66-7.82,21.16-15.85
		c22.44,7,42.23,20.63,56.78,39.09c4.27,5.33,10.26,9.03,16.95,10.45c1.53,0.28,3.09,0.41,4.65,0.4
		c9.07,0.02,17.51-4.67,22.29-12.38c2.11-3.38,1.08-7.83-2.3-9.94c-3.38-2.11-7.83-1.08-9.95,2.29l0,0
		c-2.58,4.11-7.4,6.25-12.18,5.4c-3.24-0.82-6.13-2.68-8.23-5.28c-16.38-20.77-38.67-36.09-63.94-43.91v-1.91
		c0.04-15.19-10.45-28.38-25.26-31.75v-11.55c0-3.99-3.23-7.22-7.22-7.22s-7.22,3.23-7.22,7.22v11.55
		c-12.15,2.78-21.64,12.27-24.42,24.42c-22.7,0.1-44.89,6.68-63.97,18.97c-2.86,1.73-6.2,2.48-9.53,2.14
		c-4.81-0.81-8.63-4.49-9.61-9.27c-0.57-3.95-4.22-6.69-8.17-6.12s-6.69,4.22-6.12,8.17c0.04,0.28,0.1,0.56,0.17,0.84
		c2.16,10.55,10.57,18.7,21.19,20.53c1.37,0.25,2.76,0.38,4.16,0.38c5.41-0.08,10.71-1.58,15.36-4.36
		c16.86-10.88,36.49-16.68,56.55-16.71c2.78,12.15,12.27,21.64,24.42,24.42v192.09h-18.04c-19.93,0-36.09,16.16-36.09,36.08
		c0,3.99,3.23,7.22,7.22,7.22h108.26c3.99,0,7.22-3.23,7.22-7.22C3497.39,5602.31,3481.23,5586.16,3461.3,5586.16z M3418,5362.43
		c0-9.96,8.08-18.04,18.04-18.04s18.04,8.08,18.04,18.04c0,9.96-8.08,18.04-18.04,18.04S3418,5372.39,3418,5362.43z
		 M3390.35,5615.02c3.06-8.66,11.25-14.44,20.44-14.43h50.52c9.18-0.01,17.38,5.77,20.44,14.43H3390.35z"/>
	<path id="Path_83448" class="st0" d="M3270.89,5517.33c20.04,32.43,62.57,42.47,95,22.43c9.12-5.63,16.8-13.32,22.43-22.43
		c0.95-1.85,1.05-4.02,0.29-5.95c-0.07-0.21-0.14-0.41-0.23-0.61l-50.52-101.04c-1.79-3.6-6.16-5.06-9.76-3.27
		c-1.36,0.68-2.47,1.76-3.18,3.09l-54.13,101.04c-0.01,0.12-0.01,0.23,0,0.35c-0.99,2.01-0.99,4.37,0,6.38H3270.89z
		 M3329.61,5535.64c-14,0.2-27.56-4.96-37.88-14.43h75.78C3357.19,5530.68,3343.62,5535.84,3329.61,5535.64z M3331.2,5428.65
		l39.06,78.12h-80.83L3331.2,5428.65z M3604.95,5547.01c0.01-0.13,0.01-0.25,0-0.38l-54.13-101.04c-1.86-3.52-6.23-4.87-9.75-3
		c-1.34,0.71-2.42,1.82-3.09,3.18l-50.52,101.04c-0.02,0.13-0.02,0.27,0,0.4c-0.93,1.96-0.93,4.22,0,6.18
		c20.04,32.43,62.57,42.47,95,22.43c9.12-5.63,16.8-13.32,22.43-22.43c1-1.99,1.02-4.34,0.06-6.35V5547.01z M3544.53,5464.71
		l41.86,78.12h-80.83L3544.53,5464.71z M3546.12,5571.69c-14,0.2-27.56-4.96-37.88-14.43h75.78c-10.32,9.49-23.89,14.66-37.9,14.46
		V5571.69z"/>
	<path id="Path_83449" class="st0" d="M3411.97,5550.88c3.39-2.03,4.5-6.43,2.47-9.82s-6.43-4.5-9.82-2.47
		c-0.36,0.22-0.7,0.46-1.02,0.74c-12.15,8.92-24.51,16.92-36.49,24.65c-18.79,10.57-35.91,23.88-50.78,39.49
		c-14.82-15.63-31.92-28.93-50.72-39.43c-32.21-18.11-60.81-41.98-84.38-70.44c-29.99-42.23-22.66-217.55-20.93-253.87
		c35.77-0.19,71.32-5.47,105.6-15.68c19.51-8.3,36.76-21.14,50.29-37.47c13.53,16.31,30.75,29.17,50.23,37.5
		c34.3,10.2,69.87,15.47,105.66,15.65c0.75,14.72,2.42,51.96,2.08,93.82c0,3.99,3.23,7.22,7.22,7.22s7.22-3.23,7.22-7.22
		c0.4-54.36-2.45-101.04-2.48-101.62c-0.3-3.71-3.38-6.59-7.1-6.64c-36.26-0.01-72.34-4.98-107.25-14.78
		c-19.74-8.75-36.85-22.5-49.65-39.9c-2.26-3.24-6.72-4.04-9.97-1.78c-0.7,0.48-1.3,1.09-1.78,1.78
		c-12.84,17.29-29.93,30.97-49.62,39.69c-34.9,9.88-71,14.92-107.27,14.98c-3.82-0.01-6.99,2.97-7.22,6.78
		c-0.49,8.83-13.02,218.82,23.09,269.69c24.6,29.97,54.54,55.12,88.31,74.19c26.44,17.09,51.39,33.26,51.39,46.19
		c0,3.99,3.23,7.22,7.22,7.22c3.99,0,7.22-3.23,7.22-7.22c0-12.99,24.97-29.16,51.41-46.19c12.12-7.88,24.65-15.99,37.12-25.12
		L3411.97,5550.88z"/>
</g>
</svg>
