<?xml version="1.0" encoding="utf-8"?>
<!-- Generator: Adobe Illustrator 27.1.1, SVG Export Plug-In . SVG Version: 6.00 Build 0)  -->
<svg version="1.1" id="Layer_1" xmlns="http://www.w3.org/2000/svg" xmlns:xlink="http://www.w3.org/1999/xlink" x="0px" y="0px"
	 viewBox="0 0 595.28 841.89" style="enable-background:new 0 0 595.28 841.89;" xml:space="preserve">
<g id="Group_162958" transform="translate(-3063 -5061.001)">
	<path id="Path_83458" d="M3289.55,5481.47h42.82c3.93,0,7.12-3.19,7.12-7.12v-42.82c0-3.93-3.19-7.12-7.12-7.12h-42.82
		c-3.93,0-7.12,3.19-7.12,7.12v42.82C3282.43,5478.28,3285.61,5481.47,3289.55,5481.47z M3296.67,5438.65h28.57v28.54h-28.54
		L3296.67,5438.65z M3310.94,5410.11c15.76,0,28.54-12.78,28.54-28.54s-12.78-28.54-28.54-28.54c-15.76,0-28.54,12.78-28.54,28.54
		c-0.01,15.76,12.75,28.56,28.52,28.57c0.02,0,0.03,0,0.05,0L3310.94,5410.11z M3310.94,5367.29c7.88,0,14.27,6.39,14.27,14.27
		s-6.39,14.27-14.27,14.27c-7.88,0-14.27-6.39-14.27-14.27l0,0c0.01-7.88,6.42-14.26,14.3-14.25L3310.94,5367.29z M3368.03,5481.44
		h42.82c3.93,0,7.12-3.19,7.12-7.12v-42.79c0-3.93-3.19-7.12-7.12-7.12h-42.82c-3.93,0-7.12,3.19-7.12,7.12v42.82
		c0,3.93,3.19,7.12,7.12,7.12V5481.44z M3375.16,5438.62h28.54v28.54h-28.52L3375.16,5438.62z M3211.07,5481.47h42.82
		c3.93,0,7.12-3.19,7.12-7.12v-42.82c0-3.93-3.19-7.12-7.12-7.12h-42.82c-3.93,0-7.12,3.19-7.12,7.12v42.82
		C3203.94,5478.28,3207.13,5481.47,3211.07,5481.47z M3218.19,5438.65h28.57v28.54h-28.54L3218.19,5438.65z M3211.07,5552.8h42.82
		c3.93,0,7.12-3.19,7.12-7.12v-42.79c0-3.93-3.19-7.12-7.12-7.12h-42.82c-3.93,0-7.12,3.19-7.12,7.12v42.82
		c0,3.93,3.19,7.12,7.12,7.12V5552.8z M3218.19,5509.98h28.57v28.54h-28.54L3218.19,5509.98z"/>
	<path id="Path_83459" d="M3467.78,5611.9c-2.79,2.78-2.79,7.29-0.02,10.07c0.01,0.01,0.01,0.01,0.02,0.02l20.18,20.18
		c2.78,2.79,7.29,2.79,10.07,0.02c0.01-0.01,0.01-0.01,0.02-0.02l60.55-60.55c2.79-2.78,2.79-7.29,0.02-10.07
		c-0.01-0.01-0.01-0.01-0.02-0.02l-20.18-20.18c-2.78-2.79-7.29-2.79-10.07-0.02c-0.01,0.01-0.01,0.01-0.02,0.02l-50.46-50.43
		c2.79-2.78,2.79-7.29,0.02-10.07c-0.01-0.01-0.01-0.01-0.02-0.02l-20.18-20.18c-2.78-2.79-7.29-2.79-10.07-0.02
		c-0.01,0.01-0.01,0.01-0.02,0.02l-1.08,1.06v-43.2l9.52,8.47c2.93,2.62,7.44,2.37,10.06-0.56c1.18-1.31,1.82-3.02,1.81-4.78v-38.15
		c0-2.04-0.87-3.99-2.4-5.34l-149.79-133.2c-2.7-2.4-6.77-2.4-9.47,0l-149.84,133.2c-1.53,1.35-2.4,3.3-2.4,5.34v38.2
		c-0.02,3.93,3.16,7.14,7.09,7.16c1.76,0.01,3.47-0.64,4.78-1.81l9.52-8.46v174.26c0,3.93,3.19,7.12,7.12,7.12l0,0h206.47
		l-67.52,67.49c-2.79,2.78-2.79,7.29-0.02,10.07c0.01,0.01,0.01,0.01,0.02,0.02l20.18,20.18c2.78,2.79,7.29,2.79,10.07,0.02
		c0.01-0.01,0.01-0.01,0.02-0.02l105.94-105.94L3467.78,5611.9z M3533.39,5566.45l10.09,10.09l-50.46,50.46l-10.09-10.09
		L3533.39,5566.45z M3518.24,5561.29l-40.36,40.36l-50.46-50.46l40.36-40.36L3518.24,5561.29z M3403.26,5595.64h-56.62v-14.27h70.9
		L3403.26,5595.64z M3332.36,5595.64h-42.79v-85.63h42.79V5595.64z M3452.63,5485.72l10.09,10.09l-50.46,50.46l-10.09-10.09
		L3452.63,5485.72z M3387.08,5531.12c-1.94,1.95-2.57,4.85-1.63,7.43h-10.32v-28.54h28.54v4.46L3387.08,5531.12z M3168.27,5396.68
		l142.7-126.85l142.7,126.85v19.07l-137.95-122.62c-2.7-2.4-6.77-2.4-9.47,0l-137.97,122.62V5396.68z M3310.97,5308.03l121.3,107.8
		v70.1l-14.71,14.71c-0.94-2.91-3.63-4.88-6.68-4.9h-42.82c-3.93,0-7.12,3.19-7.12,7.12l0,0v42.82c0,3.93,3.19,7.12,7.12,7.12l0,0
		h30.61l8.57,8.57c2.78,2.79,7.29,2.79,10.07,0.02c0.01-0.01,0.01-0.01,0.02-0.02l5.7,5.7h-76.39v-64.19c0-3.93-3.19-7.12-7.12-7.12
		l0,0h-57.09c-3.93,0-7.12,3.19-7.12,7.12l0,0v64.21h-85.63v-151.34L3310.97,5308.03z M3189.67,5581.37h85.63v14.27h-85.63V5581.37z
		 M3346.69,5692.58l-10.09-10.09l70.66-70.59l10.09,10.09L3346.69,5692.58z M3427.42,5611.9l-10.09-10.09l20.18-20.18l10.09,10.09
		L3427.42,5611.9z M3589.21,5695.57h-7.12c-0.01-15.76-12.79-28.53-28.54-28.54h-71.33c-15.76,0.01-28.53,12.79-28.54,28.54h-7.12
		c-3.94,0-7.14,3.19-7.14,7.14c0,3.94,3.19,7.14,7.14,7.14h142.7c3.94,0,7.14-3.19,7.14-7.14c0-3.94-3.2-7.14-7.14-7.14H3589.21z
		 M3482.18,5681.3h71.36c7.88,0,14.27,6.39,14.27,14.27h-99.88c0-7.88,6.39-14.27,14.27-14.27l0,0H3482.18z"/>
</g>
</svg>
