<?xml version="1.0" encoding="utf-8"?>
<!-- Generator: Adobe Illustrator 27.1.1, SVG Export Plug-In . SVG Version: 6.00 Build 0)  -->
<svg version="1.1" id="Layer_1" xmlns="http://www.w3.org/2000/svg" xmlns:xlink="http://www.w3.org/1999/xlink" x="0px" y="0px"
	 viewBox="0 0 595.28 841.89" style="enable-background:new 0 0 595.28 841.89;" xml:space="preserve">
<style type="text/css">
	.st0{fill:#1A322E;}
</style>
<path id="Path_83421" class="st0" d="M250.27,496.21c1-5.5,1.93-11.07,2.67-16.47c0.67-4.74,5.05-8.03,9.78-7.37
	c4.74,0.67,8.03,5.05,7.37,9.78l0,0c-0.77,5.6-1.74,11.42-2.77,17.12c-0.89,4.71-5.43,7.81-10.14,6.92
	c-4.71-0.89-7.81-5.43-6.92-10.14l0,0L250.27,496.21z M257.03,453.68c0.45-2.7,0.87-5.47,1.19-8.27c0.56-4.75,4.87-8.15,9.62-7.59
	c4.75,0.56,8.15,4.87,7.59,9.62l0,0c-0.36,3.02-0.79,6.04-1.29,9.04c-0.77,4.72-5.22,7.92-9.94,7.14c-4.72-0.77-7.92-5.22-7.14-9.94
	L257.03,453.68z"/>
<path id="Path_83422" class="st0" d="M529.75,296.89h-29.7c-8.42-0.12-15.15-7.05-15.03-15.47c0-0.09,0-0.18,0.01-0.27
	c0-7.93,6.42-14.35,14.35-14.35h30.37c7.11,0.13,12.97-5.53,13.1-12.64c0.04-2.41-0.59-4.79-1.84-6.86l-14.64-25.32
	c-3.1-5.35-8.81-8.64-14.99-8.66H452.2c-6.19,0-11.92,3.3-15.03,8.66l-12.45,21.59h-37.29c2.06-22.07,1.9-43.34-27.28-46.49
	c-11.68-2.28-23.51,3.14-29.41,13.48c-6.12-10.98-18.58-16.8-30.92-14.45c-12.1-0.4-23.24,6.54-28.22,17.57
	c-6.92-4.91-15.63-6.57-23.87-4.57c-15.04,1.02-26.49,13.9-25.74,28.96c-6.96-0.34-13.84,1.63-19.56,5.6h-31.24l-12.45-21.59
	c-3.11-5.36-8.83-8.65-15.03-8.66H84.6c-6.18,0.01-11.89,3.31-14.99,8.66L54.87,247.3c-3.66,6.09-1.69,14,4.4,17.66
	c2.07,1.24,4.45,1.88,6.86,1.84h29.67c8.3,0,15.03,6.72,15.03,15.02c0,8.3-6.72,15.03-15.02,15.03c0,0,0,0-0.01,0H66.22
	c-7.11-0.13-12.97,5.53-13.1,12.64c-0.04,2.41,0.59,4.79,1.84,6.86l14.64,25.35c3.1,5.35,8.81,8.64,14.99,8.66h59.14
	c1.45-0.01,2.88-0.21,4.28-0.58l4.22,7.01c-5.9,10.63-10.62,21.87-14.06,33.53l-35.39,8.88c-7.4,1.83-12.6,8.47-12.61,16.09v43.4
	c0.01,7.62,5.21,14.26,12.61,16.09l35.01,8.75c3.29,11.69,7.85,22.99,13.61,33.69l-18.79,31.24c-3.94,6.54-2.92,14.93,2.48,20.34
	l30.66,30.66c5.4,5.39,13.77,6.41,20.3,2.48L217,583.38c10.62,5.9,21.85,10.62,33.49,14.06l8.91,35.39
	c1.83,7.4,8.47,12.6,16.09,12.61h43.34c7.62-0.01,14.26-5.21,16.09-12.61l8.75-35.01c11.69-3.33,22.97-7.94,33.66-13.74l31.34,18.79
	c6.54,3.97,14.95,2.93,20.34-2.51l30.66-30.63c5.42-5.39,6.45-13.79,2.51-20.34l-18.57-30.95c5.9-10.63,10.62-21.87,14.06-33.53
	l35.39-8.88c7.4-1.83,12.6-8.47,12.61-16.09v-43.12c-0.01-7.62-5.21-14.26-12.61-16.09L458.06,392c-3.32-11.7-7.93-23-13.74-33.69
	l4.96-8.27c0.9,0.19,1.82,0.31,2.73,0.35h59.11c6.18-0.02,11.89-3.31,14.99-8.66l14.64-25.35c3.66-6.09,1.69-14-4.4-17.66
	c-2.06-1.24-4.42-1.87-6.83-1.84H529.75z M360.82,497.79c-1.38-22.01-2.32-45.69-1.74-57.92c0.5-9.2,4.18-17.94,10.42-24.71
	c2.86-3.22,5.89-6.6,8.94-10.26c12.98,31.74,6.07,68.14-17.63,92.92V497.79z M356.71,403.45c-8.95,9.76-14.21,22.33-14.9,35.55
	c-0.77,16.09,0.74,47.49,2.61,72.23c-32.75,20.61-75.18,17.12-104.12-8.56c12-62.84,12.03-77.45,5.86-88.93
	c-21.33-26.51-33.35-59.3-34.2-93.31c5.62,8.81,16.01,13.35,26.29,11.49c5.77-1.75,10.34-6.17,12.29-11.87
	c6.07,3.97,13.52,5.23,20.56,3.47c3.2-0.59,6.25-1.78,9.01-3.51h12.45c-14.75,12.87-25.84,29.39-32.18,47.91
	c-1.55,4.53,0.87,9.46,5.41,11c4.53,1.55,9.46-0.87,11-5.41c7.88-23.15,24.48-42.31,46.27-53.41c8.96,0.74,17.98-0.22,26.58-2.83
	c9.26,11.78,24.22,17.56,39,15.06c4.73-0.75,7.95-5.18,7.21-9.91c-0.75-4.73-5.18-7.95-9.91-7.21l0,0
	c-7.16,1.27-14.5-0.87-19.85-5.79c4.95-3.42,9.3-7.64,12.87-12.48c2.85-3.85,2.05-9.28-1.8-12.13c-3.85-2.85-9.28-2.05-12.13,1.8
	l0,0c-19.79,26.71-69.31,18.47-71.24-6.44c5.3-1.25,10.68-2.21,16.09-2.86c18.6-3.64,13.71-6.18,35.1-14.38
	c21.4-8.2,24.55-6.98,26.06-6.44c3.45,1.5,6.31,4.09,8.14,7.37c10,18.02,18.03,37.08,23.94,56.82c1.94,5.83,2.31,12.07,1.06,18.08
	c-13.43,23.19-29.36,44.84-47.52,64.54L356.71,403.45z M218.8,401.81c3.96,6.44,8.59,13.71,12.07,20.11
	c4.67,8.66,1.16,26.45-5.18,64.06c-16.63-24.99-19.24-56.77-6.92-84.14L218.8,401.81z M358.28,214.26
	c11.52,1.25,13.8,4.38,12.16,24.71c-10.28,0.36-20.38,2.8-29.7,7.18C341.87,216.99,347.18,213.04,358.28,214.26z M300.75,213.39
	c17.79-1,17.5,6.98,19.95,41.83c-4.25,2.78-9.08,4.54-14.13,5.15c-6.03,0.63-12.01,1.71-17.89,3.22
	c-8.17-43.44-1.45-49.68,12.03-50.39L300.75,213.39z M250.37,226.26c13.87-2.06,14.64,2.41,20.3,35.04
	c4.79,26.77,5.95,43.69-2.96,45.46c-10.81,2.19-15.22-7.72-23.1-38.29C236.59,237.33,237.14,228.29,250.37,226.26z M210.92,258.73
	c2.96-2.41,10.49-5.44,12.87-2.51c1.09,5.66,2.45,11,3.89,16.54c2.03,8.47,4.51,16.83,7.43,25.03c1.61,13.45-1.19,17.54-1.67,17.66
	c-7.4,1.96-18.44-23.13-21.11-30.41C205.64,266.38,205.45,263.2,210.92,258.73z M73.72,314.2h22.17c17.88,0,32.37-14.49,32.37-32.37
	c0-17.88-14.49-32.37-32.37-32.37c0,0,0,0,0,0H73.72L84.6,230.6h59.14l13.71,23.78c2.34,3.98,6.61,6.43,11.23,6.44H190
	c-0.54,10.44,1.58,20.84,6.15,30.25c0,0,0,0,0,0.16c-0.55,3.83-0.74,7.79-1.03,11.68H168.7c-4.63-0.01-8.92,2.44-11.26,6.44
	l-13.71,23.75H84.6L73.72,314.2z M449.11,407.51l39.45,9.3l0.51,42.66l-40.38,10.1c-3.07,0.76-5.48,3.15-6.27,6.21
	c-3.51,13.57-8.93,26.56-16.09,38.61c-1.65,2.74-1.65,6.17,0,8.91l21.08,34.43l-30.28,30.25l-35.23-21.11
	c-2.72-1.61-6.1-1.61-8.82,0c-12.07,7.04-25.06,12.35-38.61,15.77c-3.19,0.75-5.68,3.24-6.44,6.44l-9.33,39.45l-42.66,0.51
	l-10.1-40.38c-0.77-3.07-3.15-5.47-6.21-6.27c-13.57-3.51-26.56-8.93-38.61-16.09c-2.74-1.65-6.17-1.65-8.91,0l-34.49,21.3
	l-30.53-29.83l21.4-35.68c1.61-2.72,1.61-6.1,0-8.82c-7.06-12.06-12.38-25.06-15.8-38.61c-0.75-3.19-3.24-5.68-6.44-6.44
	l-38.96-9.52l-0.51-42.66l40.38-10.1c3.12-0.71,5.6-3.09,6.44-6.18c3.51-13.57,8.93-26.57,16.09-38.61c1.65-2.74,1.65-6.17,0-8.91
	l-8.69-14.48l10.1-17.73h23.39c-0.29,22.13,4.5,44.04,14,64.03c-29.73,49.29-13.87,113.34,35.41,143.07
	c35.2,21.23,79.59,19.79,113.34-3.68l0.68-0.51c42.83-29.79,56.8-86.8,32.59-133.01c12.11-14.19,22.34-29.88,30.44-46.69
	c1.79-7.6,1.71-15.51-0.23-23.07h4.09l11,19.08l-8.69,14.48c-1.61,2.73-1.61,6.12,0,8.85c7.06,12.06,12.38,25.06,15.8,38.61
	c0.72,3.08,3.06,5.52,6.11,6.37V407.51z M511.34,333.02H452.2l-13.71-23.78c-2.34-3.98-6.61-6.43-11.23-6.44h-11.62
	c-5.2-14.35-11.38-28.33-18.5-41.83h30.12c4.63,0,8.91-2.45,11.26-6.44l13.71-23.75h59.11l10.88,18.85h-22.88
	c-17.57,0.09-31.75,14.41-31.66,31.98c0,0.07,0,0.13,0,0.2c-0.02,17.9,14.46,32.44,32.37,32.5h22.17L511.34,333.02z"/>
</svg>
