<?xml version="1.0" encoding="utf-8"?>
<!-- Generator: Adobe Illustrator 27.1.1, SVG Export Plug-In . SVG Version: 6.00 Build 0)  -->
<svg version="1.1" id="Layer_1" xmlns="http://www.w3.org/2000/svg" xmlns:xlink="http://www.w3.org/1999/xlink" x="0px" y="0px"
	 viewBox="0 0 595.28 841.89" style="enable-background:new 0 0 595.28 841.89;" xml:space="preserve">
<path id="Path_83423" d="M347.17,395.15c-2.3-17.79-14.03-32.95-30.67-39.65v-66.47l87.05-6.69l-8.11,44.61h-2.59
	c-12.6-0.03-22.83,10.16-22.86,22.76c-0.01,3.24,0.67,6.44,2,9.39c14.34,31.32,51.35,45.09,82.67,30.75
	c13.61-6.23,24.52-17.14,30.75-30.75c5.16-11.49,0.02-24.99-11.47-30.15c-2.95-1.33-6.15-2.01-9.39-2h-2.45l-8.92-48.43l7.25-0.56
	l0,0c10.84-0.82,18.97-10.27,18.15-21.11c-0.73-9.7-8.44-17.42-18.15-18.15l-64.74-4.99c-3.4-0.45-6.53,1.94-6.98,5.34
	c-0.45,3.4,1.94,6.53,5.34,6.98c0.23,0.03,0.46,0.05,0.69,0.05l64.74,4.99c4,0.25,7.03,3.69,6.79,7.68
	c-0.23,3.65-3.14,6.56-6.79,6.79l-143.01,11.01V240.1l49.29,3.79c3.4,0.45,6.53-1.94,6.98-5.34c0.45-3.4-1.94-6.53-5.34-6.98
	c-0.23-0.03-0.46-0.05-0.69-0.05l-50.3-3.88v-0.5c0-10.32-8.37-18.69-18.69-18.69s-18.69,8.37-18.69,18.69v0.5l-143.98,10.99
	c-10.84,0.82-18.97,10.27-18.15,21.11c0.73,9.7,8.44,17.42,18.15,18.15l7.25,0.56l-8.81,48.54h-2.59
	c-12.6-0.03-22.83,10.16-22.86,22.76c-0.01,3.24,0.67,6.44,2,9.39c14.34,31.32,51.35,45.09,82.67,30.75
	c13.61-6.23,24.52-17.14,30.75-30.75c5.16-11.49,0.02-24.99-11.47-30.15c-2.95-1.33-6.15-2.01-9.39-2h-2.59l-8.11-44.61l87.16,6.72
	v66.41c-16.64,6.7-28.37,21.86-30.67,39.65c-74.13,17.78-133.04,73.95-154.33,147.16c-1.09,3.25,0.66,6.78,3.91,7.87
	c3.25,1.09,6.78-0.66,7.87-3.91c0.06-0.17,0.1-0.33,0.15-0.51c6.65-23.06,17.44-44.71,31.84-63.9l25.76,8.59
	c10.89,3.65,17.38,14.83,15.14,26.1c-3.64,17.84,6.97,35.49,24.42,40.65l32.73,9.81c12.74,3.83,19.97,17.26,16.14,30
	c-0.94,3.14-2.52,6.05-4.62,8.56c-3.53,4.23-6.06,9.21-7.39,14.55H98.97c-1.46-15.63-1.1-31.38,1.09-46.92
	c0.66-3.37-1.53-6.64-4.9-7.3s-6.64,1.53-7.3,4.9c-0.04,0.22-0.08,0.45-0.09,0.67c-2.58,18.39-2.76,37.04-0.53,55.48
	c0.33,3.16,2.98,5.56,6.16,5.58h408.69c3.18-0.01,5.83-2.42,6.16-5.58C521.19,520.01,451.93,420.32,347.17,395.15z M474.14,353.94
	c-11.5,25.08-41.16,36.1-66.24,24.6c-10.88-4.99-19.61-13.72-24.6-24.6c-2.31-5.24,0.07-11.36,5.31-13.67
	c1.34-0.59,2.79-0.89,4.25-0.88h71.71c5.73-0.04,10.4,4.57,10.44,10.3C475.03,351.15,474.73,352.6,474.14,353.94z M449.36,326.96
	h-41.26l8.36-45.61l24.31-1.87L449.36,326.96z M495.56,573.21l-38.34,3.21c-16.23,1.46-30.95-9.54-34.16-25.51
	c-3.67-18.07-18.07-32.02-36.25-35.1l-16-2.79c-14.35-2.4-25.28-14.17-26.6-28.66l-7.08-78.68
	C420.29,421.98,483.92,489.27,495.56,573.21z M129.3,258.34c0.02-3.79,2.94-6.95,6.72-7.25l143.06-11.01v36.5l-143.2-11.01
	c-3.78-0.3-6.7-3.45-6.72-7.25L129.3,258.34z M212.17,353.94c-11.5,25.08-41.16,36.1-66.24,24.6c-10.88-4.99-19.61-13.72-24.6-24.6
	c-2.31-5.24,0.07-11.36,5.31-13.67c1.34-0.59,2.79-0.89,4.25-0.88h71.71c5.73-0.04,10.4,4.57,10.44,10.3
	C213.06,351.15,212.76,352.6,212.17,353.94z M146.12,326.98l8.64-47.4l24.31,1.87l8.36,45.64L146.12,326.98z M291.49,227.14
	c0.23-3.46,3.22-6.07,6.68-5.84c3.14,0.21,5.63,2.71,5.84,5.84v125.19c-4.16-0.53-8.36-0.53-12.52,0V227.14z M286.67,365.99
	l0.64-0.2c6.82-1.95,14.06-1.95,20.88,0l0.56,0.2c12.4,3.84,21.91,13.87,25.09,26.46c-23.99-4.14-48.51-4.14-72.49,0
	c3.22-12.64,12.81-22.67,25.29-26.46H286.67z M496.53,620.13H253.13c0.94-2.4,2.26-4.63,3.9-6.61
	c12.93-15.51,10.83-38.56-4.67-51.48c-3.79-3.16-8.17-5.51-12.89-6.93l-32.73-9.79c-11.3-3.35-18.16-14.78-15.81-26.32
	c3.46-17.42-6.58-34.69-23.42-40.32l-21.39-7.14c43.94-51.68,111.25-77.33,178.44-68l7.44,81.92c1.83,20.11,17,36.46,36.92,39.79
	l16,2.79c13.08,2.24,23.45,12.28,26.1,25.29c4.39,22.15,24.73,37.46,47.23,35.55l38.62-3.21c0.86,11.49,0.74,23.02-0.36,34.49
	L496.53,620.13z"/>
</svg>
