<?xml version="1.0" encoding="utf-8"?>
<!-- Generator: Adobe Illustrator 27.1.1, SVG Export Plug-In . SVG Version: 6.00 Build 0)  -->
<svg version="1.1" id="Layer_1" xmlns="http://www.w3.org/2000/svg" xmlns:xlink="http://www.w3.org/1999/xlink" x="0px" y="0px"
	 viewBox="0 0 595.28 841.89" style="enable-background:new 0 0 595.28 841.89;" xml:space="preserve">
<path id="Path_83456" d="M251.07,288.36c16.76,0,30.35-13.59,30.35-30.35s-13.59-30.35-30.35-30.35
	c-16.76,0-30.35,13.59-30.35,30.35C220.75,274.76,234.32,288.34,251.07,288.36z M251.07,238.74c10.64,0,19.27,8.63,19.27,19.27
	s-8.63,19.27-19.27,19.27c-10.64,0-19.27-8.63-19.27-19.27v0c0.01-10.63,8.64-19.25,19.27-19.25V238.74z M433.5,380.4v-42.23h14.09
	c3.07,0,5.55-2.49,5.55-5.55l0,0v-31.78c0-2.06-1.16-3.95-2.99-4.9l0,0L253.73,192.64c-1.62-0.85-3.56-0.85-5.18,0L52.13,295.93l0,0
	c-1.83,0.95-2.99,2.84-2.99,4.9v31.78c0,3.07,2.49,5.55,5.55,5.55c0,0,0,0,0,0h14.09v156.6H54.7c-3.07,0-5.55,2.49-5.55,5.55l0,0
	v31.78c0,3.07,2.49,5.55,5.55,5.55c0,0,0,0,0,0h238.68c12.87,72.99,82.47,121.72,155.45,108.85
	c72.99-12.87,121.72-82.47,108.85-155.45C546.89,429.86,495.52,384.08,433.5,380.4z M422.39,380.19c-9.5,0.22-18.95,1.45-28.19,3.67
	v-45.7h28.19V380.19z M292.75,494.76h-16.41v-156.6H383.1v48.89c-47.94,16.09-82.82,57.69-90.3,107.71H292.75z M225.89,338.16v156.6
	H119.12v-156.6H225.89z M237,338.16h28.16v156.6h-28.19L237,338.16z M251.09,203.82l173.96,91.45H77.13L251.09,203.82z
	 M60.15,306.38h381.89v20.73H60.15L60.15,306.38z M79.8,338.16h28.19v156.6H79.85L79.8,338.16z M60.15,526.6v-20.68h231.32
	c-0.18,2.83-0.28,5.66-0.28,8.49c0,4.1,0.2,8.17,0.55,12.19H60.15z M425.41,637.52c-67.99,0-123.11-55.12-123.11-123.11
	S357.42,391.3,425.41,391.3c67.99,0,123.11,55.12,123.11,123.11c-0.11,67.92-55.16,122.95-123.09,123.03L425.41,637.52z
	 M523.9,514.76l-82.86-47.96l7.31-12.56c3.24-0.22,6.16-2.05,7.76-4.87l4.3-7.54c2.71-4.7,1.11-10.72-3.59-13.44l-39.07-22.61
	c-4.7-2.71-10.72-1.11-13.44,3.59l-4.3,7.54c-1.33,2.28-1.68,5-0.98,7.54c0.16,0.59,0.37,1.16,0.63,1.71l-31.98,55.27
	c-3.25,0.25-6.16,2.08-7.79,4.9l-4.3,7.54c-2.71,4.7-1.11,10.72,3.59,13.44l39.07,22.61c1.49,0.86,3.18,1.31,4.9,1.31
	c0.85-0.01,1.69-0.13,2.51-0.35c2.52-0.66,4.68-2.31,5.98-4.57l4.3-7.54c1.63-2.82,1.76-6.26,0.35-9.2L423.6,497l82.91,47.89
	c8.31,4.78,18.91,1.94,23.72-6.36v-0.15c4.66-8.3,1.88-18.79-6.28-23.69L523.9,514.76z M407.55,502.58l-29.32-17.19l30.15-52.41
	l29.47,17.01L407.55,502.58z M413.22,416.12l36.91,21.31l-3.04,5.28l-36.91-21.31L413.22,416.12z M402.67,519.61l-36.91-21.31
	l3.04-5.28l36.91,21.31L402.67,519.61z M520.61,533c-1.75,2.94-5.54,3.94-8.52,2.24l-82.91-47.89l6.26-10.85l82.91,47.89
	c2.99,1.73,4.01,5.55,2.29,8.54L520.61,533z M445.71,556.37h-87.94c-13.46,1.64-23.2,13.67-21.98,27.18c0,3.07,2.49,5.55,5.55,5.55
	l0,0h120.92c3.07,0,5.55-2.49,5.55-5.55l0,0c1.25-13.57-8.55-25.67-22.08-27.26L445.71,556.37z M347.45,578.03
	c1.56-6.08,5.6-10.55,10.2-10.55h87.94c4.6,0,8.62,4.45,10.2,10.55H347.45z"/>
</svg>
