<?xml version="1.0" encoding="utf-8"?>
<!-- Generator: Adobe Illustrator 27.1.1, SVG Export Plug-In . SVG Version: 6.00 Build 0)  -->
<svg version="1.1" id="Layer_1" xmlns="http://www.w3.org/2000/svg" xmlns:xlink="http://www.w3.org/1999/xlink" x="0px" y="0px"
	 viewBox="0 0 595.28 841.89" style="enable-background:new 0 0 595.28 841.89;" xml:space="preserve">
<g id="svgexport-17_3_" transform="translate(-2)">
	<path id="Path_83776" d="M568.62,473.57c-1.91-3.15-5.32-5.08-9-5.1h-1.95L480.7,298.99h18c12.09,0,21.89-9.8,21.89-21.89
		s-9.8-21.89-21.89-21.89H323.62v-28.81c19.62-13.08,24.92-39.59,11.83-59.21c-13.08-19.62-39.59-24.92-59.21-11.83
		c-19.62,13.08-24.92,39.59-11.83,59.21c3.13,4.69,7.15,8.71,11.83,11.83v28.81H101.09c-12.09,0-21.89,9.8-21.89,21.89
		c0,12.09,9.8,21.89,21.89,21.89h18L42.19,468.44h-1.92c-5.92,0.01-10.7,4.82-10.69,10.73c0,1.67,0.4,3.32,1.15,4.81l13.83,27.28
		c5.33,10.56,16.17,17.2,28,17.16h123.03c11.83,0.03,22.66-6.61,28-17.16l13.89-27.37c2.68-5.27,0.59-11.72-4.68-14.41
		c-1.5-0.77-3.17-1.17-4.86-1.17h-1.86l-76.91-169.33h127.05V597.7H218.6c-14.2,0.02-25.7,11.52-25.72,25.72v13.86h-12.93
		c-14.2,0.02-25.7,11.52-25.72,25.72v21.99c0,4.42,3.59,8.01,8.01,8.01l0,0h275.4c4.42,0,8.01-3.59,8.01-8.01l0,0V663
		c-0.02-14.2-11.52-25.7-25.72-25.72h-12.9V623.3c-0.02-14.2-11.52-25.7-25.72-25.72h-57.7v-231.2c0-4.42-3.59-8.01-8.01-8.01
		s-8.01,3.59-8.01,8.01V597.7h-15.33V290.98c0-4.42-3.59-8.01-8.01-8.01l0,0H101.21c-3.24,0.7-6.43-1.36-7.13-4.6
		c-0.7-3.24,1.36-6.43,4.6-7.13c0.83-0.18,1.7-0.18,2.53,0h183.04c4.42,0,8.01-3.59,8.01-8.01c0,0,0,0,0,0v-30.31h0.9h0.45
		l1.56,0.21h0.57h1.47h0.63h1.83h0.48h1.83h0.63h1.47h0.57l1.56-0.21h0.45h0.9v30.31c0,4.42,3.59,8.01,8.01,8.01l0,0h183.04
		c3.24-0.7,6.43,1.36,7.13,4.6c0.7,3.24-1.36,6.43-4.6,7.13c-0.83,0.18-1.7,0.18-2.53,0H315.58c-4.42,0-8.01,3.59-8.01,8.01v0v37.45
		c0,4.42,3.59,8.01,8.01,8.01c4.42,0,8.01-3.59,8.01-8.01v-29.44h127.05l-76.91,169.45h-1.89c-5.92,0.01-10.7,4.82-10.69,10.73
		c0,1.67,0.4,3.32,1.15,4.81l13.89,27.37c5.33,10.56,16.17,17.2,28,17.16h123.03c11.83,0.03,22.66-6.61,28-17.16l13.89-27.37
		c1.7-3.31,1.54-7.28-0.42-10.44L568.62,473.57z M381.32,613.73c5.35,0,9.69,4.34,9.69,9.69v13.86H268.47
		c-4.42,0-8.01,3.59-8.01,8.01s3.59,8.01,8.01,8.01h151.35c5.35,0,9.69,4.34,9.69,9.69v13.98H170.26V663c0-5.35,4.34-9.69,9.69-9.69
		h51.34c4.42,0,8.01-3.59,8.01-8.01s-3.59-8.01-8.01-8.01l0,0h-22.53V623.3c0-5.35,4.34-9.69,9.69-9.69L381.32,613.73z
		 M209.32,504.11c-2.61,5.17-7.92,8.42-13.71,8.4H72.59c-5.79,0.02-11.1-3.23-13.71-8.4l-9.99-19.65h170.44L209.32,504.11z
		 M208.57,468.44H59.56l74.57-164.01L208.57,468.44z M311.62,214.79l-0.87,0.42l-0.45,0.21l-1.8,0.69l-0.84,0.27l-0.78,0.21
		l-0.6,0.15l-2.19,0.45h-0.66h-0.75h-0.84h-0.6h-3h-0.6h-0.84h-0.75h-0.66l-1.38-0.27l-0.81-0.18l-0.6-0.15l-0.78-0.21l-0.84-0.27
		l-1.8-0.69l-0.45-0.21l-0.87-0.42c-13.2-6.54-18.61-22.54-12.07-35.74s22.54-18.61,35.74-12.07c13.2,6.54,18.61,22.54,12.07,35.74
		c-2.59,5.24-6.83,9.48-12.07,12.07H311.62z M465.55,304.42l74.45,164.01H391.22l74.45-164.01H465.55z M540.74,504.11
		c-2.61,5.17-7.92,8.42-13.71,8.4H404.01c-5.79,0.02-11.1-3.23-13.71-8.4l-9.99-19.65h170.38l-9.99,19.65H540.74z"/>
</g>
</svg>
