<?xml version="1.0" encoding="utf-8"?>
<!-- Generator: Adobe Illustrator 27.1.1, SVG Export Plug-In . SVG Version: 6.00 Build 0)  -->
<svg version="1.1" id="Layer_1" xmlns="http://www.w3.org/2000/svg" xmlns:xlink="http://www.w3.org/1999/xlink" x="0px" y="0px"
	 viewBox="0 0 595.28 841.89" style="enable-background:new 0 0 595.28 841.89;" xml:space="preserve">
<path id="Path_83450" d="M510.65,581.37c4.29-11.56-1.6-24.4-13.15-28.69l-56.46-21.04l-14.08-47.22c0.03-1.17-0.14-2.33-0.51-3.44
	c-0.26-0.61-0.6-1.18-1.01-1.69l-20.08-67.39v-0.82c0.04-0.28-0.11-0.56-0.37-0.68l-57.42-193.8c-8.19-27.58-37.19-43.3-64.77-35.12
	c-16.89,5.01-30.1,18.23-35.12,35.12l-57.45,193.66c0.04,0.28-0.11,0.56-0.37,0.68c-0.37,0.25,0,0.56,0,0.82l-20.02,67.58
	c-0.41,0.51-0.76,1.08-1.01,1.69c-0.36,1.11-0.53,2.27-0.51,3.44l-14.08,47.22l-56.46,21.04c-11.54,4.26-17.44,17.07-13.18,28.61
	c2.26,6.11,7.07,10.92,13.18,13.18l163.61,60.74c23.38,8.69,49.1,8.69,72.48,0l163.64-60.88
	C503.58,592.16,508.37,587.41,510.65,581.37z M185.79,497.57c36.02,12.5,73.74,19.42,111.85,20.53
	c38.11-1.11,75.83-8.03,111.85-20.53l16.11,54.26c-40.7,16.7-84,26.13-127.96,27.88c-43.93-1.81-87.22-11.18-127.96-27.71
	L185.79,497.57z M206.8,426.83c29.52,8.75,60.06,13.55,90.84,14.28c30.77-0.66,61.32-5.4,90.84-14.08l15.4,51.34
	c-34.28,11.58-70.08,18.05-106.25,19.21c-36.12-1.06-71.86-7.65-105.99-19.51L206.8,426.83z M230.06,348.72
	c22.16,5.17,44.83,7.91,67.58,8.17c22.76-0.26,45.42-3,67.58-8.17l17.4,58.63c-27.63,8.13-56.22,12.58-85.01,13.24
	c-28.8-0.66-57.38-5.11-85.01-13.24L230.06,348.72z M251.77,275.5c15.16,2.63,30.51,4.05,45.9,4.25c15.39-0.2,30.74-1.63,45.9-4.25
	l15.71,53.5c-20.2,4.69-40.85,7.22-61.59,7.55c-20.74-0.33-41.38-2.86-61.59-7.55L251.77,275.5z M267.18,222.73
	c4.88-16.67,22.35-26.23,39.03-21.35c10.29,3.01,18.34,11.06,21.35,21.35l9.74,32.89c-13.22,2.19-26.59,3.4-39.99,3.6
	c-13.4-0.21-26.77-1.41-39.99-3.6L267.18,222.73z M490.31,575.21L326.68,636.2c-18.77,6.98-39.43,6.98-58.21,0l-163.58-60.99
	c-0.44-0.16-0.8-0.5-0.99-0.93c-0.19-0.42-0.19-0.9,0-1.32c0.2-0.45,0.56-0.81,1.01-1.01l42.24-15.77
	c-0.89,4.64,1.51,9.29,5.8,11.26c45.78,19.66,94.76,30.8,144.54,32.86c49.8-2.08,98.8-13.22,144.6-32.89
	c4.29-1.97,6.69-6.62,5.8-11.26l42.24,15.77c0.91,0.32,1.39,1.32,1.07,2.23c-0.18,0.5-0.57,0.89-1.07,1.07H490.31z"/>
</svg>
