<?xml version="1.0" encoding="utf-8"?>
<!-- Generator: Adobe Illustrator 27.1.1, SVG Export Plug-In . SVG Version: 6.00 Build 0)  -->
<svg version="1.1" id="Layer_1" xmlns="http://www.w3.org/2000/svg" xmlns:xlink="http://www.w3.org/1999/xlink" x="0px" y="0px"
	 viewBox="0 0 595.28 841.89" style="enable-background:new 0 0 595.28 841.89;" xml:space="preserve">
<style type="text/css">
	.st0{fill-rule:evenodd;clip-rule:evenodd;}
</style>
<g id="svgexport-17_4_" transform="translate(-28.291 -5.411)">
	<path id="Path_83777" class="st0" d="M170.02,375.1V261.22c0.03-11.82,9.61-21.38,21.43-21.4h41.04
		c8.35-0.13,16.11,4.32,20.21,11.59l0,0l12.59,21.81h77.11c11.83,0.02,21.41,9.6,21.43,21.43v80.45
		c-0.03,11.82-9.61,21.38-21.43,21.4h-7.88c-4.08,0-7.38-3.3-7.38-7.38s3.3-7.38,7.38-7.38h7.88c3.67,0.02,6.65-2.94,6.66-6.61
		c0,0,0,0,0,0v-80.45c0-3.68-2.98-6.66-6.66-6.66l0,0H184.86v87.08c0.02,3.67,3,6.62,6.66,6.61c0,0,0,0,0,0h7.49
		c4.08,0,7.38,3.3,7.38,7.38c0,4.08-3.3,7.38-7.38,7.38h-7.49c-11.82-0.02-21.4-9.58-21.43-21.4L170.02,375.1z M248.23,273.2
		l-8.26-14.4c-1.5-2.69-4.36-4.32-7.44-4.24H191.5c-3.67-0.02-6.65,2.94-6.66,6.61c0,0,0,0,0,0v12.04H248.23z M358.09,499.63H219.12
		c-4.06,0-7.35-3.29-7.35-7.35s3.29-7.35,7.35-7.35h154.5c4.87-5.34,9.75-11.46,15.97-19.64c-4.46-5.54-4.04-13.56,0.99-18.59
		l9.25-9.31l0,0c5.44-5.41,14.23-5.41,19.66,0l0,0l44.89,44.95c5.41,5.44,5.41,14.23,0,19.66l-9.25,9.25
		c-5.07,5.02-13.11,5.42-18.64,0.91c-2.88,2.18-5.75,4.4-8.59,6.64L530,616.57l0,0c6.26,6.28,6.26,16.44,0,22.72l-11.37,11.37
		c-6.28,6.26-16.44,6.26-22.72,0l0,0l-97.66-102.34c-2.31,2.94-4.6,5.89-6.86,8.87c4.52,5.53,4.13,13.58-0.91,18.64l-9.25,9.31l0,0
		c-5.47,5.39-14.25,5.39-19.72,0l0,0l-44.92-44.81c-2.79-2.77-4.26-6.6-4.05-10.52h-93.42c-4.06,0-7.35-3.29-7.35-7.35
		c0-4.06,3.29-7.35,7.35-7.35h103.06l3.69-3.69c5.1-5.01,13.14-5.4,18.7-0.91c5.23-4.13,9.64-7.57,13.55-10.82L358.09,499.63z
		 M400.01,475.84c-12.37,17.37-27.55,32.55-44.92,44.92l25.83,25.83c4.19-5.51,7.82-10.11,11.29-14.21l0,0
		c5.92-6.96,12.42-13.41,19.42-19.28l0,0c4.1-3.44,8.68-7.08,14.18-11.26L400.01,475.84z M416.53,528.3
		c-3.01,2.75-5.9,5.65-8.68,8.68l98.4,103.47c0.52,0.5,1.35,0.5,1.87,0l11.37-11.37c0.5-0.52,0.5-1.35,0-1.87L416.53,528.3z
		 M401.61,456.53l43.76,43.76l8.12-8.12l-43.9-43.82L401.61,456.53z M327.71,530.37l43.6,43.84l8.26-8.26l-43.79-43.79
		L327.71,530.37z M307.03,357.14c7.34,0.03,13.27,5.99,13.27,13.33V434c0,7.36-5.97,13.33-13.33,13.33l0,0h-79.87
		c-7.36,0-13.33-5.97-13.33-13.33v-63.54c0.01-7.33,5.94-13.28,13.27-13.33v-6.36c-0.02-22.1,17.87-40.04,39.97-40.06
		c22.1-0.02,40.04,17.87,40.06,39.97c0,0.03,0,0.06,0,0.09L307.03,357.14z M241.73,357.14h50.59v-6.36c0-13.97-11.33-25.3-25.3-25.3
		c-13.97,0-25.3,11.33-25.3,25.3V357.14z M228.46,432.6h77.11v-60.75h-77.11V432.6z M274.4,412.25v9.25c0,4.06-3.29,7.35-7.35,7.35
		c-4.06,0-7.35-3.29-7.35-7.35v-9.25c-9.71-4.06-14.29-15.23-10.23-24.94c4.06-9.71,15.23-14.29,24.94-10.23
		c9.71,4.06,14.29,15.23,10.23,24.94C282.69,406.64,279.02,410.31,274.4,412.25z M267.04,399c2.4,0,4.35-1.95,4.35-4.35
		c0-2.4-1.95-4.35-4.35-4.35c-2.4,0-4.35,1.95-4.35,4.35c0,2.34,1.85,4.26,4.19,4.35H267.04z M386.65,646.18h-94.49
		c-4.06,0.01-7.36-3.28-7.37-7.34c0-0.55,0.06-1.1,0.18-1.64l5.04-22.2c1.5-6.25,7.13-10.62,13.55-10.55h71.61
		c6.42-0.08,12.05,4.3,13.55,10.55l5.04,22.2c0.9,3.96-1.59,7.9-5.55,8.8c-0.54,0.12-1.09,0.18-1.64,0.18H386.65z M374.64,619.16
		h-70.48l-2.75,12.31h75.9L374.64,619.16z M416.23,421.89c0,4.06-3.29,7.35-7.35,7.35c-4.06,0-7.35-3.29-7.35-7.35l0,0V211.15l0,0
		H132.48l0,0v352.88h198.29c4.06,0,7.35,3.29,7.35,7.35c0,4.06-3.29,7.35-7.35,7.35l0,0H132.48c-8.17,0-14.79-6.62-14.79-14.79
		c0,0,0,0,0,0V211.15c0.02-8.16,6.63-14.76,14.79-14.76H401.3c8.15,0.02,14.75,6.62,14.76,14.76L416.23,421.89z M165.61,499.72
		c-4.06,0-7.35-3.29-7.35-7.35s3.29-7.35,7.35-7.35h25.45c4.06,0,7.35,3.29,7.35,7.35s-3.29,7.35-7.35,7.35H165.61z M165.61,529.71
		c-4.06,0-7.35-3.29-7.35-7.35s3.29-7.35,7.35-7.35h25.45c4.06,0,7.35,3.29,7.35,7.35s-3.29,7.35-7.35,7.35H165.61z"/>
</g>
</svg>
