<?xml version="1.0" encoding="utf-8"?>
<!-- Generator: Adobe Illustrator 27.1.1, SVG Export Plug-In . SVG Version: 6.00 Build 0)  -->
<svg version="1.1" id="Layer_1" xmlns="http://www.w3.org/2000/svg" xmlns:xlink="http://www.w3.org/1999/xlink" x="0px" y="0px"
	 viewBox="0 0 595.28 841.89" style="enable-background:new 0 0 595.28 841.89;" xml:space="preserve">
<path id="Path_83457" d="M227.49,509.22c0.45-1.42,0.32-2.95-0.37-4.27l-27.02-52.38c-1.42-2.75-4.8-3.83-7.56-2.42l-52.38,27.02
	c-2.75,1.42-3.83,4.8-2.42,7.56l27.02,52.38c1.42,2.75,4.8,3.83,7.56,2.42l52.38-27.02C226.04,511.82,227.04,510.64,227.49,509.22z
	 M172.16,526.97l-21.88-42.44l42.44-21.88l21.88,42.44L172.16,526.97z M517.8,418.83l-21.68-42.13c1.37-5.96,2.05-12.06,2.05-18.17
	v-106.5c-0.07-3.22,1.51-6.25,4.18-8.03c16.97-11.82,21.14-35.15,9.33-52.12c-11.82-16.97-35.15-21.14-52.12-9.33
	c-16.97,11.82-21.14,35.15-9.33,52.12c2.65,3.8,5.98,7.08,9.82,9.67c2.76,1.77,4.39,4.84,4.33,8.12v62.83l-36.51-70.83
	c-7.13-13.64-23.92-19.01-37.64-12.02L107.98,377.97C94.35,385.11,89,401.89,95.99,415.6l7.92,15.34l-13.76,7.11
	c-13.66,7.13-19.03,23.94-12.02,37.66L168,650.1c7.13,13.66,23.94,19.03,37.66,12.02L487.85,516.6
	c13.66-7.13,19.03-23.94,12.02-37.66l-7.92-15.34l13.76-7.11c13.66-7.13,19.03-23.94,12.02-37.66L517.8,418.83z M466.34,235.04
	c-12.05-8.05-15.29-24.34-7.24-36.39c8.05-12.05,24.34-15.29,36.39-7.24c12.05,8.05,15.29,24.34,7.24,36.39
	c-1.81,2.71-4.11,5.06-6.78,6.93c-5.7,3.86-9.08,10.33-8.99,17.22v106.65c0,0.14,0,0.28,0,0.45l-11.23-22.02v-84.57
	c0.05-7-3.43-13.55-9.27-17.41L466.34,235.04z M482.77,506.61L200.56,652.15c-8.21,4.12-18.2,0.91-22.47-7.22L88.04,470.65
	c-4.12-8.21-0.91-18.2,7.22-22.47l243.65-125.66l-3.31,35.75c-0.58,6.34-0.27,12.73,0.93,18.99l-100.94,51.88
	c-2.83,1.27-4.1,4.59-2.83,7.42c1.27,2.83,4.59,4.1,7.42,2.83c0.19-0.08,0.37-0.18,0.55-0.28l98.89-51.01
	c3.33,8.89,8.32,17.06,14.72,24.07l-33.45,17.25c-2.83,1.27-4.1,4.59-2.83,7.42c1.27,2.83,4.59,4.1,7.42,2.83
	c0.19-0.08,0.37-0.18,0.55-0.28l36.91-19.04c15.2,12.55,34.25,19.49,53.95,19.66c5.89,0,11.77-0.64,17.53-1.91l4.21,8.15
	c1.27,2.83,4.59,4.1,7.42,2.83c2.83-1.27,4.1-4.59,2.83-7.42c-0.08-0.19-0.18-0.37-0.28-0.55l-6.24-12.08l0,0l-10.67-20.7l0,0
	l-6.15-11.94c-1.57-2.68-5.01-3.57-7.69-2c-2.47,1.45-3.45,4.52-2.28,7.14l2.44,4.72h-1.07c-13.43,1.03-26.55-4.33-35.42-14.46
	c-9.65-14.72-12.56-32.85-8-49.85l16.23-1.74c3.08-0.36,5.29-3.14,4.93-6.23c-0.13-1.14-0.61-2.21-1.37-3.07l-22.33-24.91l6.52-3.37
	c8.21-4.12,18.2-0.91,22.47,7.22l89.88,174.39c4.12,8.2,0.92,18.19-7.19,22.47L482.77,506.61z M377.61,330.05l-9.41,1.01
	c-2.37,0.26-4.32,2-4.86,4.33c-6.5,21.41-3.07,44.61,9.35,63.22c11,12.79,27.34,19.71,44.18,18.71c2.22-0.01,4.45-0.14,6.66-0.39
	l5.62,10.7c-4.02,0.71-8.08,1.07-12.16,1.07c-20.54-0.13-40.12-8.76-54.07-23.85c-11.62-12.26-17.46-28.89-16.07-45.73l5.34-57.52
	L377.61,330.05z M500.63,446.53l-13.76,7.11l-76.9-149.11c-7.13-13.66-23.94-19.03-37.66-12.02l-9.13,4.69l-11.23-12.64
	c-2.09-2.3-5.64-2.46-7.94-0.38c-1.03,0.94-1.67,2.22-1.81,3.61l-1.97,21.32L113.85,425.72l-7.92-15.34
	c-4.12-8.2-0.92-18.19,7.19-22.47l282.22-145.55c8.21-4.12,18.2-0.91,22.47,7.22L507.68,424c4.12,8.21,0.91,18.2-7.22,22.47
	L500.63,446.53z M244.45,578.54c1.41,2.75,0.33,6.13-2.42,7.56l-28.09,14.49c-2.83,1.27-6.15,0-7.42-2.83
	c-1.17-2.61-0.19-5.69,2.28-7.14l28.09-14.49c2.73-1.4,6.09-0.35,7.53,2.36L244.45,578.54z M308.1,545.73
	c1.41,2.75,0.33,6.13-2.42,7.56l-28.09,14.49c-2.67,1.57-6.12,0.68-7.69-2c-1.57-2.67-0.68-6.12,2-7.69c0.18-0.1,0.36-0.2,0.55-0.28
	l28.09-14.49C303.3,541.9,306.68,542.98,308.1,545.73z M371.72,512.79c1.41,2.75,0.33,6.13-2.42,7.56l-28.09,14.49
	c-2.67,1.57-6.12,0.68-7.69-2c-1.57-2.67-0.68-6.12,2-7.69c0.18-0.1,0.36-0.2,0.55-0.28l28.09-14.49
	C366.91,508.96,370.29,510.04,371.72,512.79z M435.36,479.98c1.41,2.75,0.33,6.13-2.42,7.56l-28.09,14.49
	c-2.83,1.27-6.15,0-7.42-2.83c-1.17-2.61-0.19-5.69,2.28-7.14l28.09-14.49C430.56,476.15,433.94,477.23,435.36,479.98z
	 M497.97,213.16c0-9.38-7.61-16.99-16.99-16.99c-9.38,0-16.99,7.61-16.99,16.99s7.61,16.99,16.99,16.99l0,0
	C490.36,230.15,497.97,222.54,497.97,213.16z M475.16,213.16c0-3.2,2.59-5.79,5.79-5.79c3.2,0,5.79,2.59,5.79,5.79
	c0,3.2-2.59,5.79-5.79,5.79C477.75,218.94,475.16,216.35,475.16,213.16C475.16,213.16,475.16,213.16,475.16,213.16z"/>
</svg>
